<svg width="25" height="19" viewBox="0 0 25 19" fill="none" xmlns="http://www.w3.org/2000/svg">
<path d="M20.8177 1.76736C19.2877 1.07736 17.6477 0.567364 15.9327 0.277364C15.9174 0.274432 15.9016 0.276322 15.8875 0.282772C15.8733 0.289221 15.8615 0.299913 15.8537 0.313364C15.6437 0.682364 15.4097 1.16336 15.2457 1.54336C13.4268 1.2716 11.5776 1.2716 9.75873 1.54336C9.57606 1.12222 9.37007 0.711588 9.14172 0.313364C9.13398 0.299747 9.12228 0.288814 9.10816 0.282024C9.09404 0.275235 9.0782 0.272911 9.06273 0.275364C7.34873 0.565364 5.70872 1.07536 4.17772 1.76636C4.16455 1.77189 4.15339 1.78131 4.14572 1.79336C1.03372 6.36836 0.180725 10.8304 0.599725 15.2364C0.600891 15.2472 0.60424 15.2576 0.60957 15.2671C0.614899 15.2765 0.622097 15.2848 0.630725 15.2914C2.44712 16.6138 4.47306 17.6212 6.62372 18.2714C6.63872 18.276 6.65475 18.276 6.66974 18.2713C6.68472 18.2667 6.69796 18.2576 6.70772 18.2454C7.16972 17.6254 7.58172 16.9704 7.93372 16.2824C7.95472 16.2424 7.93472 16.1944 7.89272 16.1784C7.24673 15.9351 6.62081 15.6415 6.02072 15.3004C6.00994 15.2942 6.00086 15.2855 5.99428 15.2749C5.98771 15.2644 5.98385 15.2524 5.98306 15.24C5.98226 15.2276 5.98456 15.2152 5.98974 15.204C5.99492 15.1927 6.00281 15.1828 6.01272 15.1754C6.13872 15.0824 6.26472 14.9854 6.38472 14.8884C6.39553 14.8796 6.40854 14.8741 6.42231 14.8723C6.43608 14.8706 6.45007 14.8726 6.46272 14.8784C10.3897 16.6424 14.6427 16.6424 18.5237 14.8784C18.5364 14.8723 18.5505 14.8699 18.5645 14.8715C18.5785 14.8731 18.5917 14.8786 18.6027 14.8874C18.7227 14.9854 18.8477 15.0824 18.9747 15.1754C18.9847 15.1827 18.9928 15.1924 18.9981 15.2036C19.0034 15.2148 19.0059 15.2271 19.0053 15.2395C19.0047 15.2519 19.0011 15.2639 18.9947 15.2745C18.9883 15.2852 18.9794 15.294 18.9687 15.3004C18.3707 15.6444 17.7487 15.9354 17.0957 16.1774C17.0857 16.181 17.0766 16.1867 17.0689 16.1942C17.0613 16.2016 17.0553 16.2106 17.0515 16.2206C17.0476 16.2305 17.0459 16.2412 17.0464 16.2518C17.047 16.2625 17.0498 16.2729 17.0547 16.2824C17.4147 16.9694 17.8267 17.6234 18.2797 18.2444C18.2891 18.2571 18.3023 18.2666 18.3173 18.2716C18.3323 18.2767 18.3485 18.2769 18.3637 18.2724C20.5181 17.624 22.5473 16.6161 24.3657 15.2914C24.3746 15.2852 24.382 15.2771 24.3876 15.2678C24.3931 15.2585 24.3965 15.2481 24.3977 15.2374C24.8977 10.1434 23.5597 5.71736 20.8487 1.79536C20.8421 1.78262 20.8311 1.77268 20.8177 1.76736ZM8.52073 12.5534C7.33873 12.5534 6.36372 11.4844 6.36372 10.1734C6.36372 8.86136 7.31973 7.79336 8.52073 7.79336C9.73073 7.79336 10.6967 8.87036 10.6777 10.1734C10.6777 11.4854 9.72173 12.5534 8.52073 12.5534V12.5534ZM16.4957 12.5534C15.3127 12.5534 14.3387 11.4844 14.3387 10.1734C14.3387 8.86136 15.2937 7.79336 16.4957 7.79336C17.7057 7.79336 18.6717 8.87036 18.6527 10.1734C18.6527 11.4854 17.7067 12.5534 16.4957 12.5534V12.5534Z" fill="#C996CC"/>
</svg>
