<svg width="25" height="25" viewBox="0 0 25 25" fill="none" xmlns="http://www.w3.org/2000/svg">
<path d="M21.5957 7.80569C21.4395 7.77441 21.3223 7.75877 21.2441 7.75877C20.666 7.75877 20.166 7.95428 19.7441 8.34528C18.791 7.923 17.9004 7.57891 17.0723 7.31303C15.7129 6.8751 14.291 6.51537 12.8066 6.23385C12.666 5.85848 12.4551 5.54567 12.1738 5.29543C12.5645 3.44988 13.0879 1.77637 13.7441 0.274902C15.7129 0.415665 17.5215 0.986535 19.1699 1.98751C20.8184 2.98849 22.1504 4.30227 23.166 5.92886C22.5879 6.55447 22.0645 7.18008 21.5957 7.80569ZM10.7207 4.75584C10.3145 4.75584 9.93164 4.86532 9.57227 5.08429C8.30664 4.14587 7.0332 3.34822 5.75195 2.69132C7.68945 1.22114 9.86133 0.415665 12.2676 0.274902C11.6582 1.63561 11.166 3.12925 10.791 4.75584H10.7207ZM2.58789 6.21039C3.11914 5.31889 3.79102 4.47432 4.60352 3.67666C5.66602 4.22407 6.76758 4.8966 7.9082 5.69426C5.89258 5.64734 4.11914 5.81938 2.58789 6.21039ZM8.4707 7.1488C8.50195 7.63365 8.66992 8.05985 8.97461 8.42739C9.2793 8.79494 9.6582 9.04128 10.1113 9.1664C10.0176 10.2612 9.9707 11.3013 9.9707 12.2866C9.9707 12.9748 9.99414 13.7646 10.041 14.6561C9.69727 14.7656 9.39258 14.9533 9.12695 15.2192C8.2832 14.8907 7.4707 14.5154 6.68945 14.0931C6.86133 13.749 6.94727 13.3971 6.94727 13.0374C6.94727 12.4118 6.72852 11.88 6.29102 11.4421C5.85352 11.0041 5.32227 10.7852 4.69727 10.7852C4.00977 10.7852 3.43945 11.0511 2.98633 11.5828C2.33008 10.9885 1.74414 10.3707 1.22852 9.72945C1.36914 9.05692 1.58008 8.3922 1.86133 7.73531C3.76758 7.20354 5.9707 7.00804 8.4707 7.1488ZM2.4707 13.225C2.51758 13.8037 2.75586 14.2925 3.18555 14.6913C3.61523 15.0902 4.11914 15.2896 4.69727 15.2896C4.86914 15.2896 5.05664 15.2583 5.25977 15.1957C6.25977 15.7744 7.33008 16.2749 8.4707 16.6972V16.791C8.4707 17.401 8.67773 17.921 9.0918 18.3511C9.50586 18.7813 10.0176 19.0119 10.627 19.0432C11.0176 20.9513 11.5645 22.6952 12.2676 24.2749C10.7051 24.1811 9.22852 23.8018 7.83789 23.1371C6.44727 22.4724 5.24805 21.6082 4.24023 20.5447C3.23242 19.4812 2.43164 18.2299 1.83789 16.791C1.24414 15.3521 0.947266 13.8507 0.947266 12.2866C0.947266 12.271 0.955078 12.0598 0.970703 11.6532C1.4082 12.2006 1.9082 12.7246 2.4707 13.225ZM12.6895 17.8468C13.8145 18.0501 14.9473 18.183 16.0879 18.2456C16.1973 18.5584 16.3691 18.8477 16.6035 19.1136C16.2441 20.7558 16.0254 22.3511 15.9473 23.8995C15.1504 24.1029 14.416 24.228 13.7441 24.2749C13.0098 22.6014 12.4395 20.7089 12.0332 18.5975C12.3145 18.4098 12.5332 18.1596 12.6895 17.8468ZM19.9551 18.9728C20.1582 18.7226 20.2988 18.4567 20.377 18.1752C21.5176 18.0814 22.6191 17.9328 23.6816 17.7294C22.9316 19.1996 21.9004 20.4743 20.5879 21.5535C20.4473 20.7402 20.2363 19.88 19.9551 18.9728ZM16.1348 16.7441C15.041 16.6815 13.9629 16.5408 12.9004 16.3218C12.7285 15.5398 12.2832 15.0002 11.5645 14.7031C11.502 13.7803 11.4707 12.9748 11.4707 12.2866C11.4707 11.2544 11.5176 10.183 11.6113 9.07256C11.6426 9.07256 11.6816 9.05692 11.7285 9.02564C11.7754 8.99436 11.8066 8.97871 11.8223 8.97871C12.4316 9.57305 12.9629 10.1205 13.416 10.6209C14.7754 12.1224 15.9316 13.8272 16.8848 15.7353C16.541 16.0012 16.291 16.3375 16.1348 16.7441ZM18.2207 19.794C18.252 19.794 18.3379 19.7861 18.4785 19.7705C18.7441 20.7246 18.9395 21.6708 19.0645 22.6092C18.6113 22.8751 18.0645 23.141 17.4238 23.4069C17.5332 22.1869 17.7207 20.9748 17.9863 19.7705C18.1113 19.7861 18.1895 19.794 18.2207 19.794ZM18.1035 14.1869C18.0879 14.2182 18.0684 14.2651 18.0449 14.3277C18.0215 14.3902 18.002 14.4372 17.9863 14.4685C17.002 12.6855 15.8457 11.0667 14.5176 9.61215C14.0332 9.06474 13.4551 8.47041 12.7832 7.82915C12.7988 7.82915 12.8105 7.81742 12.8184 7.79396L12.8301 7.75877C14.1426 8.02466 15.4004 8.3531 16.6035 8.74411C17.3379 8.97871 18.1426 9.29152 19.0176 9.68253C18.9863 9.83893 18.9707 9.95623 18.9707 10.0344C18.9707 10.5036 19.1113 10.9337 19.3926 11.3248C18.877 12.3101 18.4473 13.2641 18.1035 14.1869ZM19.2051 15.5476C19.3926 15.0002 19.4863 14.7187 19.4863 14.7031C19.7988 13.921 20.1895 13.0843 20.6582 12.1928C20.8613 12.2554 21.0566 12.2866 21.2441 12.2866C21.7754 12.2866 22.252 12.1068 22.6738 11.747C23.4395 12.2788 24.1895 12.8731 24.9238 13.53C24.8301 14.4215 24.6426 15.2817 24.3613 16.1107C23.0801 16.3766 21.7285 16.5642 20.3066 16.6737C20.1035 16.1732 19.7363 15.7979 19.2051 15.5476ZM23.4941 10.011C23.4941 9.49484 23.3223 9.02564 22.9785 8.60335C23.3066 8.18106 23.6348 7.79787 23.9629 7.45379C24.5254 8.73629 24.8535 10.0579 24.9473 11.4186C24.4316 11.0276 23.9316 10.6757 23.4473 10.3629C23.4785 10.2221 23.4941 10.1048 23.4941 10.011Z" fill="#C996CC"/>
</svg>
