<svg width="1280" height="149" viewBox="0 0 1280 149" fill="none" xmlns="http://www.w3.org/2000/svg">
<path d="M907.5 82.9999C1065.5 39.9999 1201 91.4999 1282.5 149H0V37.4999C70 28.3332 239.5 15.4999 357.5 37.4999C505 64.9999 749.5 126 907.5 82.9999Z" fill="#916BBF"/>
<path d="M987.276 0C1112.19 0 1180.42 28 1280.75 62V149H0V124.5C23.5782 124.5 86.788 121.5 151.001 109.5C231.267 94.5 286.952 83.5 352.67 88.5C418.388 93.5 454.007 111 506.681 124.5C559.356 138 660.692 108 726.411 62C792.129 16 862.362 0 987.276 0Z" fill="#1C0C5B"/>
</svg>
