<svg width="1280" height="160" viewBox="0 0 1280 160" fill="none" xmlns="http://www.w3.org/2000/svg">
<g filter="url(#filter0_d_58_378)">
<path d="M907.5 93.9999C1065.5 50.9999 1201 102.5 1282.5 160H0V48.4999C70 39.3332 239.5 26.4999 357.5 48.4999C505 75.9999 749.5 137 907.5 93.9999Z" fill="#916BBF"/>
</g>
<g filter="url(#filter1_d_58_378)">
<path d="M987.276 11C1112.19 11 1180.42 39 1280.75 73V160H0V135.5C23.5782 135.5 86.788 132.5 151.001 120.5C231.267 105.5 286.952 94.5 352.67 99.5C418.388 104.5 454.007 122 506.681 135.5C559.356 149 660.692 119 726.411 73C792.129 27 862.362 11 987.276 11Z" fill="#1C0C5B"/>
</g>
<defs>
<filter id="filter0_d_58_378" x="-10" y="25.3525" width="1302.5" height="143.647" filterUnits="userSpaceOnUse" color-interpolation-filters="sRGB">
<feFlood flood-opacity="0" result="BackgroundImageFix"/>
<feColorMatrix in="SourceAlpha" type="matrix" values="0 0 0 0 0 0 0 0 0 0 0 0 0 0 0 0 0 0 127 0" result="hardAlpha"/>
<feOffset dy="-1"/>
<feGaussianBlur stdDeviation="5"/>
<feComposite in2="hardAlpha" operator="out"/>
<feColorMatrix type="matrix" values="0 0 0 0 0 0 0 0 0 0 0 0 0 0 0 0 0 0 0.5 0"/>
<feBlend mode="normal" in2="BackgroundImageFix" result="effect1_dropShadow_58_378"/>
<feBlend mode="normal" in="SourceGraphic" in2="effect1_dropShadow_58_378" result="shape"/>
</filter>
<filter id="filter1_d_58_378" x="-10" y="0" width="1300.75" height="169" filterUnits="userSpaceOnUse" color-interpolation-filters="sRGB">
<feFlood flood-opacity="0" result="BackgroundImageFix"/>
<feColorMatrix in="SourceAlpha" type="matrix" values="0 0 0 0 0 0 0 0 0 0 0 0 0 0 0 0 0 0 127 0" result="hardAlpha"/>
<feOffset dy="-1"/>
<feGaussianBlur stdDeviation="5"/>
<feComposite in2="hardAlpha" operator="out"/>
<feColorMatrix type="matrix" values="0 0 0 0 0 0 0 0 0 0 0 0 0 0 0 0 0 0 0.5 0"/>
<feBlend mode="normal" in2="BackgroundImageFix" result="effect1_dropShadow_58_378"/>
<feBlend mode="normal" in="SourceGraphic" in2="effect1_dropShadow_58_378" result="shape"/>
</filter>
</defs>
</svg>
