<svg width="192" height="176" viewBox="0 0 192 176" fill="none" xmlns="http://www.w3.org/2000/svg">
<g clip-path="url(#clip0_2_67)">
<path d="M8.39996 110.789H27.9257L27.9257 171.547H8.39996V110.789Z" stroke="white" stroke-width="4"/>
<path d="M78.5118 126.125L84.6605 128.085C84.6613 128.085 84.6621 128.086 84.6629 128.086C95.5204 131.576 106.818 133.459 118.168 133.735C118.169 133.735 118.17 133.735 118.171 133.735L136.956 134.226L137.683 134.245L138.252 133.792L155.733 119.904L155.734 119.904C164.461 112.969 176.476 112.229 185.897 117.84L141.256 159.227L86.9604 164.855L29.3836 158.907V121.018L53.3267 102.8H119.527C124.902 102.8 129.235 107.134 129.235 112.51C129.235 117.887 124.902 122.22 119.527 122.22H79.1191L78.5118 126.125Z" stroke="white" stroke-width="4"/>
<path d="M96.999 72.2995C96.8353 72.4028 96.6839 72.4978 96.5454 72.5842C96.4069 72.4978 96.2555 72.4028 96.0918 72.2995C95.1408 71.6994 93.7776 70.8189 92.1398 69.7043C88.8607 67.4725 84.4984 64.3138 80.1454 60.5965C75.7826 56.8708 71.4863 52.6323 68.2958 48.2485C65.0819 43.8325 63.1479 39.4845 63.1479 35.4978C63.1479 31.1055 64.563 26.6645 67.2473 23.3604C69.8949 20.1014 73.8141 17.8905 79.0643 17.8905C84.3717 17.8905 88.2976 20.1061 90.9354 22.3655C92.2567 23.4972 93.2411 24.6299 93.8912 25.4741C94.2154 25.8951 94.4538 26.2409 94.6071 26.4743C94.6836 26.5909 94.7387 26.6791 94.7723 26.7342C94.7892 26.7617 94.8006 26.7809 94.8067 26.7912L94.8089 26.7948L94.8097 26.7962L94.8104 26.7974L94.8113 26.7991L94.8118 26.7999L96.537 29.8195L98.2749 26.807L98.2753 26.8063L98.2763 26.8046L98.277 26.8034L98.2778 26.802L98.2801 26.7982C98.2864 26.7877 98.298 26.7684 98.315 26.7408C98.3491 26.6855 98.4047 26.5971 98.482 26.4803C98.6367 26.2465 98.8772 25.9001 99.2037 25.4787C99.8585 24.6335 100.849 23.4997 102.174 22.367C104.822 20.1048 108.748 17.8905 114.026 17.8905C119.277 17.8905 123.196 20.1014 125.843 23.3604C128.528 26.6645 129.943 31.1055 129.943 35.4978C129.943 39.4845 128.009 43.8325 124.795 48.2485C121.604 52.6323 117.308 56.8708 112.945 60.5965C108.592 64.3138 104.23 67.4725 100.951 69.7043C99.3132 70.8189 97.95 71.6994 96.999 72.2995Z" fill="#C996CC" stroke="white" stroke-width="4"/>
<path d="M43.3395 40.9986H33.592C32.6657 40.9986 31.9579 40.2906 31.9579 39.3648C31.9579 38.439 32.6657 37.7309 33.592 37.7309H43.3395C44.2658 37.7309 44.9736 38.439 44.9736 39.3648C44.9736 40.2906 44.2658 40.9986 43.3395 40.9986Z" fill="white"/>
<path d="M48.84 77.8165C48.4047 77.8165 48.0233 77.6528 47.6968 77.3262C47.043 76.673 47.043 75.6383 47.6968 75.0391L54.5582 68.1762C55.212 67.5229 56.2463 67.5229 56.8453 68.1762C57.4991 68.8302 57.4991 69.8649 56.8453 70.4641L49.984 77.3262C49.7115 77.6528 49.2761 77.8165 48.84 77.8165Z" fill="white"/>
<path d="M55.7562 11.0978C55.3208 11.0978 54.9395 10.934 54.613 10.6074L47.6968 3.74448C47.043 3.09127 47.043 2.0566 47.6968 1.4574C48.3498 0.803344 49.385 0.803344 49.984 1.4574L56.8453 8.3195C57.4991 8.97355 57.4991 10.0082 56.8453 10.6074C56.5728 10.934 56.1375 11.0978 55.7562 11.0978Z" fill="white"/>
<path d="M159.445 40.9986H149.697C148.771 40.9986 148.063 40.2906 148.063 39.3648C148.063 38.439 148.771 37.7309 149.697 37.7309H159.445C160.37 37.7309 161.078 38.439 161.078 39.3648C161.078 40.2906 160.37 40.9986 159.445 40.9986Z" fill="white"/>
<path d="M137.335 11.0978C136.899 11.0978 136.518 10.934 136.191 10.6074C135.538 9.95337 135.538 8.9187 136.191 8.3195L143.053 1.4574C143.706 0.803344 144.741 0.803344 145.34 1.4574C145.994 2.11061 145.994 3.14613 145.34 3.74448L138.478 10.6074C138.151 10.934 137.716 11.0978 137.335 11.0978Z" fill="white"/>
<path d="M144.196 77.8165C143.761 77.8165 143.379 77.6528 143.053 77.3262L136.191 70.4641C135.538 69.81 135.538 68.7754 136.191 68.1762C136.844 67.5229 137.879 67.5229 138.478 68.1762L145.34 75.0391C145.994 75.6923 145.994 76.727 145.34 77.3262C145.067 77.6528 144.632 77.8165 144.196 77.8165Z" fill="white"/>
</g>
<defs>
<clipPath id="clip0_2_67">
<rect width="191" height="175" fill="white" transform="translate(0.99646 0.583069)"/>
</clipPath>
</defs>
</svg>
