<svg width="638" height="140" viewBox="0 0 638 140" fill="none" xmlns="http://www.w3.org/2000/svg">
<path d="M182.627 102.108V34.9076H216.323C220.739 34.9076 224.611 35.8036 227.939 37.5956C231.331 39.3876 233.987 41.8836 235.907 45.0836C237.827 48.2196 238.787 51.8676 238.787 56.0276C238.787 59.9956 237.827 63.5476 235.907 66.6836C233.987 69.8196 231.331 72.2836 227.939 74.0756C224.547 75.8676 220.675 76.7636 216.323 76.7636H196.547V102.108H182.627ZM196.547 65.2436H214.787C217.795 65.2436 220.195 64.4116 221.987 62.7476C223.843 61.0836 224.771 58.8756 224.771 56.1236C224.771 53.3076 223.843 51.0676 221.987 49.4036C220.195 47.7396 217.795 46.9076 214.787 46.9076H196.547V65.2436ZM247.013 102.108V52.0916H260.165V57.6596C261.765 55.4836 263.685 53.8196 265.925 52.6676C268.165 51.5156 270.693 50.9396 273.509 50.9396C275.941 51.0036 277.765 51.3876 278.981 52.0916V63.6116C278.021 63.1636 276.965 62.8436 275.813 62.6516C274.661 62.3956 273.477 62.2676 272.261 62.2676C269.701 62.2676 267.365 62.9076 265.253 64.1876C263.141 65.4676 261.445 67.2916 260.165 69.6596V102.108H247.013ZM308.616 103.068C303.624 103.068 299.112 101.916 295.08 99.6116C291.048 97.3076 287.848 94.2036 285.48 90.2996C283.112 86.3956 281.928 82.0116 281.928 77.1476C281.928 72.2836 283.08 67.8996 285.384 63.9956C287.752 60.0276 290.952 56.8916 294.984 54.5876C299.08 52.2836 303.624 51.1316 308.616 51.1316C313.608 51.1316 318.12 52.2836 322.152 54.5876C326.248 56.8916 329.448 60.0276 331.752 63.9956C334.12 67.8996 335.304 72.2836 335.304 77.1476C335.304 82.0116 334.12 86.3956 331.752 90.2996C329.448 94.2036 326.28 97.3076 322.248 99.6116C318.216 101.916 313.672 103.068 308.616 103.068ZM308.616 91.6436C311.24 91.6436 313.576 91.0036 315.624 89.7236C317.736 88.4436 319.4 86.7156 320.616 84.5396C321.896 82.2996 322.536 79.8356 322.536 77.1476C322.536 74.3956 321.896 71.9316 320.616 69.7556C319.4 67.5796 317.736 65.8516 315.624 64.5716C313.576 63.2276 311.24 62.5556 308.616 62.5556C306.056 62.5556 303.72 63.2276 301.608 64.5716C299.496 65.8516 297.832 67.5796 296.616 69.7556C295.4 71.9316 294.792 74.3956 294.792 77.1476C294.792 79.8356 295.4 82.2996 296.616 84.5396C297.832 86.7156 299.496 88.4436 301.608 89.7236C303.72 91.0036 306.056 91.6436 308.616 91.6436ZM365.131 102.876C359.563 102.876 355.339 101.628 352.459 99.1316C349.643 96.5716 348.235 92.8596 348.235 87.9956V63.0356H337.963V52.0916H348.235V39.3236L361.387 36.3476V52.0916H375.691V63.0356H361.387V85.3076C361.387 87.6116 361.899 89.2756 362.923 90.2996C363.947 91.2596 365.739 91.7396 368.299 91.7396C369.579 91.7396 370.731 91.6756 371.755 91.5476C372.843 91.3556 374.027 91.0356 375.307 90.5876V101.436C373.963 101.884 372.267 102.236 370.219 102.492C368.235 102.748 366.539 102.876 365.131 102.876ZM405.928 103.068C400.936 103.068 396.424 101.916 392.392 99.6116C388.36 97.3076 385.16 94.2036 382.792 90.2996C380.424 86.3956 379.24 82.0116 379.24 77.1476C379.24 72.2836 380.392 67.8996 382.696 63.9956C385.064 60.0276 388.264 56.8916 392.296 54.5876C396.392 52.2836 400.936 51.1316 405.928 51.1316C410.92 51.1316 415.432 52.2836 419.464 54.5876C423.56 56.8916 426.76 60.0276 429.064 63.9956C431.432 67.8996 432.616 72.2836 432.616 77.1476C432.616 82.0116 431.432 86.3956 429.064 90.2996C426.76 94.2036 423.592 97.3076 419.56 99.6116C415.528 101.916 410.984 103.068 405.928 103.068ZM405.928 91.6436C408.552 91.6436 410.888 91.0036 412.936 89.7236C415.048 88.4436 416.712 86.7156 417.928 84.5396C419.208 82.2996 419.848 79.8356 419.848 77.1476C419.848 74.3956 419.208 71.9316 417.928 69.7556C416.712 67.5796 415.048 65.8516 412.936 64.5716C410.888 63.2276 408.552 62.5556 405.928 62.5556C403.368 62.5556 401.032 63.2276 398.92 64.5716C396.808 65.8516 395.144 67.5796 393.928 69.7556C392.712 71.9316 392.104 74.3956 392.104 77.1476C392.104 79.8356 392.712 82.2996 393.928 84.5396C395.144 86.7156 396.808 88.4436 398.92 89.7236C401.032 91.0036 403.368 91.6436 405.928 91.6436ZM464.317 103.068C457.597 103.068 451.901 101.372 447.229 97.9796C442.557 94.5876 439.197 89.7236 437.149 83.3876L450.013 78.4916C451.421 82.5876 453.277 85.5956 455.581 87.5156C457.949 89.4356 460.861 90.3956 464.317 90.3956C468.477 90.3956 471.805 89.0516 474.301 86.3636C476.861 83.6756 478.141 80.0916 478.141 75.6116V34.9076H492.061V75.9956C492.061 81.4356 490.909 86.2036 488.605 90.2996C486.301 94.3316 483.069 97.4676 478.909 99.7076C474.749 101.948 469.885 103.068 464.317 103.068ZM518.137 102.972C514.553 102.972 511.385 102.332 508.633 101.052C505.881 99.7076 503.737 97.8836 502.201 95.5796C500.665 93.2756 499.897 90.6196 499.897 87.6116C499.897 82.8116 501.689 79.0996 505.273 76.4756C508.921 73.7876 513.913 72.4436 520.249 72.4436C524.601 72.4436 528.697 73.1156 532.537 74.4596V70.8116C532.537 67.9316 531.641 65.7556 529.849 64.2836C528.057 62.8116 525.433 62.0756 521.977 62.0756C519.865 62.0756 517.593 62.4276 515.161 63.1316C512.729 63.7716 509.913 64.7956 506.713 66.2036L501.913 56.5076C505.881 54.7156 509.657 53.3716 513.241 52.4756C516.889 51.5796 520.537 51.1316 524.185 51.1316C530.905 51.1316 536.121 52.7636 539.833 56.0276C543.609 59.2276 545.497 63.7716 545.497 69.6596V102.108H532.537V98.5556C530.489 100.092 528.281 101.212 525.913 101.916C523.545 102.62 520.953 102.972 518.137 102.972ZM512.377 87.3236C512.377 89.2436 513.209 90.7796 514.873 91.9316C516.537 93.0196 518.745 93.5636 521.497 93.5636C523.673 93.5636 525.689 93.3076 527.545 92.7956C529.401 92.2196 531.065 91.3876 532.537 90.2996V83.0036C530.937 82.3636 529.273 81.8836 527.545 81.5636C525.817 81.2436 523.961 81.0836 521.977 81.0836C518.969 81.0836 516.601 81.6596 514.873 82.8116C513.209 83.8996 512.377 85.4036 512.377 87.3236ZM555.451 102.108V52.0916H568.603V55.9316C572.187 52.7316 576.539 51.1316 581.659 51.1316C584.923 51.1316 587.835 51.8036 590.395 53.1476C592.955 54.4276 595.067 56.2516 596.731 58.6196C598.779 56.1876 601.179 54.3316 603.931 53.0516C606.747 51.7716 609.851 51.1316 613.243 51.1316C617.019 51.1316 620.315 51.9956 623.131 53.7236C626.011 55.3876 628.251 57.7236 629.851 60.7316C631.515 63.6756 632.347 67.1316 632.347 71.0996V102.108H619.291V73.0196C619.291 69.7556 618.427 67.1956 616.699 65.3396C614.971 63.4196 612.667 62.4596 609.787 62.4596C607.803 62.4596 605.979 62.8756 604.315 63.7076C602.715 64.5396 601.339 65.7876 600.187 67.4516C600.251 68.0276 600.315 68.6036 600.379 69.1796C600.443 69.7556 600.475 70.3956 600.475 71.0996V102.108H587.323V73.0196C587.323 69.7556 586.459 67.1956 584.731 65.3396C583.067 63.4196 580.795 62.4596 577.915 62.4596C575.931 62.4596 574.139 62.8436 572.539 63.6116C571.003 64.3796 569.691 65.5316 568.603 67.0676V102.108H555.451Z" fill="#1C0C5B"/>
<g clip-path="url(#clip0_2_270)">
<path d="M6.30017 88.2083H21.0222L21.0222 135.645H6.30017V88.2083Z" stroke="#1C0C5B" stroke-width="4"/>
<path d="M61.5646 100.371L66.4569 101.927C66.4576 101.928 66.4584 101.928 66.4592 101.928C75.137 104.712 84.1659 106.214 93.2368 106.435C93.2374 106.435 93.2381 106.435 93.2388 106.435L108.188 106.824L108.913 106.843L109.482 106.392L123.394 95.3608L123.394 95.3606C130.059 90.0741 139.181 89.4087 146.458 93.4753L111.444 125.875L68.411 130.328L22.9992 125.645V96.1268L41.7817 81.8635H94.328C98.3836 81.8635 101.645 85.1247 101.645 89.1643C101.645 93.2045 98.3837 96.4652 94.328 96.4652H62.1709L61.5646 100.371Z" stroke="#1C0C5B" stroke-width="4"/>
<path d="M89.9506 12.4207C80.5896 12.4207 76.0389 20.2938 76.0389 20.2938C76.0389 20.2938 71.532 12.4207 62.1273 12.4207C52.7662 12.4207 47.8692 20.3802 47.8692 27.9945C47.8692 42.6165 76.0389 59.3151 76.0389 59.3151C76.0389 59.3151 104.209 42.6165 104.209 27.9945C104.209 20.3802 99.3116 12.4207 89.9506 12.4207Z" fill="#C996CC"/>
<path d="M33.697 32.3637H25.9399C25.2027 32.3637 24.6395 31.8013 24.6395 31.066C24.6395 30.3306 25.2027 29.7682 25.9399 29.7682H33.697C34.4342 29.7682 34.9975 30.3306 34.9975 31.066C34.9975 31.8013 34.4342 32.3637 33.697 32.3637Z" fill="#1C0C5B"/>
<path d="M38.0744 61.6076C37.728 61.6076 37.4245 61.4776 37.1647 61.2181C36.6444 60.6993 36.6444 59.8775 37.1647 59.4015L42.6251 53.9504C43.1454 53.4316 43.9685 53.4316 44.4452 53.9504C44.9655 54.4699 44.9655 55.2917 44.4452 55.7677L38.9848 61.2181C38.768 61.4776 38.4215 61.6076 38.0744 61.6076Z" fill="#1C0C5B"/>
<path d="M43.5784 8.61385C43.232 8.61385 42.9285 8.4838 42.6687 8.22438L37.1647 2.77325C36.6444 2.25441 36.6444 1.43258 37.1647 0.956647C37.6844 0.43714 38.5082 0.43714 38.9848 0.956647L44.4452 6.40711C44.9655 6.92662 44.9655 7.74845 44.4452 8.22438C44.2283 8.4838 43.8819 8.61385 43.5784 8.61385Z" fill="#1C0C5B"/>
<path d="M126.095 32.3637H118.337C117.601 32.3637 117.037 31.8013 117.037 31.066C117.037 30.3306 117.601 29.7682 118.337 29.7682H126.095C126.832 29.7682 127.395 30.3306 127.395 31.066C127.395 31.8013 126.832 32.3637 126.095 32.3637Z" fill="#1C0C5B"/>
<path d="M108.499 8.61385C108.153 8.61385 107.85 8.4838 107.589 8.22438C107.069 7.70488 107.069 6.88305 107.589 6.40711L113.05 0.956647C113.57 0.43714 114.393 0.43714 114.87 0.956647C115.39 1.47548 115.39 2.29798 114.87 2.77325L109.409 8.22438C109.149 8.4838 108.803 8.61385 108.499 8.61385Z" fill="#1C0C5B"/>
<path d="M113.96 61.6076C113.613 61.6076 113.31 61.4776 113.05 61.2181L107.589 55.7677C107.069 55.2482 107.069 54.4263 107.589 53.9504C108.109 53.4316 108.933 53.4316 109.409 53.9504L114.87 59.4015C115.39 59.9204 115.39 60.7422 114.87 61.2181C114.653 61.4776 114.307 61.6076 113.96 61.6076Z" fill="#1C0C5B"/>
</g>
<defs>
<clipPath id="clip0_2_270">
<rect width="152" height="139" fill="white" transform="translate(0 0.262207)"/>
</clipPath>
</defs>
</svg>
