<svg width="151" height="150" viewBox="0 0 151 150" fill="none" xmlns="http://www.w3.org/2000/svg">
<g clip-path="url(#clip0_58_50)">
<path d="M150.526 74.9288C150.536 83.4613 149.084 91.9326 146.233 99.9757C146.221 100.013 146.208 100.047 146.194 100.084V100.086C144.059 106.07 141.167 111.757 137.589 117.008C136.969 117.923 136.327 118.823 135.664 119.708C134.933 120.687 134.18 121.646 133.403 122.586C132.687 123.453 131.952 124.303 131.197 125.136C130.301 126.13 129.379 127.097 128.429 128.039C126.194 130.263 123.821 132.343 121.325 134.269C120.886 134.608 120.443 134.942 119.996 135.271C118.953 136.039 117.89 136.781 116.807 137.495C114.423 139.07 111.95 140.505 109.401 141.795C108.961 142.019 108.518 142.24 108.072 142.454C106.349 143.285 104.592 144.05 102.799 144.748C102.288 144.949 101.775 145.143 101.256 145.33C101.169 145.364 101.082 145.396 100.993 145.426C94.8452 147.643 88.4328 149.042 81.9201 149.587C81.4676 149.628 81.0146 149.662 80.5609 149.69C80.0799 149.724 79.5983 149.751 79.1161 149.772C78.7349 149.792 78.3554 149.806 77.9724 149.817C77.894 149.82 77.8139 149.824 77.7355 149.824C77.2206 149.84 76.704 149.85 76.1856 149.854C75.9665 149.856 75.7473 149.858 75.5264 149.858C75.4231 149.858 75.3198 149.858 75.2165 149.856C73.7218 149.85 72.2384 149.802 70.7663 149.71C70.7361 149.708 70.7058 149.705 70.6755 149.705C70.1482 149.669 69.6226 149.632 69.0989 149.585C67.2337 149.429 65.3887 149.203 63.5638 148.909C63.1434 148.843 62.7242 148.772 62.3061 148.695C60.4908 148.375 58.6992 147.989 56.9314 147.537C56.4059 147.403 55.8833 147.264 55.3637 147.119C48.1398 145.108 41.2608 142.02 34.9587 137.96C33.8756 137.264 32.8127 136.54 31.7699 135.788C31.6416 135.699 31.5152 135.607 31.3887 135.514C28.8557 133.669 26.4406 131.668 24.1577 129.522C23.0763 128.507 22.0264 127.461 21.008 126.382C7.83002 112.489 0.497785 94.0691 0.526451 74.9288C0.526451 33.5471 34.1054 0 75.5264 0C116.947 0 150.526 33.5471 150.526 74.9288Z" fill="#F2F2F2"/>
<path d="M84.6762 19.102C86.1778 16.6207 87.9573 13.9714 90.744 13.1612C93.9712 12.2229 97.2863 14.0868 100.098 15.9261C108.508 21.4269 116.606 27.3881 124.357 33.7825L124.348 33.8789C118.314 33.4631 112.28 33.0474 106.246 32.6317C101.887 32.3313 97.3774 31.9896 93.5247 29.9292C92.0628 29.1473 90.6377 28.1029 88.981 28.0302C86.9228 27.9397 85.1282 29.3758 83.7178 30.8762C75.3753 39.7515 72.9611 53.3239 63.6016 61.1215C69.5034 46.5804 76.5504 32.5298 84.6762 19.102V19.102Z" fill="white"/>
<path d="M33.3955 94.3805C34.3181 93.2166 34.695 92.9441 35.6051 91.7695C43.0148 82.1952 49.9793 72.2975 56.4986 62.0765C60.9268 55.1347 65.1354 48.0597 69.1245 40.8513C71.0236 37.4244 72.8706 33.9705 74.6656 30.4898C76.0584 27.7909 77.4202 25.0759 78.7509 22.3448C79.1314 21.5647 79.5012 20.781 79.8691 19.9956C80.7361 18.1485 81.587 16.2925 82.5006 14.4705C83.5417 12.3939 84.8089 10.2169 86.7206 8.82172C87.5906 8.16073 88.631 7.76079 89.72 7.66865C91.2763 7.56823 92.7122 8.21022 94.0621 8.91138C103.938 14.0563 113.184 20.5067 121.547 27.8465C129.931 35.2029 137.425 43.5138 143.876 52.6098C144.074 52.8914 144.54 52.6224 144.341 52.339C143.557 51.2308 142.757 50.1345 141.941 49.0502C135.173 40.0517 127.368 31.8809 118.687 24.7065C114.389 21.1538 109.889 17.8528 105.209 14.8202C102.827 13.278 100.4 11.8081 97.9284 10.4106C96.6827 9.7058 95.4316 9.01001 94.159 8.35727C92.9114 7.71707 91.5868 7.14143 90.1616 7.11991C85.3116 7.04459 82.8003 12.532 81.0754 16.2243C80.5333 17.3864 79.9847 18.5448 79.4294 19.6997C77.3311 24.0842 75.152 28.4287 72.8922 32.7332C71.4975 35.3908 70.0722 38.0329 68.6165 40.6595C64.086 48.8386 59.2707 56.8521 54.1705 64.7C47.4142 75.0956 40.7118 84.279 33.015 94.0003C32.8031 94.2693 33.1819 94.653 33.3955 94.3805Z" fill="white"/>
<path d="M60.2386 50.7444L53.0127 48.104L49.4249 46.793C48.2565 46.366 47.0908 45.88 45.8829 45.5742C44.8149 45.3039 43.7298 45.2597 42.6769 45.615C41.7479 45.9586 40.8975 46.4852 40.1764 47.1637C39.4396 47.8415 38.754 48.5729 38.1254 49.3519C37.3442 50.2897 36.5747 51.2374 35.8016 52.1819C32.6112 56.08 29.4416 59.995 26.2929 63.9269C23.1443 67.8588 20.0167 71.8073 16.9101 75.7726C13.796 79.7476 10.7033 83.7391 7.632 87.7473C7.25576 88.2384 6.87984 88.7296 6.50425 89.2211C6.29674 89.4927 5.82883 89.225 6.03928 88.9496C9.13324 84.9011 12.2488 80.8692 15.3859 76.8538C18.5307 72.8288 21.6972 68.8209 24.8854 64.8301C28.0736 60.8394 31.2834 56.8659 34.5147 52.9098C35.3197 51.9242 36.126 50.9397 36.9337 49.9563C37.615 49.1267 38.2886 48.2882 39.0359 47.5161C40.4075 46.0989 42.1213 44.8464 44.1726 44.8124C45.3787 44.7924 46.5459 45.1748 47.6665 45.5798C48.8745 46.0164 50.0797 46.4612 51.2861 46.902L58.5627 49.5609L60.3818 50.2256C60.7046 50.3436 60.5652 50.8637 60.2386 50.7444V50.7444Z" fill="white"/>
<path d="M40.4484 50.7708C41.1597 49.9058 41.9288 49 42.9927 48.6487L43.986 48.6878C36.4246 62.0364 26.2123 73.7004 13.9761 82.9637C22.8002 72.2327 31.6243 61.5018 40.4484 50.7708Z" fill="white"/>
<path d="M88.7524 36.9504C88.7529 38.3144 88.4182 39.6577 87.7778 40.8623C87.1374 42.0669 86.2107 43.0961 85.0792 43.8594C83.9478 44.6227 82.646 45.0968 81.2883 45.2402C79.9306 45.3836 78.5584 45.1918 77.2922 44.6817C76.026 44.1715 74.9045 43.3587 74.0261 42.3145C73.1478 41.2702 72.5394 40.0265 72.2545 38.6926C71.9695 37.3586 72.0167 35.9752 72.3919 34.6637C72.7671 33.3522 73.4588 32.1528 74.4062 31.1707C74.4196 31.1574 74.4329 31.1441 74.4462 31.1308C74.513 31.0607 74.5797 30.9908 74.6498 30.9241C74.6502 30.9241 74.6507 30.924 74.6511 30.9238C74.6515 30.9237 74.6518 30.9234 74.6522 30.9231C74.6525 30.9228 74.6527 30.9224 74.6529 30.922C74.653 30.9216 74.6531 30.9212 74.6531 30.9207C74.7398 30.8407 74.8266 30.7607 74.9167 30.6841C76.1219 29.6284 77.6062 28.9422 79.1917 28.7075C80.7772 28.4728 82.3969 28.6997 83.8567 29.3608C85.3166 30.022 86.5547 31.0895 87.423 32.4355C88.2912 33.7816 88.7528 35.3491 88.7524 36.9504V36.9504Z" fill="#2F2E41"/>
<path d="M83.3023 43.8193C86.0337 41.0905 86.0337 36.6663 83.3023 33.9375C80.5709 31.2088 76.1425 31.2088 73.4112 33.9375C70.6798 36.6663 70.6798 41.0905 73.4112 43.8193C76.1425 46.5481 80.5709 46.5481 83.3023 43.8193Z" fill="#9E616A"/>
<path d="M83.3541 32.1588C82.2705 31.1459 80.9229 30.4589 79.466 30.1768C78.0092 29.8947 76.5022 30.029 75.1183 30.5641C75.0773 30.5801 75.0364 30.5979 74.9954 30.6175C74.9936 30.6175 74.9936 30.6193 74.9918 30.6193C74.8582 30.6745 74.7228 30.7314 74.5928 30.7937L74.5126 30.8329V30.8436C74.4984 30.8542 74.4823 30.8667 74.4663 30.8774C74.4335 30.9079 74.3938 30.9299 74.3505 30.9414C73.0055 30.9592 71.9099 31.4149 71.0975 32.2959C70.0126 33.4705 69.5031 35.3695 69.6599 37.6441L69.6635 37.7135L69.724 37.7527C70.2977 38.1104 70.841 38.4254 71.3648 38.7013C71.6747 38.8668 71.9758 39.0181 72.2751 39.1569C72.3107 39.1729 72.3463 39.1907 72.382 39.2068C75.4105 40.6039 78.1807 40.8566 80.8422 39.9721L80.8921 39.956L82.0233 38.0624C82.1399 38.7093 82.4514 39.3053 82.9162 39.7706C83.381 40.236 83.9769 40.5484 84.6243 40.6662L85.0946 40.7498L85.784 40.8709L85.8125 40.7409C86.4966 37.6619 85.5079 34.2145 83.3541 32.1588Z" fill="#2F2E41"/>
<path d="M100.536 46.8245C98.1559 45.5972 101.217 41.1428 100.602 38.5384C99.9867 35.9341 95.5573 35.0964 95.2751 32.4355C94.9929 29.7745 94.3291 27.0299 92.5715 25.0108C91.4484 23.7205 89.7936 22.768 88.0897 22.9296C87.5132 22.9843 86.9553 23.1625 86.4539 23.452C85.9526 23.7415 85.5196 24.1356 85.1844 24.6074C84.8492 25.0791 84.6198 25.6175 84.5117 26.1859C84.4036 26.7543 84.4193 27.3392 84.5579 27.901C84.0728 27.2142 82.8173 27.3631 82.5066 28.1442C82.2303 28.8386 82.8406 29.6797 83.5589 29.7412C84.4987 30.9007 85.575 32.1314 87.0474 32.3653C87.5217 32.4406 88.0548 32.3854 88.4012 32.0531C88.7476 31.7207 88.7746 31.0563 88.3636 30.8079C90.214 31.5423 91.2989 33.541 91.5734 35.5112C91.848 37.4813 91.4681 39.4747 91.2178 41.448C90.9675 43.4214 90.8597 45.4973 91.6342 47.3298C92.5492 49.4949 94.6559 51.0467 96.9551 51.5444C99.2542 52.042 101.703 51.5556 103.784 50.4598C105.865 49.364 107.6 47.691 109.018 45.8155C106.576 47.5479 103.197 48.1969 100.536 46.8245Z" fill="#2F2E41"/>
<path d="M73.4943 76.1751L68.6633 109.133L95.0343 107.147L87.1411 74.7246L73.4943 76.1751Z" fill="#FFB8B8"/>
<path d="M101.082 145.09C101.058 145.203 101.028 145.316 100.992 145.426C97.9491 146.525 94.8367 147.424 91.6754 148.115C91.0091 145.926 89.7318 141.781 88.6131 138.39C87.6992 135.623 86.8921 133.359 86.6107 133.076C85.8286 132.298 86.6107 131.261 86.6107 131.261L83.2704 120.886L81.7526 116.173L81.2324 126.074L80.4771 140.416L80.4557 140.818C80.4557 140.818 79.4153 143.931 79.9355 144.451C80.4557 144.97 79.4153 147.047 79.4153 147.047L79.116 149.772C78.7348 149.792 78.3553 149.806 77.9723 149.817L77.8423 149.858L77.7354 149.824C77.2205 149.84 76.7039 149.85 76.1855 149.854C75.9664 149.856 75.7473 149.858 75.5264 149.858C75.423 149.858 75.3197 149.858 75.2164 149.856C73.7217 149.85 72.2384 149.802 70.7663 149.71L69.8524 142.279L68.9082 134.601C68.9082 134.601 69.9468 132.528 68.9082 131.49C68.2829 130.866 68.5964 129.958 68.9474 129.335C68.73 128.372 68.4325 126.891 68.0317 124.699C68.0174 124.626 68.005 124.551 67.9907 124.476C67.8642 123.78 67.7508 123.098 67.6505 122.429C67.4723 121.253 67.3334 120.123 67.2265 119.041C66.864 115.536 66.8139 112.006 67.0768 108.492C67.1766 107.242 67.3013 106.328 67.3832 105.799C67.3904 105.749 67.467 105.47 67.5917 105.028C67.7876 104.322 68.1101 103.201 68.4717 101.946C68.6641 101.28 68.8672 100.577 69.0685 99.8778C69.4195 98.6657 69.7686 97.4644 70.0501 96.4926V96.4873C70.2977 95.6348 70.4955 94.962 70.5988 94.6096C70.6487 94.437 70.6754 94.3426 70.6754 94.3426C70.6754 94.3426 70.7306 94.3302 70.8357 94.307C71.1617 94.2323 71.967 94.0525 73.0822 93.8123C74.2455 93.5667 75.7437 93.2552 77.3898 92.9384C78.7989 92.6679 80.3167 92.392 81.8256 92.1446C82.3672 92.0574 82.9088 91.972 83.4432 91.8919C86.7443 91.4007 89.7746 91.1212 91.2104 91.4398C91.3099 91.4609 91.408 91.4877 91.5044 91.5199C91.6018 91.5521 91.6955 91.5945 91.7841 91.6463C91.8286 91.673 92.2597 93.3531 92.8102 95.5422C92.8155 95.5636 92.8209 95.5867 92.8262 95.6081C92.9919 96.2701 93.1683 96.9749 93.3482 97.6958C93.5317 98.4308 93.717 99.1801 93.8987 99.9098C94.4385 102.078 94.9373 104.083 95.1938 105.066C95.2918 105.447 95.3559 105.673 95.3702 105.698C95.9723 106.7 96.464 109.156 96.863 112.237C97.2193 114.986 97.5026 118.234 97.7217 121.39C97.8304 122.951 97.923 124.49 98.0014 125.936C98.2668 130.798 98.3737 134.594 98.3737 134.594C98.3737 134.594 98.771 137.759 99.5602 139.252C99.6573 139.445 99.7815 139.623 99.929 139.78C100.454 140.306 100.515 140.761 100.446 141.085C100.415 141.238 100.352 141.383 100.26 141.509C100.239 141.54 100.216 141.569 100.191 141.596C100.123 141.918 100.135 142.252 100.226 142.568C100.316 142.884 100.483 143.174 100.711 143.411C101.215 143.918 101.174 144.645 101.082 145.09Z" fill="#2F2E41"/>
<path d="M92.4431 65.6046C92.4128 65.3803 92.3808 65.1543 92.3469 64.9265C92.3273 64.7805 92.3042 64.6346 92.2828 64.4904C92.0565 63.0346 92.9989 61.7887 91.7786 60.7814C91.4933 60.5494 91.2607 60.2594 91.0963 59.9306L90.8166 59.3682L90.3018 58.3253L89.1759 56.0578L88.9817 55.668C88.9267 55.5573 88.8636 55.4508 88.7929 55.3495C88.5824 55.0442 88.3083 54.788 87.9894 54.5984L85.1925 52.9325C84.7603 52.6763 84.4123 52.2996 84.1913 51.8486L84.1218 51.7062C83.8136 51.0744 83.2614 49.5634 82.6076 48.9067L82.6058 48.9049C82.4633 48.7421 82.27 48.6324 82.0571 48.5934L79.2727 48.3175C78.8274 48.2723 78.378 48.3435 77.9685 48.5242C77.5591 48.7049 77.2037 48.9888 76.9372 49.348L76.8606 49.6951L76.4134 51.7294L76.3885 51.7347C76.2567 51.765 76.1248 51.7952 75.9948 51.8326C73.107 52.6211 71.9027 62.7071 71.9027 62.7071C71.9027 62.7071 69.8808 66.0406 70.6753 68.1034L72.0934 71.4298C72.1043 71.455 72.1127 71.4812 72.1183 71.5081C72.2465 71.8702 72.2916 72.2564 72.2501 72.6383L72.2519 72.7682L72.2555 73.0547L72.2662 73.7898L72.3 76.2281L72.3428 79.2804L72.3802 81.8807L72.3926 82.573L70.0571 92.7267C70.0189 93.0603 70.0469 93.3982 70.1395 93.721C70.2321 94.0438 70.3876 94.3452 70.5969 94.6079L70.5987 94.6097C70.65 94.6754 70.7047 94.7384 70.7626 94.7984L70.7644 94.8001C70.8196 94.8571 70.8766 94.9087 70.9354 94.9603C71.2166 95.2061 71.5483 95.3875 71.9071 95.4917C72.266 95.596 72.6433 95.6205 73.0126 95.5637L73.3243 95.5156H73.3261L77.8511 94.8375H77.8546L78.3784 94.7592H78.382L83.4467 93.9992H83.4502L84.3178 93.8675C84.3873 93.8586 84.455 93.8497 84.5245 93.8444L89.1616 93.5258C89.2681 93.5186 89.374 93.505 89.4787 93.4849H89.4805C89.8882 93.4043 90.2706 93.2269 90.5952 92.9676C90.9198 92.7083 91.1773 92.3748 91.3457 91.9952C91.4158 91.8431 91.469 91.6837 91.5043 91.52C91.5445 91.3429 91.5666 91.1622 91.5702 90.9807L91.6218 86.6167L91.7982 72.5137C91.8018 72.0431 91.9363 71.5828 92.1866 71.1842C92.8297 70.159 92.7567 67.9628 92.4431 65.6046Z" fill="#C996CC"/>
<path d="M84.6683 103.271C84.603 102.911 84.6176 102.541 84.7108 102.188C84.804 101.834 84.9736 101.506 85.2078 101.225C85.4419 100.944 85.7349 100.718 86.066 100.562C86.3971 100.407 86.7583 100.326 87.1242 100.325L90.0172 91.9225L92.8381 95.58L89.6583 102.998C89.6192 103.612 89.356 104.191 88.9184 104.624C88.4809 105.057 87.8995 105.315 87.2845 105.349C86.6694 105.382 86.0633 105.189 85.5811 104.806C85.0989 104.423 84.7742 103.877 84.6683 103.271H84.6683Z" fill="#9E616A"/>
<path d="M95.7069 85.5933L95.0566 87.2307L94.1481 97.3594C93.8659 97.4302 93.5961 97.5437 93.3482 97.6958C92.8095 98.0286 92.3993 98.5336 92.1843 99.1288C91.9692 99.724 91.9619 100.374 92.1635 100.974L92.4308 101.775L90.4444 101.165L87.179 100.163L83.3292 98.9808L83.9812 96.8682C84.1321 96.3828 84.1627 95.868 84.0702 95.3682C83.9777 94.8684 83.765 94.3986 83.4503 93.9992C83.3724 93.8998 83.2886 93.8053 83.1992 93.7162L83.4432 91.8919L83.5875 90.808L81.8256 92.1447L78.3803 94.7592H78.3785L77.9224 95.1062C77.9224 95.1062 77.8975 95.0137 77.8512 94.8375C77.7639 94.4975 77.6 93.8461 77.3898 92.9384C76.3487 88.4153 75.5819 83.8335 75.0935 79.2181C74.9866 78.1787 74.8939 77.1144 74.8191 76.0341C74.7425 74.9217 74.6855 73.7933 74.6552 72.6578C74.3987 63.4154 75.8203 53.7263 81.7615 48.7714C82.0488 48.7733 82.3341 48.819 82.6077 48.9066C85.0127 49.6452 87.6511 53.2546 89.4753 55.8371C89.9064 56.4476 90.2912 56.9993 90.6172 57.4425L91.4064 58.5157C92.4839 59.982 93.2297 61.6648 93.5923 63.4474C93.6689 63.8248 93.7289 64.2068 93.7722 64.5936L94.6344 72.5172V74.5586L95.7069 85.5933Z" fill="#C996CC"/>
<path d="M4.87134 99.7972C6.41895 101.629 8.09286 103.351 9.88084 104.95L141.279 105.128C143.067 103.529 144.741 101.807 146.288 99.9752L4.87134 99.7972Z" fill="#CCCCCC"/>
<path d="M76.1856 149.854C75.9665 149.856 75.7473 149.858 75.5264 149.858C75.4231 149.858 75.3198 149.858 75.2165 149.856C73.7218 149.851 72.2384 149.802 70.7663 149.71L70.8019 150L70.6755 149.705L67.8518 143.137L69.8524 142.279L73.5223 140.704L74.6357 144.529L75.701 148.192L76.0181 149.277L76.1856 149.854Z" fill="#FFB6B6"/>
<path d="M63.1042 142.229L62.3061 148.695C60.4908 148.375 58.6992 147.989 56.9314 147.537V142.231L63.1042 142.229Z" fill="#FFB6B6"/>
<path d="M34.9586 130.312V137.96C33.8755 137.264 32.8125 136.54 31.7698 135.788V130.312H34.9586Z" fill="#CACACA"/>
<path d="M47.3133 129.038V132.859C47.3131 133.563 47.0332 134.238 46.5352 134.736C46.0372 135.234 45.3617 135.514 44.6571 135.514H31.3887C28.8557 133.669 26.4407 131.668 24.1577 129.522C23.0763 128.507 22.0265 127.461 21.0081 126.382H44.6571C45.3616 126.383 46.0369 126.663 46.5349 127.161C47.0329 127.659 47.3128 128.334 47.3133 129.038V129.038Z" fill="#3F3D56"/>
<path d="M78.4089 149.678L77.9724 149.817L77.8424 149.858L77.7355 149.824C77.2206 149.84 76.704 149.85 76.1856 149.854C75.9665 149.856 75.7473 149.858 75.5264 149.858C75.4231 149.858 75.3198 149.858 75.2165 149.856C73.7218 149.851 72.2384 149.802 70.7663 149.71L70.802 150L70.6755 149.705C70.1482 149.669 69.6226 149.632 69.0989 149.585L64.9534 142.65L56.4219 128.377L55.4332 126.724C55.4332 126.724 52.0609 127.721 47.2883 128.676C43.6915 129.399 39.3002 130.095 34.9587 130.323C33.8881 130.38 32.821 130.408 31.7699 130.399C29.0531 130.381 26.4433 130.127 24.1577 129.522C23.0763 128.507 22.0264 127.461 21.008 126.382C19.2719 124.548 17.6297 122.628 16.0876 120.628C16.0668 119.894 16.1043 119.16 16.1998 118.432C16.2158 118.311 16.2319 118.188 16.2515 118.064L16.7378 109.813L20.3506 109.336L25.8483 108.609L31.8037 107.823L32.4593 112.952C32.4593 112.952 37.0965 112.717 42.9718 112.795C52.4083 112.924 65.0353 113.863 66.7456 117.896C66.9059 118.275 67.0662 118.658 67.2265 119.041C70.5472 126.987 73.5971 135.454 75.669 141.47C76.0644 142.616 76.4225 143.671 76.7414 144.618C77.7943 147.745 78.4089 149.678 78.4089 149.678Z" fill="#2F2E41"/>
<path d="M68.3079 122.444C68.2206 123.198 68.1286 123.95 68.0318 124.699C67.1767 131.321 65.9992 137.647 64.9534 142.65C64.4421 145.091 63.9611 147.216 63.5639 148.909C63.1434 148.843 62.7242 148.772 62.3062 148.695C60.4908 148.375 58.6993 147.989 56.9315 147.537C56.4059 147.403 55.8834 147.264 55.3638 147.119L56.422 128.377L56.7711 122.178L67.6506 122.429L68.3079 122.444Z" fill="#2F2E41"/>
<path d="M85.801 93.4561C86.2547 93.203 86.7584 93.0523 87.2766 93.0147C87.7949 92.9771 88.3151 93.0535 88.8006 93.2384C89.2862 93.4234 89.7252 93.7125 90.0868 94.0853C90.4484 94.4581 90.7238 94.9056 90.8935 95.3963L103.525 95.4112L99.9046 100.881L88.4649 100.029C87.621 100.259 86.7218 100.172 85.9378 99.784C85.1537 99.3962 84.5393 98.7346 84.211 97.9244C83.8826 97.1143 83.8631 96.212 84.1562 95.3885C84.4492 94.5649 85.0345 93.8774 85.801 93.4562L85.801 93.4561Z" fill="#FFB6B6"/>
<path d="M92.6875 100.854L115.436 103.112L115.496 103.035C115.611 102.888 126.999 88.3257 128.912 84.8591C130.089 82.7763 130.518 80.354 130.127 77.9942L130.114 77.9365L130.068 77.8983C129.141 77.1215 127.976 76.6838 126.765 76.6573C125.555 76.6308 124.372 77.0171 123.411 77.7524C118.791 81.3276 115.065 85.9267 112.529 91.1869L111.089 94.1806L94.395 94.8962L92.6875 100.854Z" fill="#C996CC"/>
<path d="M83.9135 141.891L80.5607 149.69C80.0797 149.724 79.5981 149.751 79.116 149.772C78.7347 149.792 78.3553 149.806 77.9722 149.817L77.8422 149.858L77.7353 149.824C77.2205 149.84 76.7038 149.85 76.1854 149.854C75.9663 149.856 75.7472 149.858 75.5263 149.858C75.423 149.858 75.3196 149.858 75.2163 149.856L75.439 149.094L75.7009 148.192L76.7412 144.618L78.243 139.458L80.477 140.416L83.9135 141.891Z" fill="#FFB6B6"/>
<path d="M108.072 142.454C106.349 143.285 104.592 144.05 102.799 144.748L101.046 141.802L106.697 139.323L108.072 142.454Z" fill="#FFB6B6"/>
<path d="M119.995 129.066V135.27C118.953 136.039 117.89 136.781 116.807 137.495V129.066H119.995Z" fill="#CACACA"/>
<path d="M131.197 125.136C130.301 126.13 129.379 127.097 128.429 128.039C126.194 130.263 123.821 132.343 121.324 134.269H107.108C106.731 134.269 106.358 134.188 106.014 134.032C105.67 133.877 105.364 133.65 105.115 133.366L105.113 133.361C104.817 133.027 104.611 132.622 104.515 132.186L104.513 132.183C104.473 131.995 104.452 131.805 104.452 131.613V127.792C104.453 127.088 104.733 126.413 105.231 125.915C105.729 125.418 106.404 125.137 107.108 125.136H131.197Z" fill="#3F3D56"/>
<path d="M137.055 110.222L135.514 116.818C135.664 117.773 135.715 118.742 135.663 119.708C134.933 120.687 134.179 121.646 133.403 122.586C132.687 123.453 131.951 124.303 131.197 125.136C130.301 126.13 129.378 127.097 128.429 128.039C125.956 128.815 123.042 129.132 119.995 129.153C118.944 129.162 117.877 129.134 116.807 129.077C112.465 128.849 108.074 128.153 104.477 127.431C103.526 127.242 102.631 127.05 101.808 126.863C100.25 126.512 98.9455 126.185 98.0013 125.936C96.9378 125.658 96.3321 125.478 96.3321 125.478L92.2864 132.247L88.613 138.39L81.92 149.587C81.4675 149.628 81.0144 149.662 80.5607 149.69C80.0797 149.724 79.5981 149.751 79.1159 149.772C78.7347 149.792 78.3552 149.806 77.9722 149.817L77.8422 149.858L77.7353 149.824L76.018 149.277L75.439 149.094L73.3564 148.432C73.3564 148.432 73.8214 146.969 74.6355 144.529C74.9348 143.634 75.2804 142.605 75.6688 141.469C77.0708 137.365 79.0144 131.853 81.2323 126.074C81.8897 124.359 82.5702 122.618 83.2703 120.886C83.844 119.464 84.4283 118.048 85.0197 116.65C86.0476 114.228 91.0144 112.922 96.863 112.237C97.1605 112.203 97.4598 112.169 97.7608 112.137C100.741 111.824 103.903 111.662 106.861 111.587C108.341 111.55 109.77 111.535 111.099 111.534C111.528 111.534 111.946 111.535 112.351 111.537H112.353C113.448 111.542 114.457 111.558 115.344 111.576C115.517 111.58 115.684 111.585 115.848 111.589H115.85C115.96 111.591 116.069 111.594 116.176 111.596C118.116 111.646 119.306 111.706 119.306 111.706L119.767 108.09L119.862 107.36L119.951 106.666V106.664L119.962 106.577L120.035 106.575L121.317 106.55L132.099 106.34L137.988 106.224L137.055 110.222Z" fill="#2F2E41"/>
<path d="M109.401 141.795C108.961 142.019 108.517 142.24 108.072 142.454C106.349 143.285 104.592 144.05 102.799 144.748C102.288 144.949 101.775 145.143 101.256 145.33C101.199 145.25 101.14 145.17 101.082 145.09C98.6089 141.699 95.4664 137.225 92.2864 132.247C90.9557 130.164 89.6178 127.993 88.3191 125.775L97.7217 121.39L98.7763 120.899L101.808 126.863L104.513 132.183L105.115 133.366L109.401 141.795Z" fill="#2F2E41"/>
<path d="M123.049 67.6408C127.833 67.6408 131.712 63.7662 131.712 58.9865C131.712 54.2069 127.833 50.3323 123.049 50.3323C118.265 50.3323 114.387 54.2069 114.387 58.9865C114.387 63.7662 118.265 67.6408 123.049 67.6408Z" fill="#FFB6B6"/>
<path d="M122.763 67.2651C124.788 68.2359 127.281 67.9071 129.214 66.7648C131.148 65.6226 132.571 63.7598 133.565 61.7475C134.294 60.2737 134.823 58.5859 134.401 56.9972C133.979 55.4085 132.297 54.0774 130.721 54.5479C131.8 53.6792 131.675 51.8876 130.802 50.8112C129.929 49.7348 128.553 49.2172 127.222 48.8271C125.291 48.2609 123.263 47.8613 121.271 48.1509C119.28 48.4405 117.32 49.5175 116.383 51.2966C115.732 51.464 115.045 51.4112 114.428 51.1464C113.81 50.8816 113.299 50.4198 112.972 49.8333C112.755 50.3971 112.73 51.0166 112.901 51.5961C113.072 52.1755 113.429 52.6825 113.918 53.0386L111.221 51.5768C110.533 52.5289 111.158 53.9809 112.202 54.5202C113.246 55.0595 114.507 54.9157 115.646 54.6275C116.785 54.3394 115.441 56.7426 116.616 56.7658C117.791 56.7889 119.062 57.4032 119.398 58.528C119.574 59.1171 119.472 59.7497 119.524 60.3624C119.576 60.975 119.869 61.6547 120.464 61.8144C120.839 61.9152 121.25 61.7816 121.622 61.8935C122.084 62.0324 122.365 62.5256 122.406 63.0055C122.447 63.4854 122.296 63.9586 122.147 64.4167C121.559 66.227 123.446 65.2123 122.858 67.0226L122.763 67.2651Z" fill="#2F2E41"/>
<path d="M139.759 92.8281C139.688 85.6805 139.364 80.8092 138.797 78.3478C137.276 71.7305 130.248 70.5239 129.147 70.3744C129.03 70.0625 128.849 69.778 128.617 69.5387C128.385 69.2994 128.107 69.1103 127.798 68.9833C127.49 68.8562 127.159 68.7939 126.825 68.8002C126.492 68.8065 126.163 68.8813 125.86 69.0199L120.867 71.3052C119.854 71.7702 118.947 72.4384 118.203 73.2681C117.46 74.0978 116.894 75.0714 116.543 76.1284L115.802 78.3887L115.43 93.5578L116.659 99.9383L116.661 99.9419L117.489 104.24L116.919 105.094L113.664 109.971L113.609 110.056L113.607 110.058L113.465 110.27C113.662 110.378 113.858 110.485 114.051 110.592C114.55 110.866 115.036 111.135 115.51 111.398C115.624 111.462 115.736 111.525 115.848 111.589H115.85C115.921 111.628 115.993 111.667 116.062 111.706C117.84 112.699 119.458 113.619 120.916 114.467C121.12 114.584 121.321 114.702 121.519 114.817C128.253 118.752 131.666 121.162 133.403 122.586C134.18 121.646 134.933 120.687 135.664 119.708C136.326 118.824 136.968 117.924 137.589 117.008C137.698 116.293 137.771 115.577 137.842 114.876C137.928 114.032 138.017 113.159 138.167 112.299C138.232 111.918 137.979 111.557 137.735 111.208C137.509 110.882 137.295 110.576 137.34 110.288C137.386 109.99 137.714 109.667 138.033 109.352C138.38 109.006 138.74 108.65 138.792 108.275C138.934 107.228 139.061 106.178 139.171 105.125C139.353 103.411 139.493 101.691 139.59 99.9668C139.727 97.5854 139.783 95.2058 139.759 92.8281Z" fill="#C996CC"/>
<path d="M106.785 118.058C106.931 117.56 107.186 117.1 107.53 116.711C107.874 116.322 108.299 116.013 108.775 115.806C109.252 115.599 109.768 115.498 110.287 115.512C110.807 115.525 111.317 115.653 111.782 115.885L120.816 107.066L122.061 113.504L113.291 120.892C112.849 121.646 112.146 122.213 111.314 122.484C110.482 122.755 109.58 122.711 108.778 122.362C107.976 122.013 107.33 121.382 106.963 120.589C106.595 119.795 106.532 118.895 106.785 118.058L106.785 118.058Z" fill="#FFB6B6"/>
<path d="M116.885 118.53L134.719 104.24L134.709 104.144C134.688 103.959 132.625 85.5945 131.564 81.7804C130.946 79.4695 129.556 77.4392 127.624 76.0266L127.574 75.9945L127.515 75.9988C126.308 76.0924 125.169 76.5941 124.286 77.4211C123.403 78.2481 122.828 79.3511 122.657 80.5482C121.859 86.3323 122.419 92.2224 124.29 97.7536L125.359 100.899L113.933 113.08L116.885 118.53Z" fill="#C996CC"/>
<path d="M25.5586 67.4855C29.8275 67.4855 33.2882 64.0282 33.2882 59.7633C33.2882 55.4985 29.8275 52.0411 25.5586 52.0411C21.2897 52.0411 17.8291 55.4985 17.8291 59.7633C17.8291 64.0282 21.2897 67.4855 25.5586 67.4855Z" fill="#A0616A"/>
<path d="M15.1739 118.581L15.1317 118.521C12.8801 115.372 16.2665 107.804 16.7773 106.707C16.1708 106.511 15.6512 106.11 15.3072 105.574C14.9631 105.037 14.8158 104.398 14.8903 103.766L15.1104 101.896L15.3399 100.062L13.6958 98.4192L13.6911 98.3783L12.7449 90.1069L11.3692 84.6131C10.8508 82.5362 10.895 80.359 11.4972 78.3048C12.0994 76.2506 13.2379 74.3936 14.7958 72.9243L17.9759 72.4198L21.8406 68.6996H28.0729L30.2099 70.7393C34.4112 74.1798 35.4085 72.6852 40.146 79.1619L36.7539 88.0901L38.6499 101.258L38.6511 103.642L39.6386 104.738C39.9943 105.133 40.2528 105.605 40.3934 106.118C40.5341 106.63 40.553 107.168 40.4487 107.689L40.3188 108.338C40.8207 108.553 41.2637 108.885 41.6107 109.306C41.9577 109.727 42.1985 110.226 42.3129 110.759L42.6597 112.376C42.9565 112.767 44.915 115.376 44.915 116.089C44.915 116.196 44.8359 116.3 44.6661 116.415C43.3314 117.318 35.9539 119.159 32.6888 117.853C29.2107 116.464 15.385 118.548 15.2457 118.569L15.1739 118.581Z" fill="#3F3D56"/>
<path d="M11.2471 87.2555L17.674 85.9985C20.0508 89.5447 21.3268 99.2414 21.3268 99.2414L28.4325 113.964C28.8692 114.229 29.2279 114.605 29.4718 115.053C29.7158 115.502 29.8365 116.007 29.8214 116.517C29.8064 117.028 29.6563 117.525 29.3863 117.958C29.1164 118.392 28.7362 118.746 28.2846 118.985C27.833 119.224 27.3261 119.339 26.8155 119.319C26.3049 119.298 25.8088 119.143 25.3778 118.869C24.9468 118.594 24.5962 118.211 24.3619 117.757C24.1275 117.304 24.0177 116.796 24.0436 116.286L14.7759 98.8429L11.2471 87.2555Z" fill="#A0616A"/>
<path d="M11.211 88.7788L11.0283 79.2356L14.0528 75.1932C14.6494 74.4018 15.4558 73.7929 16.3807 73.4352C17.3055 73.0776 18.3121 72.9855 19.2866 73.1694V73.1694C20.6059 73.4276 21.7779 74.1767 22.5656 75.2651C23.3532 76.3536 23.6978 77.7002 23.5296 79.0328C23.0163 83.0737 21.8508 88.1307 19.214 89.2748L19.1873 89.2864L21.9201 98.8348L11.7856 100.249L11.211 88.7788Z" fill="#3F3D56"/>
<path d="M49.3813 87.9356C49.3813 87.9356 41.6685 81.9127 37.4854 81.0475L33.783 86.4443L43.796 92.5748L63.2909 98.2062C63.6323 98.5849 64.0679 98.8667 64.5536 99.0229C65.0392 99.1791 65.5576 99.2042 66.056 99.0955C66.5545 98.9869 67.0153 98.7484 67.3917 98.4043C67.7681 98.0602 68.0466 97.6227 68.199 97.1363C68.3515 96.6499 68.3724 96.1319 68.2596 95.6348C68.1469 95.1377 67.9044 94.6792 67.557 94.306C67.2096 93.9327 66.7695 93.658 66.2814 93.5096C65.7933 93.3612 65.2746 93.3445 64.7779 93.4612L49.3813 87.9356Z" fill="#A0616A"/>
<path d="M35.812 89.1459L27.7741 83.9863L26.0957 79.2261C25.7696 78.2904 25.712 77.2822 25.9293 76.3155C26.1466 75.3488 26.6303 74.4621 27.3256 73.7556C28.2745 72.8042 29.5497 72.2483 30.8932 72.2003C32.2368 72.1523 33.5484 72.6157 34.563 73.497C37.6378 76.1721 41.6003 77.0686 41.0842 79.894L42.5646 80.11L50.1347 85.8537L45.6705 95.0527L35.812 89.1459Z" fill="#3F3D56"/>
<path d="M16.7911 54.6893C17.6591 53.3479 19.2878 52.4538 20.8667 52.705C21.0137 51.6983 21.4343 50.7512 22.0828 49.9668C22.7312 49.1823 23.5826 48.5907 24.5444 48.2562C25.5061 47.9218 26.5412 47.8573 27.5371 48.0699C28.5329 48.2825 29.4513 48.7639 30.1922 49.4618C30.6571 49.0923 31.3329 49.0729 31.8847 49.2926C32.4281 49.5395 32.9009 49.9186 33.2597 50.3953C34.1657 51.5241 34.7484 52.8772 34.9458 54.3106C35.1431 55.744 34.9477 57.204 34.3804 58.5353C34.5734 57.8344 33.8703 57.1751 33.16 57.0178C32.4497 56.8606 31.7046 57.0094 30.9843 56.9069C30.0611 56.7757 29.2312 56.2406 28.3065 56.1202C27.5294 56.019 26.7479 56.2181 25.9901 56.4176C25.2323 56.6171 24.4528 56.8206 23.6746 56.7283C22.8963 56.6359 21.8938 59.5825 21.9073 61.6578C21.9098 62.0511 21.8287 62.5561 21.444 62.6395C20.9702 62.7423 20.6957 62.089 20.2447 61.911C19.843 61.7524 19.3613 62.0463 19.2214 62.4547C19.1646 62.6635 19.1585 62.8829 19.2037 63.0945C19.2489 63.3062 19.344 63.504 19.4811 63.6715C19.7583 64.0036 20.0874 64.2888 20.4556 64.516L20.2699 64.6704C19.9609 65.0781 19.3201 65.0958 18.8748 64.8435C18.4296 64.5912 18.137 64.1424 17.8732 63.7041C17.0494 62.3352 16.3268 60.8767 16.036 59.306C15.7453 57.7353 15.9232 56.0308 16.7911 54.6893Z" fill="#2F2E41"/>
<path opacity="0.2" d="M84.6715 67.6668C85.4555 70.9302 85.8173 74.2806 85.7478 77.636C85.6811 80.9918 85.1898 84.3256 84.2858 87.5583C83.7756 89.3838 83.1322 91.1694 82.3605 92.9009C82.2216 93.2121 82.682 93.484 82.822 93.1704C84.2151 90.0505 85.2002 86.7643 85.753 83.3929C86.308 80.0208 86.4324 76.5919 86.1234 73.1885C85.9485 71.2805 85.6355 69.3877 85.1868 67.5248C85.1063 67.1909 84.5908 67.3323 84.6715 67.6668H84.6715Z" fill="black"/>
<path opacity="0.2" d="M134.569 90.5023L130.102 101.398C129.383 103.151 128.685 104.915 127.937 106.657C127.263 108.225 126.495 109.799 125.361 111.092C124.216 112.396 122.677 113.455 120.918 113.662C120.58 113.702 120.576 114.236 120.918 114.196C122.524 114.007 123.965 113.209 125.128 112.106C126.385 110.912 127.271 109.392 127.995 107.832C128.801 106.093 129.487 104.295 130.214 102.523L132.498 96.9521L135.085 90.6442C135.215 90.3265 134.698 90.1881 134.569 90.5023V90.5023Z" fill="black"/>
<path d="M81.6119 100.392C81.6904 100.62 81.8393 100.818 82.0372 100.956C82.2351 101.095 82.4718 101.167 82.7134 101.163L87.4329 101.041C87.6762 101.037 87.9115 100.953 88.1036 100.804C88.2956 100.654 88.4341 100.447 88.4983 100.212L89.1662 93.0778C89.4031 93.185 89.6611 93.238 89.9212 93.2328C90.1471 93.2271 90.3697 93.177 90.5763 93.0854C90.7829 92.9938 90.9694 92.8624 91.1252 92.6988C91.2809 92.5352 91.4029 92.3425 91.4841 92.1318C91.5654 91.921 91.6043 91.6964 91.5986 91.4707C91.5929 91.2449 91.5428 91.0225 91.4511 90.8161C91.3594 90.6097 91.2279 90.4234 91.0641 90.2678C90.9003 90.1122 90.7074 89.9903 90.4965 89.9092C90.2856 89.828 90.0607 89.7892 89.8348 89.7948C89.7308 89.7945 89.6271 89.8053 89.5255 89.827C89.4149 89.7075 89.2806 89.6124 89.131 89.548C88.9815 89.4835 88.8201 89.4511 88.6572 89.4527L81.3976 89.64C81.3374 89.6422 81.2775 89.6496 81.2185 89.6622C81.0593 89.6918 80.9083 89.7552 80.7757 89.8481C80.6431 89.9409 80.5319 90.061 80.4496 90.2004C80.3674 90.3398 80.316 90.4951 80.2988 90.656C80.2817 90.8169 80.2993 90.9796 80.3504 91.1331L81.6119 100.392ZM89.3031 92.5934L89.7784 90.8932C89.8324 90.6968 89.8337 90.4896 89.782 90.2926C89.8051 90.2925 89.8254 90.2816 89.8485 90.2815C90.1743 90.2748 90.4895 90.3974 90.725 90.6226C90.9605 90.8477 91.097 91.1569 91.1047 91.4824C91.1123 91.8079 90.9904 92.1232 90.7657 92.3591C90.5411 92.5949 90.2319 92.7322 89.9061 92.7407C89.6955 92.7473 89.487 92.6963 89.3031 92.5934V92.5934Z" fill="#2F2E41"/>
<path d="M81.2185 89.6622C81.3732 90.5457 83.1121 91.1668 85.2029 91.0588C87.1256 90.9703 88.6977 90.2958 88.9857 89.4964C88.8792 89.4649 88.7683 89.4502 88.6572 89.4527L81.3976 89.6399C81.3374 89.6422 81.2774 89.6496 81.2185 89.6622V89.6622Z" fill="#3F3D56"/>
<path d="M65.8925 90.777C65.9436 90.6235 65.9612 90.4608 65.9441 90.2999C65.9269 90.1391 65.8755 89.9837 65.7933 89.8443C65.711 89.705 65.5998 89.5848 65.4672 89.492C65.3346 89.3991 65.1836 89.3358 65.0244 89.3061C64.9654 89.2936 64.9055 89.2861 64.8453 89.2839L57.5857 89.0966C57.4229 89.095 57.2615 89.1274 57.1119 89.1919C56.9624 89.2564 56.828 89.3514 56.7174 89.4709C56.6158 89.4492 56.5121 89.4384 56.4081 89.4388C55.9518 89.4273 55.5096 89.5975 55.1788 89.9117C54.8481 90.226 54.6558 90.6587 54.6443 91.1146C54.6329 91.5705 54.8032 92.0123 55.1178 92.3427C55.4323 92.6732 55.8654 92.8652 56.3217 92.8767C56.5818 92.8819 56.8398 92.829 57.0767 92.7217L57.7446 99.8564C57.8088 100.091 57.9473 100.298 58.1394 100.448C58.3314 100.597 58.5667 100.68 58.81 100.685L63.5295 100.807C63.7711 100.811 64.0078 100.739 64.2057 100.6C64.4036 100.462 64.5525 100.264 64.631 100.036L65.8925 90.777ZM56.3368 92.3846C56.011 92.3761 55.7019 92.2389 55.4772 92.003C55.2525 91.7671 55.1306 91.4519 55.1382 91.1263C55.1459 90.8008 55.2824 90.4916 55.5179 90.2665C55.7534 90.0414 56.0686 89.9187 56.3944 89.9255C56.4175 89.9255 56.4378 89.9364 56.4609 89.9365C56.4092 90.1335 56.4105 90.3407 56.4645 90.5371L56.9398 92.2373C56.7559 92.3403 56.5475 92.3912 56.3368 92.3846V92.3846Z" fill="#2F2E41"/>
<path d="M65.0243 89.3062C64.8696 90.1897 63.1308 90.8108 61.0399 90.7028C59.1172 90.6143 57.5451 89.9399 57.2571 89.1405C57.3637 89.109 57.4745 89.0942 57.5856 89.0967L64.8452 89.284C64.9055 89.2862 64.9654 89.2936 65.0243 89.3062V89.3062Z" fill="#3F3D56"/>
<path d="M58.1442 73.8078C58.5079 73.5424 58.9255 73.3598 59.3674 73.273C59.8094 73.1862 60.265 73.1973 60.7022 73.3054C61.1395 73.4136 61.5476 73.6162 61.898 73.899C62.2483 74.1818 62.5323 74.5379 62.73 74.9423L73.5995 73.6286L71.0604 78.7153L61.1278 79.1829C60.4259 79.4697 59.6431 79.4893 58.9277 79.2379C58.2124 78.9866 57.6141 78.4819 57.2463 77.8193C56.8786 77.1568 56.7668 76.3825 56.9323 75.6431C57.0978 74.9038 57.529 74.2508 58.1443 73.8078L58.1442 73.8078Z" fill="#9E616A"/>
<path d="M93.5922 63.4474C93.2715 64.0756 92.8814 64.8071 92.4432 65.6045C90.904 68.4148 88.7894 72.042 87.1611 74.8024C85.7698 77.1571 84.7312 78.8834 84.7027 78.9315L84.6581 79.0027L75.0934 79.218L73.0411 79.2643L72.3428 79.2803L64.8481 79.4494L64.9194 79.0045L65.6195 74.5942L65.6908 74.1439L72.2555 73.0547L74.6552 72.6578L79.9782 71.775L80.9028 69.0484C82.5312 64.256 85.2525 59.9075 88.8517 56.3461C88.9568 56.2446 89.0637 56.1485 89.1759 56.0577C89.2739 55.9794 89.3737 55.9047 89.4752 55.837C89.9063 56.4475 90.2911 56.9992 90.6172 57.4424L91.4063 58.5156C92.4839 59.982 93.2297 61.6647 93.5922 63.4474V63.4474Z" fill="#C996CC"/>
<path d="M53.8209 79.7463C53.8994 79.9746 54.0483 80.1722 54.2462 80.3107C54.4441 80.4492 54.6808 80.5214 54.9224 80.5171L59.6419 80.3958C59.8852 80.391 60.1205 80.3078 60.3125 80.1584C60.5046 80.009 60.6431 79.8015 60.7073 79.5669L61.3752 72.4323C61.6121 72.5395 61.8701 72.5925 62.1302 72.5873C62.5865 72.5758 63.0196 72.3837 63.3342 72.0533C63.6487 71.7228 63.819 71.2811 63.8076 70.8252C63.7961 70.3693 63.6038 69.9366 63.2731 69.6223C62.9423 69.308 62.5001 69.1379 62.0438 69.1493C61.9398 69.149 61.8361 69.1598 61.7345 69.1815C61.6239 69.062 61.4895 68.9669 61.34 68.9025C61.1905 68.838 61.029 68.8056 60.8662 68.8072L53.6066 68.9945C53.5464 68.9967 53.4864 69.0041 53.4275 69.0167C53.2683 69.0463 53.1173 69.1097 52.9847 69.2025C52.852 69.2954 52.7409 69.4155 52.6586 69.5549C52.5764 69.6943 52.5249 69.8496 52.5078 70.0105C52.4907 70.1714 52.5083 70.3341 52.5594 70.4876L53.8209 79.7463ZM61.5121 71.9479L61.9874 70.2477C62.0414 70.0513 62.0427 69.8441 61.991 69.6471C62.0141 69.647 62.0344 69.6361 62.0575 69.636C62.3833 69.6293 62.6985 69.7519 62.934 69.9771C63.1695 70.2022 63.306 70.5114 63.3137 70.8369C63.3213 71.1624 63.1994 71.4777 62.9747 71.7136C62.75 71.9494 62.4409 72.0867 62.1151 72.0952C61.9044 72.1018 61.696 72.0508 61.5121 71.9479Z" fill="#CCCCCC"/>
<path d="M53.4275 69.0167C53.5822 69.9002 55.321 70.5213 57.4119 70.4133C59.3346 70.3248 60.9067 69.6503 61.1947 68.8509C61.0881 68.8194 60.9773 68.8047 60.8662 68.8072L53.6066 68.9944C53.5463 68.9967 53.4864 69.0041 53.4275 69.0167V69.0167Z" fill="#3F3D56"/>
</g>
<defs>
<clipPath id="clip0_58_50">
<rect width="150" height="150" fill="white" transform="translate(0.526367)"/>
</clipPath>
</defs>
</svg>
