<svg width="307" height="108" viewBox="0 0 307 108" fill="none" xmlns="http://www.w3.org/2000/svg">
<path d="M0.224609 13.358C0.224609 7.83512 4.70332 3.35793 10.2262 3.35839C110.851 3.36693 177.29 3.50139 272.013 3.50139C282.223 10.7781 293.556 27.6919 303 34.4228V97.7069C303 103.23 298.523 107.707 293 107.707H10.2246C4.70175 107.707 0.224609 103.23 0.224609 97.7068V13.358Z" fill="#916BBF"/>
<g filter="url(#filter0_d_58_226)">
<path d="M272.698 3.35797L303 34.8596C299.346 33.4622 290.772 33.4823 283.674 33.7949C277.78 34.0545 272.698 29.4306 272.698 23.5307L272.698 3.35797Z" fill="#C996CC"/>
</g>
<path d="M27.3256 37.0953L32.5276 24.4953H34.7596L39.9076 37.0953H37.8556L36.3976 33.4053H30.7636L29.2876 37.0953H27.3256ZM31.3756 31.8393H35.7856L33.5896 26.2953L31.3756 31.8393ZM40.9907 37.0953V24.4953L42.7907 24.1533V37.0953H40.9907ZM44.9106 37.0953V24.4953L46.7106 24.1533V37.0953H44.9106ZM55.7423 37.2753C54.9503 37.2753 54.2063 37.1613 53.5103 36.9333C52.8263 36.6933 52.2323 36.3573 51.7283 35.9253L52.7183 34.7373C53.1863 35.1093 53.6663 35.3973 54.1583 35.6013C54.6623 35.7933 55.1723 35.8893 55.6883 35.8893C56.3363 35.8893 56.8643 35.7633 57.2723 35.5113C57.6803 35.2593 57.8843 34.9293 57.8843 34.5213C57.8843 34.1853 57.7643 33.9213 57.5243 33.7293C57.2843 33.5373 56.9123 33.4053 56.4083 33.3333L54.7523 33.0993C53.8403 32.9673 53.1563 32.6853 52.7003 32.2533C52.2443 31.8213 52.0163 31.2453 52.0163 30.5253C52.0163 29.9733 52.1663 29.4933 52.4663 29.0853C52.7663 28.6653 53.1863 28.3413 53.7263 28.1133C54.2663 27.8733 54.8963 27.7533 55.6163 27.7533C56.2763 27.7533 56.9123 27.8493 57.5243 28.0413C58.1363 28.2333 58.7243 28.5333 59.2883 28.9413L58.3703 30.1293C57.8663 29.7933 57.3743 29.5473 56.8943 29.3913C56.4263 29.2353 55.9523 29.1573 55.4723 29.1573C54.9203 29.1573 54.4763 29.2773 54.1403 29.5173C53.8043 29.7453 53.6363 30.0453 53.6363 30.4173C53.6363 30.7533 53.7503 31.0173 53.9783 31.2093C54.2183 31.3893 54.6083 31.5153 55.1483 31.5873L56.8043 31.8213C57.7163 31.9533 58.4063 32.2353 58.8743 32.6673C59.3423 33.0873 59.5763 33.6573 59.5763 34.3773C59.5763 34.9293 59.4083 35.4273 59.0723 35.8713C58.7363 36.3033 58.2803 36.6453 57.7043 36.8973C57.1283 37.1493 56.4743 37.2753 55.7423 37.2753ZM60.9595 37.0953V24.4953L62.7595 24.1533V31.9473L67.2055 27.9333H69.3115L64.5775 32.2173L69.5635 37.0953H67.1875L62.7595 32.7933V37.0953H60.9595ZM70.3989 37.0953V27.9333H72.1989V37.0953H70.3989ZM71.2989 26.4573C70.9989 26.4573 70.7409 26.3493 70.5249 26.1333C70.3089 25.9053 70.2009 25.6413 70.2009 25.3413C70.2009 25.0293 70.3089 24.7713 70.5249 24.5673C70.7409 24.3513 70.9989 24.2433 71.2989 24.2433C71.6109 24.2433 71.8749 24.3513 72.0909 24.5673C72.3069 24.7713 72.4149 25.0293 72.4149 25.3413C72.4149 25.6413 72.3069 25.9053 72.0909 26.1333C71.8749 26.3493 71.6109 26.4573 71.2989 26.4573ZM74.3188 37.0953V24.4953L76.1188 24.1533V37.0953H74.3188ZM78.2388 37.0953V24.4953L80.0388 24.1533V37.0953H78.2388ZM85.9204 37.0953V24.4953L87.7204 24.1533V37.0953H85.9204ZM94.2323 37.2573C93.3323 37.2573 92.5163 37.0473 91.7843 36.6273C91.0643 36.2073 90.4883 35.6373 90.0563 34.9173C89.6363 34.1973 89.4263 33.3933 89.4263 32.5053C89.4263 31.6293 89.6303 30.8373 90.0383 30.1293C90.4463 29.4093 90.9983 28.8393 91.6943 28.4193C92.3903 27.9873 93.1643 27.7713 94.0163 27.7713C94.8683 27.7713 95.6243 27.9873 96.2843 28.4193C96.9443 28.8393 97.4663 29.4153 97.8503 30.1473C98.2463 30.8673 98.4443 31.6833 98.4443 32.5953V33.0993H91.2263C91.3223 33.6033 91.5083 34.0533 91.7843 34.4493C92.0723 34.8453 92.4323 35.1573 92.8643 35.3853C93.3083 35.6133 93.7883 35.7273 94.3043 35.7273C94.7483 35.7273 95.1743 35.6613 95.5823 35.5293C96.0023 35.3853 96.3503 35.1813 96.6263 34.9173L97.7783 36.0513C97.2383 36.4593 96.6803 36.7653 96.1043 36.9693C95.5403 37.1613 94.9163 37.2573 94.2323 37.2573ZM91.2443 31.7493H96.6623C96.5903 31.2693 96.4223 30.8493 96.1583 30.4893C95.9063 30.1173 95.5883 29.8293 95.2043 29.6253C94.8323 29.4093 94.4243 29.3013 93.9803 29.3013C93.5243 29.3013 93.1043 29.4033 92.7203 29.6073C92.3363 29.8113 92.0123 30.0993 91.7483 30.4713C91.4963 30.8313 91.3283 31.2573 91.2443 31.7493ZM102.847 37.0953L98.887 27.9333H100.867L103.729 34.7913L106.591 27.9333H108.499L104.575 37.0953H102.847ZM113.744 37.2573C112.844 37.2573 112.028 37.0473 111.296 36.6273C110.576 36.2073 110 35.6373 109.568 34.9173C109.148 34.1973 108.938 33.3933 108.938 32.5053C108.938 31.6293 109.142 30.8373 109.55 30.1293C109.958 29.4093 110.51 28.8393 111.206 28.4193C111.902 27.9873 112.676 27.7713 113.528 27.7713C114.38 27.7713 115.136 27.9873 115.796 28.4193C116.456 28.8393 116.978 29.4153 117.362 30.1473C117.758 30.8673 117.956 31.6833 117.956 32.5953V33.0993H110.738C110.834 33.6033 111.02 34.0533 111.296 34.4493C111.584 34.8453 111.944 35.1573 112.376 35.3853C112.82 35.6133 113.3 35.7273 113.816 35.7273C114.26 35.7273 114.686 35.6613 115.094 35.5293C115.514 35.3853 115.862 35.1813 116.138 34.9173L117.29 36.0513C116.75 36.4593 116.192 36.7653 115.616 36.9693C115.052 37.1613 114.428 37.2573 113.744 37.2573ZM110.756 31.7493H116.174C116.102 31.2693 115.934 30.8493 115.67 30.4893C115.418 30.1173 115.1 29.8293 114.716 29.6253C114.344 29.4093 113.936 29.3013 113.492 29.3013C113.036 29.3013 112.616 29.4033 112.232 29.6073C111.848 29.8113 111.524 30.0993 111.26 30.4713C111.008 30.8313 110.84 31.2573 110.756 31.7493ZM119.67 37.0953V24.4953L121.47 24.1533V37.0953H119.67ZM126.74 37.2753C125.948 37.2753 125.204 37.1613 124.508 36.9333C123.824 36.6933 123.23 36.3573 122.726 35.9253L123.716 34.7373C124.184 35.1093 124.664 35.3973 125.156 35.6013C125.66 35.7933 126.17 35.8893 126.686 35.8893C127.334 35.8893 127.862 35.7633 128.27 35.5113C128.678 35.2593 128.882 34.9293 128.882 34.5213C128.882 34.1853 128.762 33.9213 128.522 33.7293C128.282 33.5373 127.91 33.4053 127.406 33.3333L125.75 33.0993C124.838 32.9673 124.154 32.6853 123.698 32.2533C123.242 31.8213 123.014 31.2453 123.014 30.5253C123.014 29.9733 123.164 29.4933 123.464 29.0853C123.764 28.6653 124.184 28.3413 124.724 28.1133C125.264 27.8733 125.894 27.7533 126.614 27.7533C127.274 27.7533 127.91 27.8493 128.522 28.0413C129.134 28.2333 129.722 28.5333 130.286 28.9413L129.368 30.1293C128.864 29.7933 128.372 29.5473 127.892 29.3913C127.424 29.2353 126.95 29.1573 126.47 29.1573C125.918 29.1573 125.474 29.2773 125.138 29.5173C124.802 29.7453 124.634 30.0453 124.634 30.4173C124.634 30.7533 124.748 31.0173 124.976 31.2093C125.216 31.3893 125.606 31.5153 126.146 31.5873L127.802 31.8213C128.714 31.9533 129.404 32.2353 129.872 32.6673C130.34 33.0873 130.574 33.6573 130.574 34.3773C130.574 34.9293 130.406 35.4273 130.07 35.8713C129.734 36.3033 129.278 36.6453 128.702 36.8973C128.126 37.1493 127.472 37.2753 126.74 37.2753ZM137.429 37.0953L134.873 27.9333H136.619L138.401 34.6653L140.489 27.9333H142.037L144.125 34.6653L145.907 27.9333H147.599L145.025 37.0953H143.297L141.245 30.3813L139.175 37.0953H137.429ZM153.101 37.2573C152.201 37.2573 151.385 37.0473 150.653 36.6273C149.933 36.2073 149.357 35.6373 148.925 34.9173C148.505 34.1973 148.295 33.3933 148.295 32.5053C148.295 31.6293 148.499 30.8373 148.907 30.1293C149.315 29.4093 149.867 28.8393 150.563 28.4193C151.259 27.9873 152.033 27.7713 152.885 27.7713C153.737 27.7713 154.493 27.9873 155.153 28.4193C155.813 28.8393 156.335 29.4153 156.719 30.1473C157.115 30.8673 157.313 31.6833 157.313 32.5953V33.0993H150.095C150.191 33.6033 150.377 34.0533 150.653 34.4493C150.941 34.8453 151.301 35.1573 151.733 35.3853C152.177 35.6133 152.657 35.7273 153.173 35.7273C153.617 35.7273 154.043 35.6613 154.451 35.5293C154.871 35.3853 155.219 35.1813 155.495 34.9173L156.647 36.0513C156.107 36.4593 155.549 36.7653 154.973 36.9693C154.409 37.1613 153.785 37.2573 153.101 37.2573ZM150.113 31.7493H155.531C155.459 31.2693 155.291 30.8493 155.027 30.4893C154.775 30.1173 154.457 29.8293 154.073 29.6253C153.701 29.4093 153.293 29.3013 152.849 29.3013C152.393 29.3013 151.973 29.4033 151.589 29.6073C151.205 29.8113 150.881 30.0993 150.617 30.4713C150.365 30.8313 150.197 31.2573 150.113 31.7493ZM159.028 37.0953V24.4953L160.828 24.1533V37.0953H159.028ZM167.25 37.2573C166.374 37.2573 165.576 37.0473 164.856 36.6273C164.136 36.2073 163.566 35.6373 163.146 34.9173C162.738 34.1973 162.534 33.3933 162.534 32.5053C162.534 31.6173 162.744 30.8193 163.164 30.1113C163.584 29.3913 164.148 28.8213 164.856 28.4013C165.576 27.9693 166.374 27.7533 167.25 27.7533C167.946 27.7533 168.612 27.8853 169.248 28.1493C169.896 28.4133 170.454 28.7853 170.922 29.2653L169.806 30.5073C169.458 30.1233 169.068 29.8353 168.636 29.6433C168.204 29.4513 167.754 29.3553 167.286 29.3553C166.734 29.3553 166.23 29.4933 165.774 29.7693C165.33 30.0453 164.976 30.4233 164.712 30.9033C164.448 31.3833 164.316 31.9173 164.316 32.5053C164.316 33.0933 164.448 33.6273 164.712 34.1073C164.976 34.5873 165.336 34.9713 165.792 35.2593C166.248 35.5353 166.758 35.6733 167.322 35.6733C167.79 35.6733 168.228 35.5833 168.636 35.4033C169.044 35.2113 169.428 34.9353 169.788 34.5753L170.886 35.7273C170.406 36.2193 169.848 36.5973 169.212 36.8613C168.588 37.1253 167.934 37.2573 167.25 37.2573ZM176.427 37.2753C175.539 37.2753 174.729 37.0653 173.997 36.6453C173.277 36.2253 172.707 35.6553 172.287 34.9353C171.867 34.2153 171.657 33.4113 171.657 32.5233C171.657 31.6353 171.867 30.8313 172.287 30.1113C172.707 29.3913 173.277 28.8213 173.997 28.4013C174.729 27.9693 175.539 27.7533 176.427 27.7533C177.327 27.7533 178.137 27.9693 178.857 28.4013C179.577 28.8213 180.147 29.3913 180.567 30.1113C180.987 30.8313 181.197 31.6353 181.197 32.5233C181.197 33.4113 180.987 34.2153 180.567 34.9353C180.147 35.6553 179.577 36.2253 178.857 36.6453C178.137 37.0653 177.327 37.2753 176.427 37.2753ZM176.427 35.6913C176.991 35.6913 177.501 35.5533 177.957 35.2773C178.413 34.9893 178.773 34.6053 179.037 34.1253C179.301 33.6453 179.433 33.1053 179.433 32.5053C179.433 31.9173 179.295 31.3893 179.019 30.9213C178.755 30.4413 178.395 30.0573 177.939 29.7693C177.495 29.4813 176.991 29.3373 176.427 29.3373C175.863 29.3373 175.353 29.4813 174.897 29.7693C174.453 30.0573 174.093 30.4413 173.817 30.9213C173.553 31.3893 173.421 31.9173 173.421 32.5053C173.421 33.1053 173.553 33.6453 173.817 34.1253C174.081 34.6053 174.441 34.9893 174.897 35.2773C175.353 35.5533 175.863 35.6913 176.427 35.6913ZM182.899 37.0953V27.9333H184.699V28.8153C185.383 28.1073 186.241 27.7533 187.273 27.7533C187.897 27.7533 188.449 27.8913 188.929 28.1673C189.421 28.4433 189.811 28.8153 190.099 29.2833C190.483 28.7793 190.933 28.4013 191.449 28.1493C191.965 27.8853 192.547 27.7533 193.195 27.7533C193.879 27.7533 194.473 27.9033 194.977 28.2033C195.493 28.5033 195.895 28.9233 196.183 29.4633C196.483 30.0033 196.633 30.6273 196.633 31.3353V37.0953H194.833V31.6413C194.833 30.9213 194.641 30.3573 194.257 29.9493C193.885 29.5293 193.375 29.3193 192.727 29.3193C192.283 29.3193 191.881 29.4213 191.521 29.6253C191.161 29.8293 190.849 30.1413 190.585 30.5613C190.609 30.6813 190.627 30.8073 190.639 30.9393C190.651 31.0713 190.657 31.2033 190.657 31.3353V37.0953H188.875V31.6413C188.875 30.9213 188.683 30.3573 188.299 29.9493C187.927 29.5293 187.417 29.3193 186.769 29.3193C186.337 29.3193 185.947 29.4153 185.599 29.6073C185.251 29.7873 184.951 30.0633 184.699 30.4353V37.0953H182.899ZM203.094 37.2573C202.194 37.2573 201.378 37.0473 200.646 36.6273C199.926 36.2073 199.35 35.6373 198.918 34.9173C198.498 34.1973 198.288 33.3933 198.288 32.5053C198.288 31.6293 198.492 30.8373 198.9 30.1293C199.308 29.4093 199.86 28.8393 200.556 28.4193C201.252 27.9873 202.026 27.7713 202.878 27.7713C203.73 27.7713 204.486 27.9873 205.146 28.4193C205.806 28.8393 206.328 29.4153 206.712 30.1473C207.108 30.8673 207.306 31.6833 207.306 32.5953V33.0993H200.088C200.184 33.6033 200.37 34.0533 200.646 34.4493C200.934 34.8453 201.294 35.1573 201.726 35.3853C202.17 35.6133 202.65 35.7273 203.166 35.7273C203.61 35.7273 204.036 35.6613 204.444 35.5293C204.864 35.3853 205.212 35.1813 205.488 34.9173L206.64 36.0513C206.1 36.4593 205.542 36.7653 204.966 36.9693C204.402 37.1613 203.778 37.2573 203.094 37.2573ZM200.106 31.7493H205.524C205.452 31.2693 205.284 30.8493 205.02 30.4893C204.768 30.1173 204.45 29.8293 204.066 29.6253C203.694 29.4093 203.286 29.3013 202.842 29.3013C202.386 29.3013 201.966 29.4033 201.582 29.6073C201.198 29.8113 200.874 30.0993 200.61 30.4713C200.358 30.8313 200.19 31.2573 200.106 31.7493ZM212.548 32.7933V31.2273H219.028V32.7933H212.548ZM226.392 37.0953L223.836 27.9333H225.582L227.364 34.6653L229.452 27.9333H231L233.088 34.6653L234.87 27.9333H236.562L233.988 37.0953H232.26L230.208 30.3813L228.138 37.0953H226.392ZM242.064 37.2573C241.164 37.2573 240.348 37.0473 239.616 36.6273C238.896 36.2073 238.32 35.6373 237.888 34.9173C237.468 34.1973 237.258 33.3933 237.258 32.5053C237.258 31.6293 237.462 30.8373 237.87 30.1293C238.278 29.4093 238.83 28.8393 239.526 28.4193C240.222 27.9873 240.996 27.7713 241.848 27.7713C242.7 27.7713 243.456 27.9873 244.116 28.4193C244.776 28.8393 245.298 29.4153 245.682 30.1473C246.078 30.8673 246.276 31.6833 246.276 32.5953V33.0993H239.058C239.154 33.6033 239.34 34.0533 239.616 34.4493C239.904 34.8453 240.264 35.1573 240.696 35.3853C241.14 35.6133 241.62 35.7273 242.136 35.7273C242.58 35.7273 243.006 35.6613 243.414 35.5293C243.834 35.3853 244.182 35.1813 244.458 34.9173L245.61 36.0513C245.07 36.4593 244.512 36.7653 243.936 36.9693C243.372 37.1613 242.748 37.2573 242.064 37.2573ZM239.076 31.7493H244.494C244.422 31.2693 244.254 30.8493 243.99 30.4893C243.738 30.1173 243.42 29.8293 243.036 29.6253C242.664 29.4093 242.256 29.3013 241.812 29.3013C241.356 29.3013 240.936 29.4033 240.552 29.6073C240.168 29.8113 239.844 30.0993 239.58 30.4713C239.328 30.8313 239.16 31.2573 239.076 31.7493ZM247.211 28.1673L248.327 23.9733H250.235L248.579 28.1673H247.211ZM251.963 37.0953V24.4953L253.763 24.1533V37.0953H251.963ZM255.883 37.0953V24.4953L257.683 24.1533V37.0953H255.883ZM28.3696 64.7673V51.9333H30.1516V52.8153C30.9196 52.1313 31.8556 51.7893 32.9596 51.7893C33.8236 51.7893 34.6036 51.9993 35.2996 52.4193C36.0076 52.8393 36.5656 53.4033 36.9736 54.1113C37.3816 54.8193 37.5856 55.6173 37.5856 56.5053C37.5856 57.3933 37.3756 58.1973 36.9556 58.9173C36.5476 59.6253 35.9896 60.1893 35.2816 60.6093C34.5856 61.0293 33.7996 61.2393 32.9236 61.2393C32.4196 61.2393 31.9336 61.1613 31.4656 61.0053C30.9976 60.8373 30.5656 60.6033 30.1696 60.3033V64.7673H28.3696ZM32.7256 59.6733C33.3136 59.6733 33.8356 59.5353 34.2916 59.2593C34.7596 58.9833 35.1316 58.6113 35.4076 58.1433C35.6836 57.6633 35.8216 57.1233 35.8216 56.5233C35.8216 55.9233 35.6836 55.3833 35.4076 54.9033C35.1316 54.4233 34.7596 54.0453 34.2916 53.7693C33.8356 53.4933 33.3136 53.3553 32.7256 53.3553C32.2096 53.3553 31.7296 53.4513 31.2856 53.6433C30.8416 53.8353 30.4696 54.1053 30.1696 54.4533V58.5933C30.4696 58.9293 30.8416 59.1933 31.2856 59.3853C31.7416 59.5773 32.2216 59.6733 32.7256 59.6733ZM39.3032 61.0953V51.9333H41.1032V53.1033C41.3912 52.6713 41.7452 52.3353 42.1652 52.0953C42.5972 51.8433 43.0832 51.7173 43.6232 51.7173C43.9952 51.7293 44.3012 51.7833 44.5412 51.8793V53.4993C44.3732 53.4273 44.1992 53.3793 44.0192 53.3553C43.8392 53.3193 43.6592 53.3013 43.4792 53.3013C42.9512 53.3013 42.4832 53.4453 42.0752 53.7333C41.6672 54.0093 41.3432 54.4173 41.1032 54.9573V61.0953H39.3032ZM49.8116 61.2753C48.9236 61.2753 48.1136 61.0653 47.3816 60.6453C46.6616 60.2253 46.0916 59.6553 45.6716 58.9353C45.2516 58.2153 45.0416 57.4113 45.0416 56.5233C45.0416 55.6353 45.2516 54.8313 45.6716 54.1113C46.0916 53.3913 46.6616 52.8213 47.3816 52.4013C48.1136 51.9693 48.9236 51.7533 49.8116 51.7533C50.7116 51.7533 51.5216 51.9693 52.2416 52.4013C52.9616 52.8213 53.5316 53.3913 53.9516 54.1113C54.3716 54.8313 54.5816 55.6353 54.5816 56.5233C54.5816 57.4113 54.3716 58.2153 53.9516 58.9353C53.5316 59.6553 52.9616 60.2253 52.2416 60.6453C51.5216 61.0653 50.7116 61.2753 49.8116 61.2753ZM49.8116 59.6913C50.3756 59.6913 50.8856 59.5533 51.3416 59.2773C51.7976 58.9893 52.1576 58.6053 52.4216 58.1253C52.6856 57.6453 52.8176 57.1053 52.8176 56.5053C52.8176 55.9173 52.6796 55.3893 52.4036 54.9213C52.1396 54.4413 51.7796 54.0573 51.3236 53.7693C50.8796 53.4813 50.3756 53.3373 49.8116 53.3373C49.2476 53.3373 48.7376 53.4813 48.2816 53.7693C47.8376 54.0573 47.4776 54.4413 47.2016 54.9213C46.9376 55.3893 46.8056 55.9173 46.8056 56.5053C46.8056 57.1053 46.9376 57.6453 47.2016 58.1253C47.4656 58.6053 47.8256 58.9893 48.2816 59.2773C48.7376 59.5533 49.2476 59.6913 49.8116 59.6913ZM58.972 61.0953L55.012 51.9333H56.992L59.854 58.7913L62.716 51.9333H64.624L60.7 61.0953H58.972ZM65.7407 61.0953V51.9333H67.5407V61.0953H65.7407ZM66.6407 50.4573C66.3407 50.4573 66.0827 50.3493 65.8667 50.1333C65.6507 49.9053 65.5427 49.6413 65.5427 49.3413C65.5427 49.0293 65.6507 48.7713 65.8667 48.5673C66.0827 48.3513 66.3407 48.2433 66.6407 48.2433C66.9527 48.2433 67.2167 48.3513 67.4327 48.5673C67.6487 48.7713 67.7567 49.0293 67.7567 49.3413C67.7567 49.6413 67.6487 49.9053 67.4327 50.1333C67.2167 50.3493 66.9527 50.4573 66.6407 50.4573ZM73.8726 61.2393C73.0206 61.2393 72.2406 61.0293 71.5326 60.6093C70.8246 60.1893 70.2666 59.6253 69.8586 58.9173C69.4506 58.1973 69.2466 57.3933 69.2466 56.5053C69.2466 55.6173 69.4506 54.8193 69.8586 54.1113C70.2786 53.4033 70.8426 52.8393 71.5506 52.4193C72.2586 51.9993 73.0446 51.7893 73.9086 51.7893C74.4126 51.7893 74.8986 51.8673 75.3666 52.0233C75.8346 52.1793 76.2666 52.4073 76.6626 52.7073V48.4953L78.4626 48.1533V61.0953H76.6806V60.2133C75.9006 60.8973 74.9646 61.2393 73.8726 61.2393ZM74.1066 59.6733C74.6346 59.6733 75.1146 59.5773 75.5466 59.3853C75.9906 59.1933 76.3626 58.9173 76.6626 58.5573V54.4353C76.3626 54.0993 75.9906 53.8353 75.5466 53.6433C75.1146 53.4393 74.6346 53.3373 74.1066 53.3373C73.5306 53.3373 73.0086 53.4753 72.5406 53.7513C72.0726 54.0273 71.7006 54.4053 71.4246 54.8853C71.1486 55.3533 71.0106 55.8873 71.0106 56.4873C71.0106 57.0873 71.1486 57.6273 71.4246 58.1073C71.7006 58.5873 72.0726 58.9713 72.5406 59.2593C73.0086 59.5353 73.5306 59.6733 74.1066 59.6733ZM84.9862 61.2573C84.0862 61.2573 83.2702 61.0473 82.5382 60.6273C81.8182 60.2073 81.2422 59.6373 80.8102 58.9173C80.3902 58.1973 80.1802 57.3933 80.1802 56.5053C80.1802 55.6293 80.3842 54.8373 80.7922 54.1293C81.2002 53.4093 81.7522 52.8393 82.4482 52.4193C83.1442 51.9873 83.9182 51.7713 84.7702 51.7713C85.6222 51.7713 86.3782 51.9873 87.0382 52.4193C87.6982 52.8393 88.2202 53.4153 88.6042 54.1473C89.0002 54.8673 89.1982 55.6833 89.1982 56.5953V57.0993H81.9802C82.0762 57.6033 82.2622 58.0533 82.5382 58.4493C82.8262 58.8453 83.1862 59.1573 83.6182 59.3853C84.0622 59.6133 84.5422 59.7273 85.0582 59.7273C85.5022 59.7273 85.9282 59.6613 86.3362 59.5293C86.7562 59.3853 87.1042 59.1813 87.3802 58.9173L88.5322 60.0513C87.9922 60.4593 87.4342 60.7653 86.8582 60.9693C86.2942 61.1613 85.6702 61.2573 84.9862 61.2573ZM81.9982 55.7493H87.4162C87.3442 55.2693 87.1762 54.8493 86.9122 54.4893C86.6602 54.1173 86.3422 53.8293 85.9582 53.6253C85.5862 53.4093 85.1782 53.3013 84.7342 53.3013C84.2782 53.3013 83.8582 53.4033 83.4742 53.6073C83.0902 53.8113 82.7662 54.0993 82.5022 54.4713C82.2502 54.8313 82.0822 55.2573 81.9982 55.7493ZM96.3843 61.0953L93.8283 51.9333H95.5743L97.3563 58.6653L99.4443 51.9333H100.992L103.08 58.6653L104.862 51.9333H106.554L103.98 61.0953H102.252L100.2 54.3813L98.1303 61.0953H96.3843ZM112.021 61.2753C111.133 61.2753 110.323 61.0653 109.591 60.6453C108.871 60.2253 108.301 59.6553 107.881 58.9353C107.461 58.2153 107.251 57.4113 107.251 56.5233C107.251 55.6353 107.461 54.8313 107.881 54.1113C108.301 53.3913 108.871 52.8213 109.591 52.4013C110.323 51.9693 111.133 51.7533 112.021 51.7533C112.921 51.7533 113.731 51.9693 114.451 52.4013C115.171 52.8213 115.741 53.3913 116.161 54.1113C116.581 54.8313 116.791 55.6353 116.791 56.5233C116.791 57.4113 116.581 58.2153 116.161 58.9353C115.741 59.6553 115.171 60.2253 114.451 60.6453C113.731 61.0653 112.921 61.2753 112.021 61.2753ZM112.021 59.6913C112.585 59.6913 113.095 59.5533 113.551 59.2773C114.007 58.9893 114.367 58.6053 114.631 58.1253C114.895 57.6453 115.027 57.1053 115.027 56.5053C115.027 55.9173 114.889 55.3893 114.613 54.9213C114.349 54.4413 113.989 54.0573 113.533 53.7693C113.089 53.4813 112.585 53.3373 112.021 53.3373C111.457 53.3373 110.947 53.4813 110.491 53.7693C110.047 54.0573 109.687 54.4413 109.411 54.9213C109.147 55.3893 109.015 55.9173 109.015 56.5053C109.015 57.1053 109.147 57.6453 109.411 58.1253C109.675 58.6053 110.035 58.9893 110.491 59.2773C110.947 59.5533 111.457 59.6913 112.021 59.6913ZM118.493 61.0953V51.9333H120.293V53.1033C120.581 52.6713 120.935 52.3353 121.355 52.0953C121.787 51.8433 122.273 51.7173 122.813 51.7173C123.185 51.7293 123.491 51.7833 123.731 51.8793V53.4993C123.563 53.4273 123.389 53.3793 123.209 53.3553C123.029 53.3193 122.849 53.3013 122.669 53.3013C122.141 53.3013 121.673 53.4453 121.265 53.7333C120.857 54.0093 120.533 54.4173 120.293 54.9573V61.0953H118.493ZM125.172 61.0953V48.4953L126.972 48.1533V55.9473L131.418 51.9333H133.524L128.79 56.2173L133.776 61.0953H131.4L126.972 56.7933V61.0953H125.172ZM137.639 61.2753C136.847 61.2753 136.103 61.1613 135.407 60.9333C134.723 60.6933 134.129 60.3573 133.625 59.9253L134.615 58.7373C135.083 59.1093 135.563 59.3973 136.055 59.6013C136.559 59.7933 137.069 59.8893 137.585 59.8893C138.233 59.8893 138.761 59.7633 139.169 59.5113C139.577 59.2593 139.781 58.9293 139.781 58.5213C139.781 58.1853 139.661 57.9213 139.421 57.7293C139.181 57.5373 138.809 57.4053 138.305 57.3333L136.649 57.0993C135.737 56.9673 135.053 56.6853 134.597 56.2533C134.141 55.8213 133.913 55.2453 133.913 54.5253C133.913 53.9733 134.063 53.4933 134.363 53.0853C134.663 52.6653 135.083 52.3413 135.623 52.1133C136.163 51.8733 136.793 51.7533 137.513 51.7533C138.173 51.7533 138.809 51.8493 139.421 52.0413C140.033 52.2333 140.621 52.5333 141.185 52.9413L140.267 54.1293C139.763 53.7933 139.271 53.5473 138.791 53.3913C138.323 53.2353 137.849 53.1573 137.369 53.1573C136.817 53.1573 136.373 53.2773 136.037 53.5173C135.701 53.7453 135.533 54.0453 135.533 54.4173C135.533 54.7533 135.647 55.0173 135.875 55.2093C136.115 55.3893 136.505 55.5153 137.045 55.5873L138.701 55.8213C139.613 55.9533 140.303 56.2353 140.771 56.6673C141.239 57.0873 141.473 57.6573 141.473 58.3773C141.473 58.9293 141.305 59.4273 140.969 59.8713C140.633 60.3033 140.177 60.6453 139.601 60.8973C139.025 61.1493 138.371 61.2753 137.639 61.2753ZM142.856 61.0953V48.4953L144.656 48.0993V52.8693C145.364 52.1253 146.282 51.7533 147.41 51.7533C148.118 51.7533 148.736 51.9033 149.264 52.2033C149.804 52.5033 150.224 52.9233 150.524 53.4633C150.836 54.0033 150.992 54.6273 150.992 55.3353V61.0953H149.192V55.6413C149.192 54.9213 148.988 54.3573 148.58 53.9493C148.172 53.5293 147.614 53.3193 146.906 53.3193C146.426 53.3193 145.994 53.4213 145.61 53.6253C145.226 53.8293 144.908 54.1233 144.656 54.5073V61.0953H142.856ZM157.425 61.2753C156.537 61.2753 155.727 61.0653 154.995 60.6453C154.275 60.2253 153.705 59.6553 153.285 58.9353C152.865 58.2153 152.655 57.4113 152.655 56.5233C152.655 55.6353 152.865 54.8313 153.285 54.1113C153.705 53.3913 154.275 52.8213 154.995 52.4013C155.727 51.9693 156.537 51.7533 157.425 51.7533C158.325 51.7533 159.135 51.9693 159.855 52.4013C160.575 52.8213 161.145 53.3913 161.565 54.1113C161.985 54.8313 162.195 55.6353 162.195 56.5233C162.195 57.4113 161.985 58.2153 161.565 58.9353C161.145 59.6553 160.575 60.2253 159.855 60.6453C159.135 61.0653 158.325 61.2753 157.425 61.2753ZM157.425 59.6913C157.989 59.6913 158.499 59.5533 158.955 59.2773C159.411 58.9893 159.771 58.6053 160.035 58.1253C160.299 57.6453 160.431 57.1053 160.431 56.5053C160.431 55.9173 160.293 55.3893 160.017 54.9213C159.753 54.4413 159.393 54.0573 158.937 53.7693C158.493 53.4813 157.989 53.3373 157.425 53.3373C156.861 53.3373 156.351 53.4813 155.895 53.7693C155.451 54.0573 155.091 54.4413 154.815 54.9213C154.551 55.3893 154.419 55.9173 154.419 56.5053C154.419 57.1053 154.551 57.6453 154.815 58.1253C155.079 58.6053 155.439 58.9893 155.895 59.2773C156.351 59.5533 156.861 59.6913 157.425 59.6913ZM163.897 64.7673V51.9333H165.679V52.8153C166.447 52.1313 167.383 51.7893 168.487 51.7893C169.351 51.7893 170.131 51.9993 170.827 52.4193C171.535 52.8393 172.093 53.4033 172.501 54.1113C172.909 54.8193 173.113 55.6173 173.113 56.5053C173.113 57.3933 172.903 58.1973 172.483 58.9173C172.075 59.6253 171.517 60.1893 170.809 60.6093C170.113 61.0293 169.327 61.2393 168.451 61.2393C167.947 61.2393 167.461 61.1613 166.993 61.0053C166.525 60.8373 166.093 60.6033 165.697 60.3033V64.7673H163.897ZM168.253 59.6733C168.841 59.6733 169.363 59.5353 169.819 59.2593C170.287 58.9833 170.659 58.6113 170.935 58.1433C171.211 57.6633 171.349 57.1233 171.349 56.5233C171.349 55.9233 171.211 55.3833 170.935 54.9033C170.659 54.4233 170.287 54.0453 169.819 53.7693C169.363 53.4933 168.841 53.3553 168.253 53.3553C167.737 53.3553 167.257 53.4513 166.813 53.6433C166.369 53.8353 165.997 54.1053 165.697 54.4533V58.5933C165.997 58.9293 166.369 59.1933 166.813 59.3853C167.269 59.5773 167.749 59.6733 168.253 59.6733ZM177.981 61.2753C177.189 61.2753 176.445 61.1613 175.749 60.9333C175.065 60.6933 174.471 60.3573 173.967 59.9253L174.957 58.7373C175.425 59.1093 175.905 59.3973 176.397 59.6013C176.901 59.7933 177.411 59.8893 177.927 59.8893C178.575 59.8893 179.103 59.7633 179.511 59.5113C179.919 59.2593 180.123 58.9293 180.123 58.5213C180.123 58.1853 180.003 57.9213 179.763 57.7293C179.523 57.5373 179.151 57.4053 178.647 57.3333L176.991 57.0993C176.079 56.9673 175.395 56.6853 174.939 56.2533C174.483 55.8213 174.255 55.2453 174.255 54.5253C174.255 53.9733 174.405 53.4933 174.705 53.0853C175.005 52.6653 175.425 52.3413 175.965 52.1133C176.505 51.8733 177.135 51.7533 177.855 51.7533C178.515 51.7533 179.151 51.8493 179.763 52.0413C180.375 52.2333 180.963 52.5333 181.527 52.9413L180.609 54.1293C180.105 53.7933 179.613 53.5473 179.133 53.3913C178.665 53.2353 178.191 53.1573 177.711 53.1573C177.159 53.1573 176.715 53.2773 176.379 53.5173C176.043 53.7453 175.875 54.0453 175.875 54.4173C175.875 54.7533 175.989 55.0173 176.217 55.2093C176.457 55.3893 176.847 55.5153 177.387 55.5873L179.043 55.8213C179.955 55.9533 180.645 56.2353 181.113 56.6673C181.581 57.0873 181.815 57.6573 181.815 58.3773C181.815 58.9293 181.647 59.4273 181.311 59.8713C180.975 60.3033 180.519 60.6453 179.943 60.8973C179.367 61.1493 178.713 61.2753 177.981 61.2753ZM190.631 61.2933C189.779 61.2933 189.029 61.1433 188.381 60.8433C187.745 60.5433 187.247 60.1233 186.887 59.5833C186.527 59.0433 186.347 58.4193 186.347 57.7113C186.347 57.1953 186.431 56.7393 186.599 56.3433C186.767 55.9473 187.043 55.5753 187.427 55.2273C187.823 54.8673 188.345 54.5073 188.993 54.1473C188.597 53.6313 188.315 53.1573 188.147 52.7253C187.979 52.2933 187.895 51.8373 187.895 51.3573C187.895 50.7693 188.033 50.2473 188.309 49.7913C188.585 49.3233 188.969 48.9573 189.461 48.6933C189.953 48.4293 190.511 48.2973 191.135 48.2973C191.723 48.2973 192.245 48.4173 192.701 48.6573C193.169 48.8853 193.535 49.2093 193.799 49.6293C194.075 50.0373 194.213 50.5113 194.213 51.0513C194.213 51.6273 194.057 52.1493 193.745 52.6173C193.433 53.0733 192.947 53.4933 192.287 53.8773L191.387 54.4353C191.819 54.9153 192.293 55.4073 192.809 55.9113C193.325 56.4153 193.847 56.9133 194.375 57.4053C194.651 56.9613 194.879 56.4753 195.059 55.9473C195.239 55.4073 195.389 54.8373 195.509 54.2373L197.111 54.5073C196.943 55.2753 196.733 55.9893 196.481 56.6493C196.229 57.3093 195.923 57.9093 195.563 58.4493C195.923 58.7613 196.271 59.0553 196.607 59.3313C196.955 59.5953 197.291 59.8533 197.615 60.1053L196.535 61.3833C196.223 61.1433 195.893 60.8913 195.545 60.6273C195.209 60.3513 194.873 60.0693 194.537 59.7813C194.021 60.2733 193.427 60.6513 192.755 60.9153C192.095 61.1673 191.387 61.2933 190.631 61.2933ZM190.469 53.3733L191.387 52.8333C191.783 52.6053 192.077 52.3533 192.269 52.0773C192.461 51.7893 192.557 51.4653 192.557 51.1053C192.557 50.6973 192.413 50.3613 192.125 50.0973C191.849 49.8213 191.501 49.6833 191.081 49.6833C190.637 49.6833 190.271 49.8393 189.983 50.1513C189.695 50.4513 189.551 50.8413 189.551 51.3213C189.551 51.6453 189.617 51.9633 189.749 52.2753C189.893 52.5753 190.133 52.9413 190.469 53.3733ZM190.739 59.8173C191.255 59.8173 191.735 59.7273 192.179 59.5473C192.623 59.3673 193.019 59.1033 193.367 58.7553C192.743 58.1793 192.131 57.5973 191.531 57.0093C190.931 56.4093 190.385 55.8273 189.893 55.2633C189.425 55.5153 189.053 55.7613 188.777 56.0013C188.501 56.2413 188.309 56.4933 188.201 56.7573C188.093 57.0093 188.039 57.2913 188.039 57.6033C188.039 58.2753 188.285 58.8153 188.777 59.2233C189.269 59.6193 189.923 59.8173 190.739 59.8173ZM202.709 61.0953V51.9333H204.509V53.1033C204.797 52.6713 205.151 52.3353 205.571 52.0953C206.003 51.8433 206.489 51.7173 207.029 51.7173C207.401 51.7293 207.707 51.7833 207.947 51.8793V53.4993C207.779 53.4273 207.605 53.3793 207.425 53.3553C207.245 53.3193 207.065 53.3013 206.885 53.3013C206.357 53.3013 205.889 53.4453 205.481 53.7333C205.073 54.0093 204.749 54.4173 204.509 54.9573V61.0953H202.709ZM213.254 61.2573C212.354 61.2573 211.538 61.0473 210.806 60.6273C210.086 60.2073 209.51 59.6373 209.078 58.9173C208.658 58.1973 208.448 57.3933 208.448 56.5053C208.448 55.6293 208.652 54.8373 209.06 54.1293C209.468 53.4093 210.02 52.8393 210.716 52.4193C211.412 51.9873 212.186 51.7713 213.038 51.7713C213.89 51.7713 214.646 51.9873 215.306 52.4193C215.966 52.8393 216.488 53.4153 216.872 54.1473C217.268 54.8673 217.466 55.6833 217.466 56.5953V57.0993H210.248C210.344 57.6033 210.53 58.0533 210.806 58.4493C211.094 58.8453 211.454 59.1573 211.886 59.3853C212.33 59.6133 212.81 59.7273 213.326 59.7273C213.77 59.7273 214.196 59.6613 214.604 59.5293C215.024 59.3853 215.372 59.1813 215.648 58.9173L216.8 60.0513C216.26 60.4593 215.702 60.7653 215.126 60.9693C214.562 61.1613 213.938 61.2573 213.254 61.2573ZM210.266 55.7493H215.684C215.612 55.2693 215.444 54.8493 215.18 54.4893C214.928 54.1173 214.61 53.8293 214.226 53.6253C213.854 53.4093 213.446 53.3013 213.002 53.3013C212.546 53.3013 212.126 53.4033 211.742 53.6073C211.358 53.8113 211.034 54.0993 210.77 54.4713C210.518 54.8313 210.35 55.2573 210.266 55.7493ZM222.418 61.2753C221.626 61.2753 220.882 61.1613 220.186 60.9333C219.502 60.6933 218.908 60.3573 218.404 59.9253L219.394 58.7373C219.862 59.1093 220.342 59.3973 220.834 59.6013C221.338 59.7933 221.848 59.8893 222.364 59.8893C223.012 59.8893 223.54 59.7633 223.948 59.5113C224.356 59.2593 224.56 58.9293 224.56 58.5213C224.56 58.1853 224.44 57.9213 224.2 57.7293C223.96 57.5373 223.588 57.4053 223.084 57.3333L221.428 57.0993C220.516 56.9673 219.832 56.6853 219.376 56.2533C218.92 55.8213 218.692 55.2453 218.692 54.5253C218.692 53.9733 218.842 53.4933 219.142 53.0853C219.442 52.6653 219.862 52.3413 220.402 52.1133C220.942 51.8733 221.572 51.7533 222.292 51.7533C222.952 51.7533 223.588 51.8493 224.2 52.0413C224.812 52.2333 225.4 52.5333 225.964 52.9413L225.046 54.1293C224.542 53.7933 224.05 53.5473 223.57 53.3913C223.102 53.2353 222.628 53.1573 222.148 53.1573C221.596 53.1573 221.152 53.2773 220.816 53.5173C220.48 53.7453 220.312 54.0453 220.312 54.4173C220.312 54.7533 220.426 55.0173 220.654 55.2093C220.894 55.3893 221.284 55.5153 221.824 55.5873L223.48 55.8213C224.392 55.9533 225.082 56.2353 225.55 56.6673C226.018 57.0873 226.252 57.6573 226.252 58.3773C226.252 58.9293 226.084 59.4273 225.748 59.8713C225.412 60.3033 224.956 60.6453 224.38 60.8973C223.804 61.1493 223.15 61.2753 222.418 61.2753ZM232.079 61.2753C231.191 61.2753 230.381 61.0653 229.649 60.6453C228.929 60.2253 228.359 59.6553 227.939 58.9353C227.519 58.2153 227.309 57.4113 227.309 56.5233C227.309 55.6353 227.519 54.8313 227.939 54.1113C228.359 53.3913 228.929 52.8213 229.649 52.4013C230.381 51.9693 231.191 51.7533 232.079 51.7533C232.979 51.7533 233.789 51.9693 234.509 52.4013C235.229 52.8213 235.799 53.3913 236.219 54.1113C236.639 54.8313 236.849 55.6353 236.849 56.5233C236.849 57.4113 236.639 58.2153 236.219 58.9353C235.799 59.6553 235.229 60.2253 234.509 60.6453C233.789 61.0653 232.979 61.2753 232.079 61.2753ZM232.079 59.6913C232.643 59.6913 233.153 59.5533 233.609 59.2773C234.065 58.9893 234.425 58.6053 234.689 58.1253C234.953 57.6453 235.085 57.1053 235.085 56.5053C235.085 55.9173 234.947 55.3893 234.671 54.9213C234.407 54.4413 234.047 54.0573 233.591 53.7693C233.147 53.4813 232.643 53.3373 232.079 53.3373C231.515 53.3373 231.005 53.4813 230.549 53.7693C230.105 54.0573 229.745 54.4413 229.469 54.9213C229.205 55.3893 229.073 55.9173 229.073 56.5053C229.073 57.1053 229.205 57.6453 229.469 58.1253C229.733 58.6053 230.093 58.9893 230.549 59.2773C231.005 59.5533 231.515 59.6913 232.079 59.6913ZM242.097 61.2753C241.389 61.2753 240.765 61.1253 240.225 60.8253C239.685 60.5253 239.265 60.1053 238.965 59.5653C238.665 59.0133 238.515 58.3833 238.515 57.6753V51.9333H240.297V57.3693C240.297 58.0893 240.501 58.6593 240.909 59.0793C241.329 59.4993 241.887 59.7093 242.583 59.7093C243.075 59.7093 243.513 59.6073 243.897 59.4033C244.281 59.1873 244.593 58.8873 244.833 58.5033V51.9333H246.633V61.0953H244.833V60.1593C244.125 60.9033 243.213 61.2753 242.097 61.2753ZM248.764 61.0953V51.9333H250.564V53.1033C250.852 52.6713 251.206 52.3353 251.626 52.0953C252.058 51.8433 252.544 51.7173 253.084 51.7173C253.456 51.7293 253.762 51.7833 254.002 51.8793V53.4993C253.834 53.4273 253.66 53.3793 253.48 53.3553C253.3 53.3193 253.12 53.3013 252.94 53.3013C252.412 53.3013 251.944 53.4453 251.536 53.7333C251.128 54.0093 250.804 54.4173 250.564 54.9573V61.0953H248.764ZM259.218 61.2573C258.342 61.2573 257.544 61.0473 256.824 60.6273C256.104 60.2073 255.534 59.6373 255.114 58.9173C254.706 58.1973 254.502 57.3933 254.502 56.5053C254.502 55.6173 254.712 54.8193 255.132 54.1113C255.552 53.3913 256.116 52.8213 256.824 52.4013C257.544 51.9693 258.342 51.7533 259.218 51.7533C259.914 51.7533 260.58 51.8853 261.216 52.1493C261.864 52.4133 262.422 52.7853 262.89 53.2653L261.774 54.5073C261.426 54.1233 261.036 53.8353 260.604 53.6433C260.172 53.4513 259.722 53.3553 259.254 53.3553C258.702 53.3553 258.198 53.4933 257.742 53.7693C257.298 54.0453 256.944 54.4233 256.68 54.9033C256.416 55.3833 256.284 55.9173 256.284 56.5053C256.284 57.0933 256.416 57.6273 256.68 58.1073C256.944 58.5873 257.304 58.9713 257.76 59.2593C258.216 59.5353 258.726 59.6733 259.29 59.6733C259.758 59.6733 260.196 59.5833 260.604 59.4033C261.012 59.2113 261.396 58.9353 261.756 58.5753L262.854 59.7273C262.374 60.2193 261.816 60.5973 261.18 60.8613C260.556 61.1253 259.902 61.2573 259.218 61.2573ZM268.432 61.2573C267.532 61.2573 266.716 61.0473 265.984 60.6273C265.264 60.2073 264.688 59.6373 264.256 58.9173C263.836 58.1973 263.626 57.3933 263.626 56.5053C263.626 55.6293 263.83 54.8373 264.238 54.1293C264.646 53.4093 265.198 52.8393 265.894 52.4193C266.59 51.9873 267.364 51.7713 268.216 51.7713C269.068 51.7713 269.824 51.9873 270.484 52.4193C271.144 52.8393 271.666 53.4153 272.05 54.1473C272.446 54.8673 272.644 55.6833 272.644 56.5953V57.0993H265.426C265.522 57.6033 265.708 58.0533 265.984 58.4493C266.272 58.8453 266.632 59.1573 267.064 59.3853C267.508 59.6133 267.988 59.7273 268.504 59.7273C268.948 59.7273 269.374 59.6613 269.782 59.5293C270.202 59.3853 270.55 59.1813 270.826 58.9173L271.978 60.0513C271.438 60.4593 270.88 60.7653 270.304 60.9693C269.74 61.1613 269.116 61.2573 268.432 61.2573ZM265.444 55.7493H270.862C270.79 55.2693 270.622 54.8493 270.358 54.4893C270.106 54.1173 269.788 53.8293 269.404 53.6253C269.032 53.4093 268.624 53.3013 268.18 53.3013C267.724 53.3013 267.304 53.4033 266.92 53.6073C266.536 53.8113 266.212 54.0993 265.948 54.4713C265.696 54.8313 265.528 55.2573 265.444 55.7493ZM277.596 61.2753C276.804 61.2753 276.06 61.1613 275.364 60.9333C274.68 60.6933 274.086 60.3573 273.582 59.9253L274.572 58.7373C275.04 59.1093 275.52 59.3973 276.012 59.6013C276.516 59.7933 277.026 59.8893 277.542 59.8893C278.19 59.8893 278.718 59.7633 279.126 59.5113C279.534 59.2593 279.738 58.9293 279.738 58.5213C279.738 58.1853 279.618 57.9213 279.378 57.7293C279.138 57.5373 278.766 57.4053 278.262 57.3333L276.606 57.0993C275.694 56.9673 275.01 56.6853 274.554 56.2533C274.098 55.8213 273.87 55.2453 273.87 54.5253C273.87 53.9733 274.02 53.4933 274.32 53.0853C274.62 52.6653 275.04 52.3413 275.58 52.1133C276.12 51.8733 276.75 51.7533 277.47 51.7533C278.13 51.7533 278.766 51.8493 279.378 52.0413C279.99 52.2333 280.578 52.5333 281.142 52.9413L280.224 54.1293C279.72 53.7933 279.228 53.5473 278.748 53.3913C278.28 53.2353 277.806 53.1573 277.326 53.1573C276.774 53.1573 276.33 53.2773 275.994 53.5173C275.658 53.7453 275.49 54.0453 275.49 54.4173C275.49 54.7533 275.604 55.0173 275.832 55.2093C276.072 55.3893 276.462 55.5153 277.002 55.5873L278.658 55.8213C279.57 55.9533 280.26 56.2353 280.728 56.6673C281.196 57.0873 281.43 57.6573 281.43 58.3773C281.43 58.9293 281.262 59.4273 280.926 59.8713C280.59 60.3033 280.134 60.6453 279.558 60.8973C278.982 61.1493 278.328 61.2753 277.596 61.2753ZM32.2936 85.2573C31.4056 85.2573 30.7276 85.0533 30.2596 84.6453C29.7916 84.2253 29.5576 83.6193 29.5576 82.8273V77.4453H27.6136V75.9333H29.5576V73.5933L31.3396 73.1613V75.9333H34.0396V77.4453H31.3396V82.4133C31.3396 82.8813 31.4416 83.2173 31.6456 83.4213C31.8616 83.6133 32.2096 83.7093 32.6896 83.7093C32.9416 83.7093 33.1636 83.6913 33.3556 83.6553C33.5596 83.6193 33.7756 83.5653 34.0036 83.4933V85.0053C33.7636 85.0893 33.4816 85.1493 33.1576 85.1853C32.8456 85.2333 32.5576 85.2573 32.2936 85.2573ZM39.5811 85.2753C38.6931 85.2753 37.8831 85.0653 37.1511 84.6453C36.4311 84.2253 35.8611 83.6553 35.4411 82.9353C35.0211 82.2153 34.8111 81.4113 34.8111 80.5233C34.8111 79.6353 35.0211 78.8313 35.4411 78.1113C35.8611 77.3913 36.4311 76.8213 37.1511 76.4013C37.8831 75.9693 38.6931 75.7533 39.5811 75.7533C40.4811 75.7533 41.2911 75.9693 42.0111 76.4013C42.7311 76.8213 43.3011 77.3913 43.7211 78.1113C44.1411 78.8313 44.3511 79.6353 44.3511 80.5233C44.3511 81.4113 44.1411 82.2153 43.7211 82.9353C43.3011 83.6553 42.7311 84.2253 42.0111 84.6453C41.2911 85.0653 40.4811 85.2753 39.5811 85.2753ZM39.5811 83.6913C40.1451 83.6913 40.6551 83.5533 41.1111 83.2773C41.5671 82.9893 41.9271 82.6053 42.1911 82.1253C42.4551 81.6453 42.5871 81.1053 42.5871 80.5053C42.5871 79.9173 42.4491 79.3893 42.1731 78.9213C41.9091 78.4413 41.5491 78.0573 41.0931 77.7693C40.6491 77.4813 40.1451 77.3373 39.5811 77.3373C39.0171 77.3373 38.5071 77.4813 38.0511 77.7693C37.6071 78.0573 37.2471 78.4413 36.9711 78.9213C36.7071 79.3893 36.5751 79.9173 36.5751 80.5053C36.5751 81.1053 36.7071 81.6453 36.9711 82.1253C37.2351 82.6053 37.5951 82.9893 38.0511 83.2773C38.5071 83.5533 39.0171 83.6913 39.5811 83.6913ZM52.9649 85.2753C52.1729 85.2753 51.4289 85.1613 50.7329 84.9333C50.0489 84.6933 49.4549 84.3573 48.9509 83.9253L49.9409 82.7373C50.4089 83.1093 50.8889 83.3973 51.3809 83.6013C51.8849 83.7933 52.3949 83.8893 52.9109 83.8893C53.5589 83.8893 54.0869 83.7633 54.4949 83.5113C54.9029 83.2593 55.1069 82.9293 55.1069 82.5213C55.1069 82.1853 54.9869 81.9213 54.7469 81.7293C54.5069 81.5373 54.1349 81.4053 53.6309 81.3333L51.9749 81.0993C51.0629 80.9673 50.3789 80.6853 49.9229 80.2533C49.4669 79.8213 49.2389 79.2453 49.2389 78.5253C49.2389 77.9733 49.3889 77.4933 49.6889 77.0853C49.9889 76.6653 50.4089 76.3413 50.9489 76.1133C51.4889 75.8733 52.1189 75.7533 52.8389 75.7533C53.4989 75.7533 54.1349 75.8493 54.7469 76.0413C55.3589 76.2333 55.9469 76.5333 56.5109 76.9413L55.5929 78.1293C55.0889 77.7933 54.5969 77.5473 54.1169 77.3913C53.6489 77.2353 53.1749 77.1573 52.6949 77.1573C52.1429 77.1573 51.6989 77.2773 51.3629 77.5173C51.0269 77.7453 50.8589 78.0453 50.8589 78.4173C50.8589 78.7533 50.9729 79.0173 51.2009 79.2093C51.4409 79.3893 51.8309 79.5153 52.3709 79.5873L54.0269 79.8213C54.9389 79.9533 55.6289 80.2353 56.0969 80.6673C56.5649 81.0873 56.7989 81.6573 56.7989 82.3773C56.7989 82.9293 56.6309 83.4273 56.2949 83.8713C55.9589 84.3033 55.5029 84.6453 54.9269 84.8973C54.3509 85.1493 53.6969 85.2753 52.9649 85.2753ZM62.662 85.2573C61.762 85.2573 60.946 85.0473 60.214 84.6273C59.494 84.2073 58.918 83.6373 58.486 82.9173C58.066 82.1973 57.856 81.3933 57.856 80.5053C57.856 79.6293 58.06 78.8373 58.468 78.1293C58.876 77.4093 59.428 76.8393 60.124 76.4193C60.82 75.9873 61.594 75.7713 62.446 75.7713C63.298 75.7713 64.054 75.9873 64.714 76.4193C65.374 76.8393 65.896 77.4153 66.28 78.1473C66.676 78.8673 66.874 79.6833 66.874 80.5953V81.0993H59.656C59.752 81.6033 59.938 82.0533 60.214 82.4493C60.502 82.8453 60.862 83.1573 61.294 83.3853C61.738 83.6133 62.218 83.7273 62.734 83.7273C63.178 83.7273 63.604 83.6613 64.012 83.5293C64.432 83.3853 64.78 83.1813 65.056 82.9173L66.208 84.0513C65.668 84.4593 65.11 84.7653 64.534 84.9693C63.97 85.1613 63.346 85.2573 62.662 85.2573ZM59.674 79.7493H65.092C65.02 79.2693 64.852 78.8493 64.588 78.4893C64.336 78.1173 64.018 77.8293 63.634 77.6253C63.262 77.4093 62.854 77.3013 62.41 77.3013C61.954 77.3013 61.534 77.4033 61.15 77.6073C60.766 77.8113 60.442 78.0993 60.178 78.4713C59.926 78.8313 59.758 79.2573 59.674 79.7493ZM72.2487 85.2573C71.3607 85.2573 70.6827 85.0533 70.2147 84.6453C69.7467 84.2253 69.5127 83.6193 69.5127 82.8273V77.4453H67.5687V75.9333H69.5127V73.5933L71.2947 73.1613V75.9333H73.9947V77.4453H71.2947V82.4133C71.2947 82.8813 71.3967 83.2173 71.6007 83.4213C71.8167 83.6133 72.1647 83.7093 72.6447 83.7093C72.8967 83.7093 73.1187 83.6913 73.3107 83.6553C73.5147 83.6193 73.7307 83.5653 73.9587 83.4933V85.0053C73.7187 85.0893 73.4367 85.1493 73.1127 85.1853C72.8007 85.2333 72.5127 85.2573 72.2487 85.2573ZM79.6945 88.9653C79.5025 88.9653 79.3225 88.9533 79.1545 88.9293C78.9865 88.9173 78.8485 88.8933 78.7405 88.8573V87.2733C78.9565 87.3213 79.2205 87.3453 79.5325 87.3453C80.3725 87.3453 80.9785 86.8953 81.3505 85.9953L81.7465 85.1133L78.0745 75.9333H80.0725L82.7365 82.9173L85.6885 75.9333H87.6325L83.2045 86.2293C82.9165 86.8773 82.6105 87.3993 82.2865 87.7953C81.9625 88.2033 81.5905 88.4973 81.1705 88.6773C80.7505 88.8693 80.2585 88.9653 79.6945 88.9653ZM92.8428 85.2753C91.9548 85.2753 91.1448 85.0653 90.4128 84.6453C89.6928 84.2253 89.1228 83.6553 88.7028 82.9353C88.2828 82.2153 88.0728 81.4113 88.0728 80.5233C88.0728 79.6353 88.2828 78.8313 88.7028 78.1113C89.1228 77.3913 89.6928 76.8213 90.4128 76.4013C91.1448 75.9693 91.9548 75.7533 92.8428 75.7533C93.7428 75.7533 94.5528 75.9693 95.2728 76.4013C95.9928 76.8213 96.5628 77.3913 96.9828 78.1113C97.4028 78.8313 97.6128 79.6353 97.6128 80.5233C97.6128 81.4113 97.4028 82.2153 96.9828 82.9353C96.5628 83.6553 95.9928 84.2253 95.2728 84.6453C94.5528 85.0653 93.7428 85.2753 92.8428 85.2753ZM92.8428 83.6913C93.4068 83.6913 93.9168 83.5533 94.3728 83.2773C94.8288 82.9893 95.1888 82.6053 95.4528 82.1253C95.7168 81.6453 95.8488 81.1053 95.8488 80.5053C95.8488 79.9173 95.7108 79.3893 95.4348 78.9213C95.1708 78.4413 94.8108 78.0573 94.3548 77.7693C93.9108 77.4813 93.4068 77.3373 92.8428 77.3373C92.2788 77.3373 91.7688 77.4813 91.3128 77.7693C90.8688 78.0573 90.5088 78.4413 90.2328 78.9213C89.9688 79.3893 89.8368 79.9173 89.8368 80.5053C89.8368 81.1053 89.9688 81.6453 90.2328 82.1253C90.4968 82.6053 90.8568 82.9893 91.3128 83.2773C91.7688 83.5533 92.2788 83.6913 92.8428 83.6913ZM102.861 85.2753C102.153 85.2753 101.529 85.1253 100.989 84.8253C100.449 84.5253 100.029 84.1053 99.7289 83.5653C99.4289 83.0133 99.2789 82.3833 99.2789 81.6753V75.9333H101.061V81.3693C101.061 82.0893 101.265 82.6593 101.673 83.0793C102.093 83.4993 102.651 83.7093 103.347 83.7093C103.839 83.7093 104.277 83.6073 104.661 83.4033C105.045 83.1873 105.357 82.8873 105.597 82.5033V75.9333H107.397V85.0953H105.597V84.1593C104.889 84.9033 103.977 85.2753 102.861 85.2753ZM116.836 85.2753C116.128 85.2753 115.504 85.1253 114.964 84.8253C114.424 84.5253 114.004 84.1053 113.704 83.5653C113.404 83.0133 113.254 82.3833 113.254 81.6753V75.9333H115.036V81.3693C115.036 82.0893 115.24 82.6593 115.648 83.0793C116.068 83.4993 116.626 83.7093 117.322 83.7093C117.814 83.7093 118.252 83.6073 118.636 83.4033C119.02 83.1873 119.332 82.8873 119.572 82.5033V75.9333H121.372V85.0953H119.572V84.1593C118.864 84.9033 117.952 85.2753 116.836 85.2753ZM123.502 88.7673V75.9333H125.284V76.8153C126.052 76.1313 126.988 75.7893 128.092 75.7893C128.956 75.7893 129.736 75.9993 130.432 76.4193C131.14 76.8393 131.698 77.4033 132.106 78.1113C132.514 78.8193 132.718 79.6173 132.718 80.5053C132.718 81.3933 132.508 82.1973 132.088 82.9173C131.68 83.6253 131.122 84.1893 130.414 84.6093C129.718 85.0293 128.932 85.2393 128.056 85.2393C127.552 85.2393 127.066 85.1613 126.598 85.0053C126.13 84.8373 125.698 84.6033 125.302 84.3033V88.7673H123.502ZM127.858 83.6733C128.446 83.6733 128.968 83.5353 129.424 83.2593C129.892 82.9833 130.264 82.6113 130.54 82.1433C130.816 81.6633 130.954 81.1233 130.954 80.5233C130.954 79.9233 130.816 79.3833 130.54 78.9033C130.264 78.4233 129.892 78.0453 129.424 77.7693C128.968 77.4933 128.446 77.3553 127.858 77.3553C127.342 77.3553 126.862 77.4513 126.418 77.6433C125.974 77.8353 125.602 78.1053 125.302 78.4533V82.5933C125.602 82.9293 125.974 83.1933 126.418 83.3853C126.874 83.5773 127.354 83.6733 127.858 83.6733ZM139.566 85.0953V77.4453H137.442V75.9333H139.566V74.5473C139.566 73.5873 139.83 72.8553 140.358 72.3513C140.898 71.8473 141.666 71.5953 142.662 71.5953C142.914 71.5953 143.148 71.6133 143.364 71.6493C143.592 71.6733 143.796 71.7153 143.976 71.7753V73.3233C143.76 73.2633 143.568 73.2213 143.4 73.1973C143.232 73.1613 143.046 73.1433 142.842 73.1433C142.338 73.1433 141.96 73.2633 141.708 73.5033C141.468 73.7313 141.348 74.0973 141.348 74.6013V75.9333H143.976V77.4453H141.348V85.0953H139.566ZM149.286 85.2753C148.398 85.2753 147.588 85.0653 146.856 84.6453C146.136 84.2253 145.566 83.6553 145.146 82.9353C144.726 82.2153 144.516 81.4113 144.516 80.5233C144.516 79.6353 144.726 78.8313 145.146 78.1113C145.566 77.3913 146.136 76.8213 146.856 76.4013C147.588 75.9693 148.398 75.7533 149.286 75.7533C150.186 75.7533 150.996 75.9693 151.716 76.4013C152.436 76.8213 153.006 77.3913 153.426 78.1113C153.846 78.8313 154.056 79.6353 154.056 80.5233C154.056 81.4113 153.846 82.2153 153.426 82.9353C153.006 83.6553 152.436 84.2253 151.716 84.6453C150.996 85.0653 150.186 85.2753 149.286 85.2753ZM149.286 83.6913C149.85 83.6913 150.36 83.5533 150.816 83.2773C151.272 82.9893 151.632 82.6053 151.896 82.1253C152.16 81.6453 152.292 81.1053 152.292 80.5053C152.292 79.9173 152.154 79.3893 151.878 78.9213C151.614 78.4413 151.254 78.0573 150.798 77.7693C150.354 77.4813 149.85 77.3373 149.286 77.3373C148.722 77.3373 148.212 77.4813 147.756 77.7693C147.312 78.0573 146.952 78.4413 146.676 78.9213C146.412 79.3893 146.28 79.9173 146.28 80.5053C146.28 81.1053 146.412 81.6453 146.676 82.1253C146.94 82.6053 147.3 82.9893 147.756 83.2773C148.212 83.5533 148.722 83.6913 149.286 83.6913ZM155.758 85.0953V75.9333H157.558V77.1033C157.846 76.6713 158.2 76.3353 158.62 76.0953C159.052 75.8433 159.538 75.7173 160.078 75.7173C160.45 75.7293 160.756 75.7833 160.996 75.8793V77.4993C160.828 77.4273 160.654 77.3793 160.474 77.3553C160.294 77.3193 160.114 77.3013 159.934 77.3013C159.406 77.3013 158.938 77.4453 158.53 77.7333C158.122 78.0093 157.798 78.4173 157.558 78.9573V85.0953H155.758ZM169.35 85.2753C168.558 85.2753 167.814 85.1613 167.118 84.9333C166.434 84.6933 165.84 84.3573 165.336 83.9253L166.326 82.7373C166.794 83.1093 167.274 83.3973 167.766 83.6013C168.27 83.7933 168.78 83.8893 169.296 83.8893C169.944 83.8893 170.472 83.7633 170.88 83.5113C171.288 83.2593 171.492 82.9293 171.492 82.5213C171.492 82.1853 171.372 81.9213 171.132 81.7293C170.892 81.5373 170.52 81.4053 170.016 81.3333L168.36 81.0993C167.448 80.9673 166.764 80.6853 166.308 80.2533C165.852 79.8213 165.624 79.2453 165.624 78.5253C165.624 77.9733 165.774 77.4933 166.074 77.0853C166.374 76.6653 166.794 76.3413 167.334 76.1133C167.874 75.8733 168.504 75.7533 169.224 75.7533C169.884 75.7533 170.52 75.8493 171.132 76.0413C171.744 76.2333 172.332 76.5333 172.896 76.9413L171.978 78.1293C171.474 77.7933 170.982 77.5473 170.502 77.3913C170.034 77.2353 169.56 77.1573 169.08 77.1573C168.528 77.1573 168.084 77.2773 167.748 77.5173C167.412 77.7453 167.244 78.0453 167.244 78.4173C167.244 78.7533 167.358 79.0173 167.586 79.2093C167.826 79.3893 168.216 79.5153 168.756 79.5873L170.412 79.8213C171.324 79.9533 172.014 80.2353 172.482 80.6673C172.95 81.0873 173.184 81.6573 173.184 82.3773C173.184 82.9293 173.016 83.4273 172.68 83.8713C172.344 84.3033 171.888 84.6453 171.312 84.8973C170.736 85.1493 170.082 85.2753 169.35 85.2753ZM178.113 85.2753C177.405 85.2753 176.781 85.1253 176.241 84.8253C175.701 84.5253 175.281 84.1053 174.981 83.5653C174.681 83.0133 174.531 82.3833 174.531 81.6753V75.9333H176.313V81.3693C176.313 82.0893 176.517 82.6593 176.925 83.0793C177.345 83.4993 177.903 83.7093 178.599 83.7093C179.091 83.7093 179.529 83.6073 179.913 83.4033C180.297 83.1873 180.609 82.8873 180.849 82.5033V75.9333H182.649V85.0953H180.849V84.1593C180.141 84.9033 179.229 85.2753 178.113 85.2753ZM189.082 85.2573C188.206 85.2573 187.408 85.0473 186.688 84.6273C185.968 84.2073 185.398 83.6373 184.978 82.9173C184.57 82.1973 184.366 81.3933 184.366 80.5053C184.366 79.6173 184.576 78.8193 184.996 78.1113C185.416 77.3913 185.98 76.8213 186.688 76.4013C187.408 75.9693 188.206 75.7533 189.082 75.7533C189.778 75.7533 190.444 75.8853 191.08 76.1493C191.728 76.4133 192.286 76.7853 192.754 77.2653L191.638 78.5073C191.29 78.1233 190.9 77.8353 190.468 77.6433C190.036 77.4513 189.586 77.3553 189.118 77.3553C188.566 77.3553 188.062 77.4933 187.606 77.7693C187.162 78.0453 186.808 78.4233 186.544 78.9033C186.28 79.3833 186.148 79.9173 186.148 80.5053C186.148 81.0933 186.28 81.6273 186.544 82.1073C186.808 82.5873 187.168 82.9713 187.624 83.2593C188.08 83.5353 188.59 83.6733 189.154 83.6733C189.622 83.6733 190.06 83.5833 190.468 83.4033C190.876 83.2113 191.26 82.9353 191.62 82.5753L192.718 83.7273C192.238 84.2193 191.68 84.5973 191.044 84.8613C190.42 85.1253 189.766 85.2573 189.082 85.2573ZM198.205 85.2573C197.329 85.2573 196.531 85.0473 195.811 84.6273C195.091 84.2073 194.521 83.6373 194.101 82.9173C193.693 82.1973 193.489 81.3933 193.489 80.5053C193.489 79.6173 193.699 78.8193 194.119 78.1113C194.539 77.3913 195.103 76.8213 195.811 76.4013C196.531 75.9693 197.329 75.7533 198.205 75.7533C198.901 75.7533 199.567 75.8853 200.203 76.1493C200.851 76.4133 201.409 76.7853 201.877 77.2653L200.761 78.5073C200.413 78.1233 200.023 77.8353 199.591 77.6433C199.159 77.4513 198.709 77.3553 198.241 77.3553C197.689 77.3553 197.185 77.4933 196.729 77.7693C196.285 78.0453 195.931 78.4233 195.667 78.9033C195.403 79.3833 195.271 79.9173 195.271 80.5053C195.271 81.0933 195.403 81.6273 195.667 82.1073C195.931 82.5873 196.291 82.9713 196.747 83.2593C197.203 83.5353 197.713 83.6733 198.277 83.6733C198.745 83.6733 199.183 83.5833 199.591 83.4033C199.999 83.2113 200.383 82.9353 200.743 82.5753L201.841 83.7273C201.361 84.2193 200.803 84.5973 200.167 84.8613C199.543 85.1253 198.889 85.2573 198.205 85.2573ZM207.418 85.2573C206.518 85.2573 205.702 85.0473 204.97 84.6273C204.25 84.2073 203.674 83.6373 203.242 82.9173C202.822 82.1973 202.612 81.3933 202.612 80.5053C202.612 79.6293 202.816 78.8373 203.224 78.1293C203.632 77.4093 204.184 76.8393 204.88 76.4193C205.576 75.9873 206.35 75.7713 207.202 75.7713C208.054 75.7713 208.81 75.9873 209.47 76.4193C210.13 76.8393 210.652 77.4153 211.036 78.1473C211.432 78.8673 211.63 79.6833 211.63 80.5953V81.0993H204.412C204.508 81.6033 204.694 82.0533 204.97 82.4493C205.258 82.8453 205.618 83.1573 206.05 83.3853C206.494 83.6133 206.974 83.7273 207.49 83.7273C207.934 83.7273 208.36 83.6613 208.768 83.5293C209.188 83.3853 209.536 83.1813 209.812 82.9173L210.964 84.0513C210.424 84.4593 209.866 84.7653 209.29 84.9693C208.726 85.1613 208.102 85.2573 207.418 85.2573ZM204.43 79.7493H209.848C209.776 79.2693 209.608 78.8493 209.344 78.4893C209.092 78.1173 208.774 77.8293 208.39 77.6253C208.018 77.4093 207.61 77.3013 207.166 77.3013C206.71 77.3013 206.29 77.4033 205.906 77.6073C205.522 77.8113 205.198 78.0993 204.934 78.4713C204.682 78.8313 204.514 79.2573 204.43 79.7493ZM216.582 85.2753C215.79 85.2753 215.046 85.1613 214.35 84.9333C213.666 84.6933 213.072 84.3573 212.568 83.9253L213.558 82.7373C214.026 83.1093 214.506 83.3973 214.998 83.6013C215.502 83.7933 216.012 83.8893 216.528 83.8893C217.176 83.8893 217.704 83.7633 218.112 83.5113C218.52 83.2593 218.724 82.9293 218.724 82.5213C218.724 82.1853 218.604 81.9213 218.364 81.7293C218.124 81.5373 217.752 81.4053 217.248 81.3333L215.592 81.0993C214.68 80.9673 213.996 80.6853 213.54 80.2533C213.084 79.8213 212.856 79.2453 212.856 78.5253C212.856 77.9733 213.006 77.4933 213.306 77.0853C213.606 76.6653 214.026 76.3413 214.566 76.1133C215.106 75.8733 215.736 75.7533 216.456 75.7533C217.116 75.7533 217.752 75.8493 218.364 76.0413C218.976 76.2333 219.564 76.5333 220.128 76.9413L219.21 78.1293C218.706 77.7933 218.214 77.5473 217.734 77.3913C217.266 77.2353 216.792 77.1573 216.312 77.1573C215.76 77.1573 215.316 77.2773 214.98 77.5173C214.644 77.7453 214.476 78.0453 214.476 78.4173C214.476 78.7533 214.59 79.0173 214.818 79.2093C215.058 79.3893 215.448 79.5153 215.988 79.5873L217.644 79.8213C218.556 79.9533 219.246 80.2353 219.714 80.6673C220.182 81.0873 220.416 81.6573 220.416 82.3773C220.416 82.9293 220.248 83.4273 219.912 83.8713C219.576 84.3033 219.12 84.6453 218.544 84.8973C217.968 85.1493 217.314 85.2753 216.582 85.2753ZM224.949 85.2753C224.157 85.2753 223.413 85.1613 222.717 84.9333C222.033 84.6933 221.439 84.3573 220.935 83.9253L221.925 82.7373C222.393 83.1093 222.873 83.3973 223.365 83.6013C223.869 83.7933 224.379 83.8893 224.895 83.8893C225.543 83.8893 226.071 83.7633 226.479 83.5113C226.887 83.2593 227.091 82.9293 227.091 82.5213C227.091 82.1853 226.971 81.9213 226.731 81.7293C226.491 81.5373 226.119 81.4053 225.615 81.3333L223.959 81.0993C223.047 80.9673 222.363 80.6853 221.907 80.2533C221.451 79.8213 221.223 79.2453 221.223 78.5253C221.223 77.9733 221.373 77.4933 221.673 77.0853C221.973 76.6653 222.393 76.3413 222.933 76.1133C223.473 75.8733 224.103 75.7533 224.823 75.7533C225.483 75.7533 226.119 75.8493 226.731 76.0413C227.343 76.2333 227.931 76.5333 228.495 76.9413L227.577 78.1293C227.073 77.7933 226.581 77.5473 226.101 77.3913C225.633 77.2353 225.159 77.1573 224.679 77.1573C224.127 77.1573 223.683 77.2773 223.347 77.5173C223.011 77.7453 222.843 78.0453 222.843 78.4173C222.843 78.7533 222.957 79.0173 223.185 79.2093C223.425 79.3893 223.815 79.5153 224.355 79.5873L226.011 79.8213C226.923 79.9533 227.613 80.2353 228.081 80.6673C228.549 81.0873 228.783 81.6573 228.783 82.3773C228.783 82.9293 228.615 83.4273 228.279 83.8713C227.943 84.3033 227.487 84.6453 226.911 84.8973C226.335 85.1493 225.681 85.2753 224.949 85.2753ZM230.328 81.4953L230.112 72.4053H231.966L231.75 81.4953H230.328ZM231.048 85.2213C230.736 85.2213 230.466 85.1133 230.238 84.8973C230.01 84.6693 229.896 84.3993 229.896 84.0873C229.896 83.7753 230.01 83.5113 230.238 83.2953C230.466 83.0673 230.736 82.9533 231.048 82.9533C231.36 82.9533 231.624 83.0673 231.84 83.2953C232.068 83.5113 232.182 83.7753 232.182 84.0873C232.182 84.3993 232.068 84.6693 231.84 84.8973C231.624 85.1133 231.36 85.2213 231.048 85.2213Z" fill="white"/>
<defs>
<filter id="filter0_d_58_226" x="268.698" y="0.357971" width="38.3018" height="39.5016" filterUnits="userSpaceOnUse" color-interpolation-filters="sRGB">
<feFlood flood-opacity="0" result="BackgroundImageFix"/>
<feColorMatrix in="SourceAlpha" type="matrix" values="0 0 0 0 0 0 0 0 0 0 0 0 0 0 0 0 0 0 127 0" result="hardAlpha"/>
<feOffset dy="1"/>
<feGaussianBlur stdDeviation="2"/>
<feComposite in2="hardAlpha" operator="out"/>
<feColorMatrix type="matrix" values="0 0 0 0 0 0 0 0 0 0 0 0 0 0 0 0 0 0 0.25 0"/>
<feBlend mode="normal" in2="BackgroundImageFix" result="effect1_dropShadow_58_226"/>
<feBlend mode="normal" in="SourceGraphic" in2="effect1_dropShadow_58_226" result="shape"/>
</filter>
</defs>
</svg>
