<svg width="21" height="17" viewBox="0 0 21 17" fill="none" xmlns="http://www.w3.org/2000/svg">
<g clip-path="url(#clip0_58_402)">
<path d="M16.8425 1.27246H3.23136C2.45782 1.27246 1.71595 1.56746 1.16897 2.09256C0.621988 2.61766 0.314697 3.32985 0.314697 4.07246V13.4058C0.314697 14.1484 0.621988 14.8606 1.16897 15.3857C1.71595 15.9108 2.45782 16.2058 3.23136 16.2058H16.8425C17.616 16.2058 18.3579 15.9108 18.9049 15.3857C19.4519 14.8606 19.7591 14.1484 19.7591 13.4058V4.07246C19.7591 3.32985 19.4519 2.61766 18.9049 2.09256C18.3579 1.56746 17.616 1.27246 16.8425 1.27246V1.27246ZM16.8425 3.13913L10.523 7.31113C10.3752 7.39304 10.2076 7.43617 10.0369 7.43617C9.86626 7.43617 9.6986 7.39304 9.55081 7.31113L3.23136 3.13913H16.8425Z" fill="white"/>
</g>
<defs>
<clipPath id="clip0_58_402">
<rect width="20" height="16" fill="white" transform="translate(0.0368652 0.739014)"/>
</clipPath>
</defs>
</svg>
