<svg width="22" height="23" viewBox="0 0 22 23" fill="none" xmlns="http://www.w3.org/2000/svg">
<path d="M10.9575 7.62991C9.02217 7.62991 7.44278 9.2678 7.44278 11.2748C7.44278 13.2819 9.02217 14.9198 10.9575 14.9198C12.8929 14.9198 14.4723 13.2819 14.4723 11.2748C14.4723 9.2678 12.8929 7.62991 10.9575 7.62991ZM21.4991 11.2748C21.4991 9.76546 21.5123 8.26976 21.4306 6.76312C21.3488 5.01312 20.9639 3.45999 19.7299 2.18031C18.4933 0.897883 16.9982 0.501399 15.3107 0.416634C13.8553 0.331868 12.413 0.34554 10.9602 0.34554C9.50469 0.34554 8.06241 0.331868 6.60957 0.416634C4.92207 0.501399 3.42442 0.900618 2.19043 2.18031C0.953812 3.46273 0.571487 5.01312 0.489749 6.76312C0.408011 8.27249 0.421194 9.7682 0.421194 11.2748C0.421194 12.7815 0.408011 14.2799 0.489749 15.7866C0.571487 17.5366 0.956449 19.0897 2.19043 20.3694C3.42705 21.6518 4.92207 22.0483 6.60957 22.133C8.06504 22.2178 9.50733 22.2041 10.9602 22.2041C12.4156 22.2041 13.8579 22.2178 15.3107 22.133C16.9982 22.0483 18.4959 21.6491 19.7299 20.3694C20.9665 19.0869 21.3488 17.5366 21.4306 15.7866C21.5149 14.2799 21.4991 12.7842 21.4991 11.2748V11.2748ZM10.9575 16.883C7.96485 16.883 5.54961 14.3784 5.54961 11.2748C5.54961 8.17132 7.96485 5.66663 10.9575 5.66663C13.9502 5.66663 16.3654 8.17132 16.3654 11.2748C16.3654 14.3784 13.9502 16.883 10.9575 16.883ZM16.5869 6.74671C15.8882 6.74671 15.3239 6.16155 15.3239 5.43695C15.3239 4.71234 15.8882 4.12718 16.5869 4.12718C17.2857 4.12718 17.8499 4.71234 17.8499 5.43695C17.8501 5.60901 17.8176 5.77942 17.7542 5.93843C17.6908 6.09743 17.5978 6.24191 17.4805 6.36357C17.3631 6.48524 17.2238 6.58171 17.0705 6.64745C16.9172 6.7132 16.7528 6.74693 16.5869 6.74671V6.74671Z" fill="#C996CC"/>
</svg>
