<svg width="19" height="19" viewBox="0 0 19 19" fill="none" xmlns="http://www.w3.org/2000/svg">
<g clip-path="url(#clip0_58_396)">
<path fill-rule="evenodd" clip-rule="evenodd" d="M0.786865 3.09432C0.786865 2.72872 0.9321 2.37809 1.19062 2.11958C1.44914 1.86106 1.79976 1.71582 2.16537 1.71582H15.9069C16.088 1.71553 16.2675 1.75097 16.435 1.82012C16.6024 1.88928 16.7546 1.99078 16.8828 2.11882C17.011 2.24687 17.1127 2.39894 17.182 2.56633C17.2513 2.73372 17.287 2.91314 17.2869 3.09432V16.8358C17.2871 17.017 17.2515 17.1965 17.1823 17.364C17.1131 17.5315 17.0115 17.6836 16.8834 17.8118C16.7553 17.94 16.6032 18.0416 16.4357 18.111C16.2683 18.1803 16.0888 18.2159 15.9076 18.2158H2.16537C1.98428 18.2158 1.80496 18.1801 1.63766 18.1108C1.47037 18.0415 1.31837 17.9399 1.19035 17.8118C1.06234 17.6837 0.960814 17.5317 0.891582 17.3643C0.82235 17.197 0.786767 17.0177 0.786865 16.8366V3.09432ZM7.31787 8.00682H9.55212V9.12882C9.87462 8.48382 10.6996 7.90332 11.9394 7.90332C14.3161 7.90332 14.8794 9.18807 14.8794 11.5453V15.9118H12.4741V12.0823C12.4741 10.7398 12.1516 9.98232 11.3326 9.98232C10.1964 9.98232 9.72387 10.7991 9.72387 12.0823V15.9118H7.31787V8.00682ZM3.19287 15.8091H5.59887V7.90332H3.19287V15.8083V15.8091ZM5.94312 5.32482C5.94765 5.53083 5.91099 5.73566 5.8353 5.92731C5.7596 6.11895 5.64638 6.29355 5.50229 6.44085C5.3582 6.58814 5.18614 6.70518 4.99621 6.78508C4.80627 6.86498 4.6023 6.90614 4.39624 6.90614C4.19019 6.90614 3.98621 6.86498 3.79627 6.78508C3.60634 6.70518 3.43428 6.58814 3.29019 6.44085C3.1461 6.29355 3.03289 6.11895 2.95719 5.92731C2.88149 5.73566 2.84483 5.53083 2.84937 5.32482C2.85827 4.92046 3.02515 4.53567 3.31428 4.25284C3.6034 3.97001 3.99178 3.81164 4.39624 3.81164C4.8007 3.81164 5.18908 3.97001 5.4782 4.25284C5.76733 4.53567 5.93421 4.92046 5.94312 5.32482V5.32482Z" fill="white"/>
</g>
<defs>
<clipPath id="clip0_58_396">
<rect width="18" height="18" fill="white" transform="translate(0.0368652 0.739014)"/>
</clipPath>
</defs>
</svg>
