<svg width="192" height="176" viewBox="0 0 192 176" fill="none" xmlns="http://www.w3.org/2000/svg">
<g clip-path="url(#clip0_2_44)">
<path d="M7.95239 110.405H27.4782L27.4782 171.163H7.95239V110.405Z" stroke="#1C0C5B" stroke-width="4"/>
<path d="M78.0642 125.742L84.2129 127.701C84.2137 127.702 84.2145 127.702 84.2153 127.702C95.0728 131.192 106.37 133.075 117.721 133.352C117.722 133.352 117.722 133.352 117.723 133.352L136.508 133.842L137.235 133.861L137.805 133.409L155.286 119.521L155.286 119.52C164.013 112.585 176.029 111.846 185.45 117.456L140.809 158.843L86.5128 164.472L28.9361 158.523V120.634L52.8792 102.417H119.079C124.455 102.417 128.787 106.75 128.787 112.126C128.787 117.504 124.455 121.836 119.079 121.836H78.6715L78.0642 125.742Z" stroke="#1C0C5B" stroke-width="4"/>
<path d="M96.5514 71.9158C96.3878 72.0191 96.2363 72.114 96.0978 72.2004C95.9593 72.114 95.8079 72.0191 95.6442 71.9158C94.6932 71.3156 93.33 70.4351 91.6923 69.3205C88.4132 67.0887 84.0509 63.93 79.6979 60.2127C75.3351 56.487 71.0388 52.2486 67.8483 47.8647C64.6343 43.4487 62.7003 39.1007 62.7003 35.114C62.7003 30.7217 64.1155 26.2808 66.7997 22.9766C69.4474 19.7176 73.3666 17.5067 78.6167 17.5067C83.9241 17.5067 87.8501 19.7223 90.4879 21.9817C91.8091 23.1134 92.7936 24.2461 93.4437 25.0903C93.7678 25.5113 94.0063 25.8571 94.1595 26.0905C94.2361 26.2071 94.2911 26.2953 94.3248 26.3504C94.3416 26.3779 94.353 26.3971 94.3591 26.4074L94.3613 26.411L94.3621 26.4124L94.3628 26.4136L94.3638 26.4153L94.3642 26.4161L96.0895 29.4357L97.8273 26.4232L97.8278 26.4225L97.8287 26.4208L97.8294 26.4196L97.8302 26.4182L97.8326 26.4144C97.8388 26.404 97.8504 26.3846 97.8674 26.357C97.9015 26.3017 97.9572 26.2133 98.0345 26.0965C98.1892 25.8627 98.4297 25.5163 98.7562 25.0949C99.4109 24.2497 100.401 23.1159 101.727 21.9833C104.374 19.721 108.301 17.5067 113.579 17.5067C118.829 17.5067 122.748 19.7176 125.396 22.9766C128.08 26.2808 129.495 30.7217 129.495 35.114C129.495 39.1007 127.561 43.4487 124.347 47.8647C121.157 52.2486 116.861 56.487 112.498 60.2127C108.145 63.93 103.783 67.0887 100.503 69.3205C98.8656 70.4351 97.5025 71.3156 96.5514 71.9158Z" fill="#C996CC" stroke="#1C0C5B" stroke-width="4"/>
<path d="M42.8919 40.6149H33.1444C32.2181 40.6149 31.5103 39.9068 31.5103 38.981C31.5103 38.0552 32.2181 37.3471 33.1444 37.3471H42.8919C43.8182 37.3471 44.526 38.0552 44.526 38.981C44.526 39.9068 43.8182 40.6149 42.8919 40.6149Z" fill="#1C0C5B"/>
<path d="M48.3924 77.4327C47.9571 77.4327 47.5758 77.269 47.2493 76.9424C46.5955 76.2892 46.5955 75.2545 47.2493 74.6553L54.1106 67.7924C54.7644 67.1392 55.7987 67.1392 56.3977 67.7924C57.0515 68.4464 57.0515 69.4811 56.3977 70.0803L49.5364 76.9424C49.2639 77.269 48.8286 77.4327 48.3924 77.4327Z" fill="#1C0C5B"/>
<path d="M55.3086 10.714C54.8733 10.714 54.4919 10.5502 54.1655 10.2236L47.2493 3.3607C46.5955 2.70748 46.5955 1.67281 47.2493 1.07361C47.9023 0.419555 48.9374 0.419555 49.5364 1.07361L56.3977 7.93571C57.0515 8.58977 57.0515 9.62444 56.3977 10.2236C56.1252 10.5502 55.6899 10.714 55.3086 10.714Z" fill="#1C0C5B"/>
<path d="M158.997 40.6149H149.249C148.323 40.6149 147.616 39.9068 147.616 38.981C147.616 38.0552 148.323 37.3471 149.249 37.3471H158.997C159.923 37.3471 160.63 38.0552 160.63 38.981C160.63 39.9068 159.923 40.6149 158.997 40.6149Z" fill="#1C0C5B"/>
<path d="M136.887 10.714C136.452 10.714 136.07 10.5502 135.743 10.2236C135.09 9.56958 135.09 8.53491 135.743 7.93571L142.605 1.07361C143.258 0.419555 144.293 0.419555 144.892 1.07361C145.546 1.72682 145.546 2.76234 144.892 3.3607L138.03 10.2236C137.704 10.5502 137.268 10.714 136.887 10.714Z" fill="#1C0C5B"/>
<path d="M143.748 77.4327C143.313 77.4327 142.932 77.269 142.605 76.9424L135.743 70.0803C135.09 69.4262 135.09 68.3916 135.743 67.7924C136.397 67.1392 137.431 67.1392 138.03 67.7924L144.892 74.6553C145.546 75.3085 145.546 76.3432 144.892 76.9424C144.62 77.269 144.184 77.4327 143.748 77.4327Z" fill="#1C0C5B"/>
</g>
<defs>
<clipPath id="clip0_2_44">
<rect width="191" height="175" fill="white" transform="translate(0.548889 0.19928)"/>
</clipPath>
</defs>
</svg>
