<svg width="151" height="147" viewBox="0 0 151 147" fill="none" xmlns="http://www.w3.org/2000/svg">
<g clip-path="url(#clip0_58_285)">
<path d="M141.648 40.7237C140.243 38.1924 138.685 35.7493 136.982 33.4082C135.789 31.7658 134.528 30.1781 133.2 28.6453H133.196C130.792 25.8704 128.178 23.2848 125.376 20.9113C124.803 20.4247 124.222 19.9481 123.633 19.4815C118.317 15.2558 112.422 11.814 106.128 9.26111L106.184 18.4512L106.786 123.213H54.5846L51.6488 18.6489L51.8675 9.60554C26.2748 20.3607 8.30495 45.6479 8.30495 75.1305C8.30019 81.2159 9.07717 87.2767 10.6169 93.1643C11.2672 95.6532 12.0546 98.1042 12.9753 100.506C13.3077 101.378 13.6584 102.242 14.0274 103.099C14.2052 103.516 14.3864 103.929 14.5742 104.341C14.8152 104.879 15.0662 105.415 15.3238 105.945C15.5232 106.362 15.7282 106.776 15.9387 107.187C16.2097 107.727 16.4894 108.262 16.7781 108.793C17.0008 109.21 17.2302 109.624 17.4628 110.036C21.2168 116.67 26.0105 122.661 31.6617 127.78C33.2722 129.24 34.9481 130.624 36.6894 131.932C49.01 141.183 64.0044 146.184 79.4157 146.184C94.827 146.184 109.821 141.183 122.142 131.932C123.089 131.221 124.017 130.487 124.926 129.728C125.529 129.227 126.123 128.716 126.706 128.196C126.86 128.058 127.015 127.92 127.168 127.78C132.378 123.061 136.862 117.599 140.474 111.57C141.801 109.36 143.004 107.078 144.078 104.735C144.362 104.117 144.637 103.493 144.904 102.865C146.13 99.9813 147.162 97.0192 147.992 93.998C148.12 93.5313 148.243 93.063 148.362 92.593V92.5914C148.382 92.51 148.404 92.427 148.424 92.3456C148.547 91.8507 148.665 91.3525 148.778 90.8542V90.8526C149.144 89.2467 149.452 87.6214 149.704 85.9767C149.735 85.7658 149.767 85.5549 149.797 85.344C149.808 85.2676 149.82 85.1912 149.828 85.1148V85.1131C150.008 83.8427 150.154 82.5628 150.265 81.2736C150.438 79.2491 150.525 77.2015 150.526 75.1305C150.545 63.0935 147.489 51.2509 141.648 40.7237V40.7237Z" fill="#F2F2F2"/>
<path d="M134.664 118.022C138.873 112.339 140.492 104.335 137.218 98.068C134.147 105.117 128.68 110.854 121.784 114.263C119.12 115.568 116.02 116.743 114.787 119.44C114.02 121.118 114.166 123.099 114.783 124.838C115.4 126.577 116.449 128.124 117.487 129.649L117.542 130.107C124.077 127.399 130.455 123.704 134.664 118.022Z" fill="#E6E6E6"/>
<path d="M137.078 98.1183C136.889 103.967 134.861 109.607 131.282 114.239C130.529 115.249 129.621 116.135 128.592 116.863C127.567 117.54 126.379 117.931 125.152 117.994C124.009 118.076 122.83 118.027 121.727 118.385C121.165 118.577 120.649 118.885 120.215 119.29C119.78 119.694 119.436 120.186 119.206 120.733C118.595 122.08 118.505 123.566 118.467 125.023C118.426 126.64 118.408 128.321 117.645 129.791C117.552 129.969 117.834 130.102 117.927 129.924C119.255 127.366 118.392 124.375 119.184 121.686C119.553 120.432 120.303 119.281 121.557 118.778C122.653 118.338 123.869 118.387 125.027 118.315C126.225 118.271 127.394 117.934 128.432 117.334C129.495 116.661 130.435 115.811 131.213 114.823C132.999 112.624 134.428 110.159 135.447 107.518C136.628 104.509 137.284 101.321 137.389 98.0912C137.395 97.8913 137.084 97.9197 137.078 98.1183V98.1183Z" fill="white"/>
<path d="M132.522 112.815C133.382 113.31 134.389 113.483 135.364 113.304C136.339 113.125 137.219 112.606 137.847 111.839C137.973 111.683 137.737 111.479 137.61 111.635C137.027 112.351 136.208 112.835 135.299 112.999C134.391 113.164 133.453 112.999 132.656 112.534C132.482 112.433 132.35 112.715 132.522 112.815Z" fill="white"/>
<path d="M125.737 118.029C125.193 116.078 125.405 113.993 126.331 112.192C126.423 112.013 126.141 111.88 126.049 112.058C125.089 113.935 124.873 116.105 125.443 118.134C125.498 118.327 125.791 118.221 125.737 118.029H125.737Z" fill="white"/>
<path d="M136.214 104.524C135.842 104.401 135.506 104.189 135.236 103.905C134.966 103.621 134.771 103.274 134.669 102.896C134.617 102.702 134.324 102.808 134.375 103.001C134.491 103.418 134.706 103.801 135.004 104.115C135.301 104.43 135.671 104.666 136.081 104.805C136.119 104.821 136.161 104.823 136.2 104.809C136.238 104.795 136.27 104.767 136.289 104.731C136.306 104.694 136.308 104.651 136.294 104.612C136.28 104.573 136.252 104.541 136.214 104.524V104.524Z" fill="white"/>
<path d="M113.788 93.0807C113.817 93.2027 113.846 93.3247 113.874 93.4488C114.256 95.0915 114.503 96.7624 114.614 98.4452C114.625 98.5752 114.634 98.707 114.641 98.837C114.865 102.894 114.334 106.957 113.074 110.821C112.571 112.357 111.952 113.854 111.222 115.297C110.213 117.289 108.961 119.37 108.679 121.516C108.647 121.739 108.629 121.965 108.625 122.19L116.979 130.138C117.007 130.147 117.033 130.157 117.062 130.166L117.381 130.498C117.424 130.427 117.466 130.351 117.509 130.279C117.534 130.238 117.557 130.195 117.583 130.153C117.599 130.125 117.615 130.096 117.631 130.072C117.636 130.062 117.641 130.053 117.645 130.045C117.661 130.021 117.674 129.996 117.688 129.974C117.929 129.553 118.167 129.13 118.403 128.704C118.405 128.702 118.405 128.702 118.405 128.699C120.194 125.452 121.728 122.027 122.692 118.479C122.721 118.372 122.752 118.263 122.777 118.153C123.203 116.551 123.497 114.917 123.657 113.267C123.741 112.364 123.78 111.456 123.773 110.549C123.749 108.204 123.356 105.877 122.609 103.654C121.119 99.2231 118.227 95.3173 114.105 93.2366C113.999 93.1834 113.896 93.1319 113.788 93.0807Z" fill="#E6E6E6"/>
<path d="M113.706 93.2044C117.08 97.9876 118.859 103.711 118.792 109.563C118.799 110.822 118.608 112.076 118.226 113.276C117.815 114.434 117.102 115.46 116.16 116.249C115.296 117.002 114.326 117.672 113.661 118.622C113.328 119.113 113.102 119.669 112.999 120.253C112.896 120.838 112.917 121.437 113.062 122.013C113.386 123.456 114.21 124.697 115.058 125.882C115.999 127.199 116.998 128.551 117.274 130.184C117.307 130.382 117.613 130.318 117.579 130.121C117.099 127.279 114.608 125.41 113.62 122.787C113.159 121.563 113.064 120.193 113.762 119.038C114.372 118.027 115.372 117.335 116.253 116.58C117.183 115.824 117.914 114.852 118.382 113.749C118.824 112.572 119.063 111.328 119.088 110.07C119.19 107.241 118.845 104.413 118.068 101.69C117.197 98.5781 115.801 95.6375 113.938 92.9959C113.823 92.8324 113.592 93.042 113.706 93.2044V93.2044Z" fill="white"/>
<path d="M118.924 107.68C119.908 107.558 120.817 107.09 121.488 106.361C122.159 105.631 122.548 104.687 122.587 103.697C122.594 103.497 122.283 103.476 122.275 103.677C122.241 104.599 121.878 105.478 121.252 106.156C120.626 106.834 119.778 107.266 118.861 107.375C118.662 107.398 118.726 107.703 118.924 107.68H118.924Z" fill="white"/>
<path d="M116.648 115.924C115.038 114.694 113.952 112.902 113.605 110.907C113.571 110.709 113.266 110.772 113.3 110.97C113.664 113.046 114.799 114.908 116.477 116.185C116.637 116.306 116.807 116.045 116.648 115.924V115.924Z" fill="white"/>
<path d="M116.876 98.8382C116.505 98.9647 116.109 98.9971 115.722 98.9326C115.335 98.8681 114.971 98.7087 114.661 98.4687C114.503 98.3451 114.333 98.6063 114.49 98.7291C114.833 98.9927 115.236 99.1683 115.663 99.2405C116.09 99.3127 116.528 99.2793 116.939 99.1433C116.979 99.1338 117.014 99.1094 117.036 99.0752C117.059 99.041 117.067 98.9995 117.06 98.9592C117.052 98.9188 117.027 98.8835 116.993 98.8609C116.958 98.8382 116.916 98.8301 116.876 98.8382Z" fill="white"/>
<path d="M3.84609 86.1953C0.113207 80.1897 -0.849153 72.0805 2.92381 66.1001C5.41089 73.3753 10.3932 79.537 16.9893 83.495C19.5386 85.0123 22.5322 86.4346 23.5421 89.2225C24.1704 90.9573 23.8636 92.9202 23.1074 94.6031C22.3511 96.2861 21.1795 97.743 20.0207 99.1793L19.929 99.6307C13.6351 96.4013 7.57897 92.2008 3.84609 86.1953Z" fill="#E6E6E6"/>
<path d="M3.05884 66.1616C2.77113 72.0061 4.33375 77.7926 7.52475 82.6993C8.19294 83.7677 9.0255 84.7243 9.99179 85.5337C10.9586 86.2918 12.1109 86.7773 13.329 86.94C14.4617 87.1144 15.6406 87.1617 16.7112 87.6082C17.2558 87.8449 17.7442 88.1939 18.1443 88.6324C18.5444 89.071 18.8473 89.589 19.033 90.1527C19.5322 91.5451 19.501 93.0338 19.4198 94.4885C19.3297 96.1037 19.2105 97.7799 19.8518 99.3071C19.9295 99.4922 19.6376 99.6018 19.56 99.4171C18.4442 96.76 19.5471 93.849 18.9768 91.1048C18.7108 89.8244 18.0569 88.6163 16.8484 88.0134C15.7917 87.4862 14.576 87.4364 13.4276 87.2697C12.237 87.1285 11.099 86.6981 10.1132 86.0161C9.10883 85.2585 8.24078 84.3356 7.54625 83.2869C5.94497 80.951 4.72122 78.378 3.91984 75.6622C2.98802 72.5678 2.59284 69.3369 2.75138 66.1093C2.76127 65.9096 3.06868 65.9631 3.05885 66.1616L3.05884 66.1616Z" fill="white"/>
<path d="M6.40437 81.1797C5.50781 81.6029 4.48989 81.6939 3.5324 81.4364C2.5749 81.1789 1.74019 80.5897 1.17732 79.7741C1.064 79.6086 1.31595 79.4249 1.42942 79.5906C1.95216 80.3511 2.72976 80.8998 3.62187 81.1378C4.51397 81.3757 5.46183 81.2872 6.29435 80.8882C6.47537 80.8017 6.58435 81.0937 6.40437 81.1797V81.1797Z" fill="white"/>
<path d="M12.743 86.9272C13.4438 85.0267 13.402 82.9322 12.6259 81.0612C12.5488 80.8758 12.8407 80.7661 12.9176 80.9512C13.7216 82.8997 13.7607 85.0795 13.0271 87.0556C12.9571 87.2439 12.6733 87.1144 12.743 86.9272V86.9272Z" fill="white"/>
<path d="M3.39878 72.6158C3.77982 72.5243 4.13216 72.3397 4.42413 72.0784C4.71611 71.8172 4.93859 71.4877 5.07159 71.1193C5.13922 70.9302 5.42289 71.0599 5.3557 71.2477C5.20686 71.654 4.96072 72.0177 4.63877 72.307C4.31682 72.5963 3.92886 72.8024 3.5088 72.9074C3.47003 72.9206 3.42769 72.9185 3.39037 72.9017C3.35306 72.8848 3.32357 72.8544 3.3079 72.8166C3.29352 72.7779 3.29501 72.7351 3.31202 72.6975C3.32904 72.6599 3.36022 72.6306 3.39878 72.6158V72.6158Z" fill="white"/>
<path d="M26.6814 63.0317C26.6425 63.151 26.6036 63.2703 26.5663 63.3917C26.0521 64.9979 25.6693 66.6432 25.4217 68.3114C25.4005 68.4401 25.3809 68.5708 25.3635 68.6998C24.8099 72.7252 25.009 76.8183 25.9508 80.771C26.327 82.3436 26.8224 83.8852 27.4327 85.3827C28.2756 87.4506 29.3543 89.6258 29.4611 91.7877C29.4748 92.0131 29.4745 92.2391 29.4602 92.4645L20.4871 99.7074C20.4585 99.7137 20.4314 99.722 20.4026 99.7283L20.0576 100.034C20.0207 99.9589 19.9841 99.8802 19.9472 99.8052C19.9256 99.7618 19.906 99.7167 19.8845 99.6733C19.8707 99.6438 19.8571 99.6143 19.843 99.5885C19.8384 99.5787 19.8339 99.5688 19.8309 99.561C19.8168 99.5352 19.8064 99.5098 19.794 99.486C19.588 99.0471 19.3848 98.6061 19.1843 98.1628C19.1826 98.1607 19.1827 98.1607 19.183 98.1571C17.6639 94.7756 16.4139 91.2377 15.7411 87.6227C15.7209 87.5139 15.6989 87.4032 15.6828 87.2911C15.3886 85.66 15.2283 84.0075 15.2035 82.3503C15.1929 81.4428 15.2282 80.5353 15.3094 79.6314C15.5236 77.2962 16.1042 75.0091 17.0297 72.8542C18.8753 68.5585 22.0753 64.9005 26.3532 63.1614C26.4627 63.117 26.5702 63.0741 26.6814 63.0317Z" fill="#E6E6E6"/>
<path d="M26.7533 63.1618C23.002 67.6553 20.763 73.2156 20.3543 79.0529C20.244 80.308 20.3324 81.5726 20.6162 82.8002C20.9314 83.9871 21.5589 85.068 22.4335 85.9306C23.2328 86.7513 24.1455 87.4983 24.7313 88.4989C25.0235 89.0155 25.2031 89.588 25.2584 90.1788C25.3137 90.7697 25.2433 91.3655 25.0519 91.9273C24.6116 93.3394 23.6896 94.5092 22.7483 95.6219C21.7031 96.8573 20.5979 98.124 20.1897 99.7292C20.1402 99.9237 19.8411 99.8356 19.8905 99.6414C20.6006 96.8487 23.2352 95.1878 24.4334 92.6538C24.9925 91.4713 25.1983 90.1134 24.5967 88.905C24.0706 87.8483 23.13 87.0772 22.3135 86.2532C21.448 85.4242 20.7987 84.396 20.4225 83.2585C20.0771 82.0493 19.9401 80.7902 20.0174 79.5351C20.1464 76.7066 20.7196 73.9161 21.7162 71.2656C22.8367 68.2343 24.468 65.4168 26.5393 62.9352C26.6676 62.7816 26.8808 63.0093 26.7533 63.1618V63.1618Z" fill="white"/>
<path d="M20.3752 77.1655C19.4044 76.964 18.5368 76.4243 17.9274 75.6427C17.3181 74.8611 17.0066 73.8885 17.0487 72.8986C17.0508 72.8583 17.0685 72.8203 17.098 72.7927C17.1276 72.7651 17.1667 72.7501 17.2071 72.7508C17.2475 72.7514 17.2861 72.7677 17.3148 72.7963C17.3434 72.8248 17.3598 72.8634 17.3606 72.9038C17.3197 73.8255 17.6099 74.7314 18.1788 75.4581C18.7477 76.1847 19.5579 76.6843 20.463 76.8665C20.6597 76.9064 20.5707 77.2051 20.3752 77.1655V77.1655Z" fill="white"/>
<path d="M21.9733 85.5679C23.6779 84.4721 24.9066 82.7745 25.4143 80.8137C25.4644 80.6194 25.7636 80.7074 25.7135 80.9015C25.1814 82.9409 23.8992 84.7049 22.1227 85.8413C21.9534 85.9495 21.8048 85.6755 21.9733 85.5679V85.5679Z" fill="white"/>
<path d="M23.1357 68.5196C23.4951 68.6758 23.8876 68.7403 24.2782 68.7074C24.6687 68.6745 25.0449 68.5452 25.373 68.3311C25.541 68.2208 25.6894 68.495 25.5225 68.6045C25.1589 68.8394 24.7432 68.9817 24.3118 69.019C23.8804 69.0563 23.4465 68.9875 23.0479 68.8186C23.0089 68.8058 22.9764 68.7787 22.9567 68.7428C22.9371 68.7069 22.9319 68.6648 22.9422 68.6252C22.954 68.5857 22.9809 68.5524 23.0172 68.5326C23.0534 68.5129 23.096 68.5082 23.1357 68.5196V68.5196Z" fill="white"/>
<path d="M73.1403 24.8924C78.5966 24.8924 83.0198 20.4728 83.0198 15.0208C83.0198 9.56885 78.5966 5.14917 73.1403 5.14917C67.684 5.14917 63.2607 9.56885 63.2607 15.0208C63.2607 20.4728 67.684 24.8924 73.1403 24.8924Z" fill="#FF6584"/>
<path d="M103.389 14.5056C102.499 13.5659 101.559 12.6745 100.574 11.8352C98.6491 10.2043 96.5184 8.81764 94.1433 7.9441C93.2491 7.61414 92.3252 7.3711 91.3843 7.21836C91.2713 7.2001 91.1599 7.18182 91.0469 7.16687C91.0386 7.16604 91.0302 7.16604 91.022 7.16687C91.0046 7.16196 90.9868 7.15862 90.9688 7.15691C90.7378 7.12702 90.5067 7.10376 90.274 7.08716C89.0209 7.00392 87.7625 7.11712 86.5444 7.42263C85.8376 7.6008 85.148 7.84087 84.4835 8.14005C83.8177 8.46573 83.1722 8.8312 82.5505 9.23447C82.2166 9.43712 81.8727 9.6228 81.52 9.79081C80.4904 10.2782 79.4006 10.6267 78.279 10.8271C77.5217 10.9629 76.7547 11.0384 75.9854 11.053C75.3173 11.0663 74.6873 11.0895 74.0541 11.3303C73.3783 11.584 72.7712 11.9922 72.2815 12.5222C71.7918 13.0522 71.4329 13.6894 71.2336 14.3827C71.2179 14.4443 71.2223 14.5093 71.2462 14.5681C71.2702 14.627 71.3123 14.6767 71.3666 14.7099C71.5378 14.8328 71.704 14.9723 71.8851 15.0819C72.045 15.1548 72.2156 15.2013 72.3904 15.2197C72.6763 15.2795 72.9627 15.3376 73.2497 15.3941C74.3051 15.6033 75.3649 15.7888 76.4292 15.9504C78.5699 16.2743 80.7228 16.5023 82.8879 16.6346C82.9011 16.6366 82.9144 16.6377 82.9278 16.638C85.3738 16.7855 87.8256 16.8093 90.274 16.7094C90.6447 16.6944 91.0136 16.6762 91.3843 16.6546C92.9283 16.5682 94.4685 16.432 96.0048 16.246C97.4258 16.0733 98.8413 15.8591 100.251 15.6033C101.259 15.4207 102.262 15.2169 103.261 14.9922C103.31 14.9778 103.354 14.9512 103.389 14.9149C103.424 14.8786 103.45 14.8338 103.462 14.7849C103.475 14.736 103.475 14.6846 103.463 14.6357C103.45 14.5867 103.424 14.5419 103.389 14.5056V14.5056Z" fill="#E6E6E6"/>
<path d="M82.8545 27.6685C81.4242 26.1397 79.8484 24.7537 78.1492 23.53C77.5858 23.1348 77.0058 22.7628 76.4091 22.4223C75.6775 22.0004 74.9179 21.6292 74.1354 21.3113C73.9609 21.2399 73.7847 21.1718 73.6085 21.107C72.6076 20.7366 71.5694 20.476 70.5121 20.3298C70.5038 20.3281 70.4955 20.3298 70.4872 20.3281C70.4706 20.3248 70.4523 20.3215 70.4357 20.3182C69.9232 20.2518 69.4068 20.2201 68.89 20.2235C68.5193 20.2235 68.147 20.2434 67.7781 20.28C67.1819 20.3387 66.5909 20.4408 66.0097 20.5855C65.7221 20.657 65.4362 20.74 65.1554 20.8347C64.7457 20.9694 64.3435 21.1257 63.9504 21.303C63.9437 21.3063 63.9387 21.308 63.9321 21.3113C63.2722 21.6338 62.6328 21.9966 62.0174 22.3974C62.0041 22.4057 61.9892 22.414 61.9759 22.4223C61.2769 22.8401 60.5374 23.1862 59.7687 23.4553C59.1088 23.6858 58.432 23.8646 57.7443 23.99C56.987 24.1261 56.22 24.2011 55.4507 24.2142C54.7825 24.2275 54.1526 24.2508 53.521 24.4932C52.845 24.7469 52.2377 25.155 51.7477 25.685C51.2577 26.215 50.8985 26.8522 50.6989 27.5456C50.6835 27.6072 50.6881 27.6721 50.712 27.7309C50.7359 27.7897 50.7778 27.8394 50.8318 27.8728C51.003 27.9957 51.1709 28.1335 51.3504 28.2431C51.5101 28.3166 51.6808 28.3632 51.8557 28.381C52.1415 28.4408 52.4274 28.5005 52.7149 28.557C53.7703 28.7663 54.8307 28.9512 55.8961 29.1117C57.357 29.3326 58.8241 29.5092 60.2972 29.6415C60.9953 29.7062 61.6939 29.7594 62.393 29.8009C64.1864 29.9088 65.9814 29.9509 67.7781 29.9271C68.1487 29.9221 68.5194 29.9138 68.89 29.9022C71.0906 29.8374 73.2845 29.6725 75.4717 29.4073C77.9097 29.1126 80.3311 28.6941 82.7265 28.1534C82.775 28.1393 82.8189 28.1128 82.8542 28.0767C82.8894 28.0405 82.9146 27.9959 82.9275 27.9471C82.9404 27.8983 82.9404 27.847 82.9276 27.7982C82.9149 27.7494 82.8897 27.7047 82.8545 27.6685V27.6685Z" fill="#E6E6E6"/>
<path d="M58.229 1.17518L66.9326 121.355L49.5254 122.899V2.70421C51.5996 1.08526 54.5772 0.83197 58.229 1.17518Z" fill="#CCCCCC"/>
<path d="M101.192 1.17518L92.488 121.355L109.895 122.899V2.70421C107.821 1.08526 104.844 0.83197 101.192 1.17518Z" fill="#CCCCCC"/>
<path d="M110.305 2.75665C109.765 1.43334 108.616 0.519775 107.288 0.519775H51.9469C50.1004 0.519775 48.5996 2.29006 48.5996 4.46812V123.917C48.5835 125.022 48.9969 126.09 49.753 126.897C50.1486 127.312 50.6495 127.612 51.2023 127.765C51.4448 127.832 51.6953 127.866 51.9469 127.865H107.288C107.54 127.866 107.79 127.832 108.033 127.765C109.522 127.365 110.636 125.793 110.636 123.917V4.46813C110.637 3.88163 110.525 3.30041 110.305 2.75665V2.75665ZM109.525 123.917C109.525 125.371 108.521 126.555 107.288 126.555H51.9469C50.9248 126.555 50.0589 125.742 49.7946 124.634C49.7381 124.399 49.7097 124.158 49.7098 123.917V4.46813C49.7098 3.01347 50.7137 1.83133 51.9469 1.83133H107.288C107.515 1.83115 107.74 1.87165 107.953 1.95091C108.862 2.28419 109.525 3.28598 109.525 4.46813V123.917Z" fill="#CCCCCC"/>
<path d="M110.08 36.828H49.155V37.9382H110.08V36.828Z" fill="#CCCCCC"/>
<path d="M110.08 13.91H49.155V15.0202H110.08V13.91Z" fill="#CCCCCC"/>
<path d="M110.08 55.3315H49.155V56.4418H110.08V55.3315Z" fill="#CCCCCC"/>
<path d="M68.9258 1.01794H67.8147V71.0596H68.9258V1.01794Z" fill="#CCCCCC"/>
<path d="M91.4207 1.01794H90.3096V71.0596H91.4207V1.01794Z" fill="#CCCCCC"/>
<path d="M117.024 120.927H44.0622C42.7367 120.928 41.466 121.455 40.5288 122.391C39.5915 123.328 39.0643 124.598 39.0627 125.922C39.0621 126.559 39.1846 127.19 39.4234 127.78C39.7946 128.707 40.4348 129.501 41.2615 130.06C42.0883 130.619 43.0637 130.919 44.0622 130.919H117.024C117.897 130.919 118.755 130.69 119.512 130.256C120.269 129.822 120.899 129.198 121.339 128.445C121.465 128.232 121.573 128.01 121.665 127.78C121.904 127.19 122.026 126.559 122.026 125.922C122.024 124.598 121.496 123.328 120.559 122.391C119.621 121.455 118.35 120.928 117.024 120.927Z" fill="#CCCCCC"/>
<path d="M110.08 68.4691H49.5254V72.1698H110.08V68.4691Z" fill="#CCCCCC"/>
<path d="M79.2475 67.3589H80.3586C80.8988 67.3589 81.4169 67.5733 81.799 67.955C82.181 68.3368 82.3956 68.8545 82.3956 69.3943V69.3943H77.2104C77.2104 69.127 77.2631 68.8623 77.3655 68.6154C77.4679 68.3684 77.6179 68.144 77.8071 67.955C77.9962 67.766 78.2208 67.6161 78.4679 67.5138C78.7151 67.4115 78.98 67.3589 79.2475 67.3589V67.3589Z" fill="#CCCCCC"/>
<path d="M80.8711 78.906C87.2091 78.906 92.3471 73.7721 92.3471 67.4391C92.3471 61.1061 87.2091 55.9722 80.8711 55.9722C74.533 55.9722 69.395 61.1061 69.395 67.4391C69.395 73.7721 74.533 78.906 80.8711 78.906Z" fill="#FFB8B8"/>
<path d="M68.0692 56.4078C68.1559 55.091 69.0275 53.7435 71.7964 53.0394C71.7964 53.0394 76.5484 46.9676 83.0059 50.1517C83.0059 50.1517 86.1364 49.6136 88.4578 52.8591C88.4578 52.8591 90.7593 51.5027 91.7303 53.9068C91.7303 53.9068 94.4296 58.8105 93.4359 63.8123C92.4421 68.8141 91.9334 69.4383 91.9334 69.4383C91.9334 69.4383 93.2001 59.0922 85.9043 59.8096C78.6085 60.527 72.7347 57.9634 71.0825 63.5764C69.7106 68.2372 69.8834 70.6578 69.8834 70.6578C69.8834 70.6578 65.2956 66.0083 66.8555 62.3471C67.6533 60.4745 67.9354 58.4386 68.0692 56.4078Z" fill="#2F2E41"/>
<path d="M49.6633 130.105H113.141C112.716 125.267 112.439 106.773 112.439 105.556C112.439 100.187 108.043 94.3283 108.043 94.3283L106.469 93.4591L93.3269 89.3622L89.9259 84.9479C89.5697 84.4844 89.1108 84.1097 88.5853 83.8532C88.0597 83.5968 87.4818 83.4657 86.8969 83.4702L76.1535 83.5507C75.208 83.558 74.2994 83.9178 73.6056 84.5596L66.9529 90.7263L57.1954 95.3821L57.1788 95.3655L57.0769 95.4413L55.6288 96.4833L54.6973 97.1559C54.6973 97.1559 52.2538 100.085 50.3009 108.871C50.007 110.193 49.8008 127.299 49.6633 130.105Z" fill="#C996CC"/>
<path d="M127.833 127.78C127.68 127.92 127.525 128.058 127.371 128.196C126.786 128.715 126.192 129.226 125.591 129.728C124.681 130.486 123.753 131.22 122.807 131.932H37.3541C35.6139 130.627 33.938 129.243 32.3264 127.78H127.833Z" fill="#CCCCCC"/>
<path d="M96.5099 128.777H65.0972L65.7619 125.622H95.8449L96.5099 128.777Z" fill="#2F2E41"/>
<path d="M124.929 115.159H116.755C116.571 115.158 116.388 115.198 116.221 115.276C116.054 115.353 115.905 115.466 115.786 115.607C115.672 115.585 115.557 115.574 115.441 115.574C115.186 115.574 114.934 115.624 114.698 115.721C114.463 115.818 114.249 115.961 114.069 116.141C113.888 116.321 113.745 116.534 113.648 116.77C113.55 117.005 113.5 117.257 113.5 117.511C113.5 117.766 113.55 118.018 113.648 118.253C113.745 118.488 113.888 118.702 114.069 118.882C114.249 119.062 114.463 119.204 114.698 119.302C114.934 119.399 115.186 119.449 115.441 119.449C115.733 119.449 116.022 119.381 116.285 119.253L116.421 120.927L116.963 127.543C116.989 127.626 117.023 127.705 117.066 127.78C117.176 127.981 117.337 128.149 117.534 128.266C117.731 128.383 117.956 128.445 118.185 128.445H123.5C123.729 128.444 123.954 128.383 124.151 128.266C124.348 128.149 124.51 127.981 124.62 127.78C124.662 127.705 124.696 127.625 124.722 127.543L126.151 116.811C126.21 116.62 126.223 116.418 126.189 116.221C126.156 116.024 126.076 115.838 125.957 115.677C125.838 115.516 125.684 115.386 125.505 115.296C125.326 115.206 125.129 115.159 124.929 115.159ZM115.441 118.896C115.074 118.895 114.722 118.749 114.462 118.49C114.203 118.23 114.057 117.878 114.057 117.511C114.057 117.145 114.203 116.793 114.462 116.533C114.722 116.274 115.074 116.128 115.441 116.127C115.466 116.127 115.489 116.134 115.514 116.135C115.459 116.358 115.466 116.592 115.534 116.811L116.119 118.711C115.913 118.831 115.679 118.894 115.441 118.896V118.896Z" fill="#3F3D56"/>
<path d="M106.467 80.0463H54.7244C54.2798 80.047 53.8537 80.2237 53.5393 80.5378C53.225 80.8519 53.0481 81.2777 53.0474 81.7219V116.61C53.0478 117.055 53.2246 117.481 53.539 117.795C53.8534 118.109 54.2797 118.286 54.7244 118.286H106.467C106.912 118.286 107.338 118.109 107.653 117.795C107.967 117.481 108.144 117.055 108.144 116.61V81.7219C108.144 81.2777 107.967 80.8519 107.652 80.5378C107.338 80.2237 106.912 80.047 106.467 80.0463Z" fill="#3F3D56"/>
<path d="M86.4229 108.001H74.3182C74.147 108.001 73.9828 108.07 73.8619 108.191C73.741 108.312 73.6732 108.476 73.6733 108.647V127.754H87.0695V108.647C87.0695 108.562 87.0528 108.478 87.0203 108.4C86.9879 108.322 86.9402 108.25 86.8802 108.19C86.8201 108.13 86.7489 108.083 86.6704 108.05C86.5919 108.018 86.5078 108.001 86.4229 108.001V108.001ZM80.4113 118.857C80.0327 118.856 79.6702 118.705 79.4025 118.437C79.1349 118.17 78.9837 117.807 78.9819 117.429V115.225C78.9824 114.847 79.1331 114.484 79.4012 114.217C79.6692 113.949 80.0325 113.799 80.4113 113.799C80.7901 113.799 81.1534 113.949 81.4214 114.217C81.6894 114.484 81.8402 114.847 81.8406 115.225V117.429C81.8389 117.807 81.6877 118.17 81.4201 118.437C81.1524 118.705 80.7898 118.856 80.4113 118.857V118.857Z" fill="#2F2E41"/>
<path d="M73.6318 127.143V128.986C73.632 129.082 73.6701 129.173 73.7377 129.241C73.8053 129.308 73.8969 129.346 73.9925 129.346H86.7504C86.8459 129.346 86.9373 129.308 87.0049 129.24C87.0724 129.173 87.1106 129.082 87.111 128.986V127.143H73.6318Z" fill="#3F3D56"/>
<path d="M105.367 116.246C105.818 116.246 106.184 115.88 106.184 115.429C106.184 114.979 105.818 114.613 105.367 114.613C104.916 114.613 104.55 114.979 104.55 115.429C104.55 115.88 104.916 116.246 105.367 116.246Z" fill="#2F2E41"/>
<path d="M61.2561 114.245C61.2186 114.245 61.1814 114.253 61.1467 114.267C61.112 114.282 61.0805 114.303 61.0539 114.329C61.0274 114.356 61.0063 114.387 60.992 114.422C60.9776 114.456 60.9702 114.494 60.9702 114.531V116.001C60.9704 116.077 61.0006 116.149 61.0542 116.202C61.1078 116.256 61.1804 116.286 61.2561 116.286C61.3318 116.286 61.4044 116.256 61.458 116.202C61.5116 116.149 61.5418 116.077 61.542 116.001V114.531C61.542 114.494 61.5346 114.456 61.5202 114.422C61.5058 114.387 61.4848 114.356 61.4582 114.329C61.4317 114.303 61.4002 114.282 61.3655 114.267C61.3308 114.253 61.2936 114.245 61.2561 114.245V114.245Z" fill="#2F2E41"/>
<path d="M62.8086 114.245C62.771 114.245 62.7339 114.253 62.6992 114.267C62.6645 114.282 62.633 114.303 62.6064 114.329C62.5799 114.356 62.5588 114.387 62.5445 114.422C62.5301 114.456 62.5227 114.494 62.5227 114.531V116.001C62.5227 116.077 62.5528 116.149 62.6064 116.203C62.66 116.256 62.7328 116.286 62.8086 116.286C62.8844 116.286 62.9571 116.256 63.0107 116.203C63.0643 116.149 63.0944 116.077 63.0944 116.001V114.531C63.0944 114.494 63.0871 114.456 63.0727 114.422C63.0583 114.387 63.0373 114.356 63.0107 114.329C62.9842 114.303 62.9527 114.282 62.918 114.267C62.8833 114.253 62.8461 114.245 62.8086 114.245V114.245Z" fill="#2F2E41"/>
<path d="M64.3608 114.245C64.3233 114.245 64.2861 114.253 64.2514 114.267C64.2167 114.282 64.1852 114.303 64.1587 114.329C64.1321 114.356 64.1111 114.387 64.0967 114.422C64.0823 114.456 64.0749 114.494 64.075 114.531V116.001C64.0751 116.077 64.1053 116.149 64.1589 116.202C64.2125 116.256 64.2851 116.286 64.3608 116.286C64.4365 116.286 64.5091 116.256 64.5627 116.202C64.6163 116.149 64.6465 116.077 64.6467 116.001V114.531C64.6467 114.494 64.6393 114.456 64.6249 114.422C64.6106 114.387 64.5895 114.356 64.563 114.329C64.5364 114.303 64.5049 114.282 64.4702 114.267C64.4355 114.253 64.3984 114.245 64.3608 114.245Z" fill="#2F2E41"/>
<path d="M65.9131 114.245C65.8755 114.245 65.8383 114.253 65.8037 114.267C65.769 114.282 65.7375 114.303 65.7109 114.329C65.6844 114.356 65.6633 114.387 65.649 114.422C65.6346 114.456 65.6272 114.494 65.6272 114.531V116.001C65.6274 116.077 65.6576 116.149 65.7112 116.202C65.7648 116.256 65.8374 116.286 65.9131 116.286C65.9888 116.286 66.0614 116.256 66.115 116.202C66.1685 116.149 66.1988 116.077 66.1989 116.001V114.531C66.1989 114.494 66.1916 114.456 66.1772 114.422C66.1628 114.387 66.1418 114.356 66.1152 114.329C66.0887 114.303 66.0572 114.282 66.0225 114.267C65.9878 114.253 65.9506 114.245 65.9131 114.245V114.245Z" fill="#2F2E41"/>
<path d="M67.1516 127.946C69.5382 127.946 71.473 126.013 71.473 123.629C71.473 121.244 69.5382 119.311 67.1516 119.311C64.765 119.311 62.8303 121.244 62.8303 123.629C62.8303 126.013 64.765 127.946 67.1516 127.946Z" fill="#FFB8B8"/>
<path d="M97.3409 128.777C99.7275 128.777 101.662 126.844 101.662 124.459C101.662 122.074 99.7275 120.141 97.3409 120.141C94.9543 120.141 93.0195 122.074 93.0195 124.459C93.0195 126.844 94.9543 128.777 97.3409 128.777Z" fill="#FFB8B8"/>
<path d="M141.945 72.3409C141.518 71.6352 141.012 70.8818 140.219 70.6513C139.302 70.3845 138.359 70.9146 137.559 71.4377C135.168 73.0021 132.865 74.6976 130.661 76.5162L130.663 76.5436C132.379 76.4254 133.803 80.9842 135.519 80.8659C136.759 80.7805 138.333 76.0062 139.428 75.4203C139.844 75.1979 140.249 74.9009 140.721 74.8802C141.306 74.8545 141.816 75.2629 142.217 75.6896C144.59 78.2138 145.276 82.0739 147.938 84.2916C146.259 80.156 144.255 76.1599 141.945 72.3409V72.3409Z" fill="#3F3D56"/>
<path d="M146.511 78.4719C147.762 80.7305 149.09 82.9442 150.493 85.1131V85.1148C150.485 85.1912 150.473 85.2676 150.461 85.3439C150.292 85.0849 150.124 84.8247 149.958 84.5634C148.698 82.5888 147.501 80.5766 146.366 78.5267C145.828 77.5519 145.303 76.5693 144.791 75.5789C144.395 74.8117 144.008 74.04 143.629 73.2639C143.521 73.0414 143.416 72.8188 143.311 72.5946C143.065 72.0698 142.823 71.5417 142.563 71.0236C142.268 70.4324 141.907 69.8146 141.363 69.4177C141.116 69.2294 140.821 69.1153 140.511 69.0888C140.075 69.0915 139.647 69.2138 139.276 69.4426C136.464 70.9192 133.84 72.7274 131.459 74.8283C129.076 76.9209 126.945 79.2846 125.11 81.8714C125.054 81.9511 124.921 81.8747 124.977 81.7933C125.202 81.4778 125.428 81.1672 125.66 80.8583C128.544 77.0265 132.08 73.7313 136.106 71.1232C136.783 70.6848 137.473 70.2668 138.176 69.8694C138.53 69.6684 138.885 69.4708 139.248 69.2848C139.594 69.0816 139.984 68.9612 140.385 68.9327C141.764 68.9111 142.479 70.4722 142.969 71.5218C143.122 71.8523 143.278 72.1822 143.436 72.5116C144.033 73.7571 144.653 74.9927 145.296 76.2183C145.691 76.9739 146.096 77.7251 146.511 78.4719Z" fill="#3F3D56"/>
<path d="M131.324 74.0573C131.243 73.968 131.164 73.8788 131.083 73.7895C130.447 73.0867 129.765 72.392 128.891 71.9891C128.475 71.791 128.02 71.6857 127.559 71.6806C127.083 71.6936 126.614 71.7959 126.176 71.982C125.968 72.0651 125.764 72.1595 125.563 72.26C125.334 72.3752 125.109 72.4981 124.885 72.6221C124.464 72.8546 124.049 73.0974 123.64 73.3504C122.824 73.8538 122.035 74.3956 121.271 74.9758C120.875 75.2767 120.487 75.5875 120.107 75.9081C119.754 76.206 119.408 76.5118 119.069 76.8257C118.996 76.8925 118.888 76.7843 118.96 76.7175C119.05 76.6344 119.14 76.5518 119.231 76.4702C119.486 76.2396 119.745 76.0135 120.008 75.7918C120.489 75.3869 120.981 74.9976 121.487 74.6239C122.272 74.0425 123.085 73.5005 123.924 72.998C124.344 72.747 124.769 72.5066 125.2 72.2768C125.331 72.2074 125.462 72.1396 125.596 72.0753C125.898 71.923 126.212 71.7952 126.535 71.6933C126.992 71.5455 127.476 71.498 127.953 71.5541C128.414 71.6211 128.858 71.7746 129.262 72.0065C130.119 72.4854 130.785 73.2259 131.432 73.9486C131.497 74.0221 131.389 74.1307 131.324 74.0573Z" fill="#3F3D56"/>
<path d="M125.049 77.4388C124.831 77.4496 124.615 77.3879 124.436 77.2635C123.962 76.9042 123.974 76.0414 124.474 74.6256C124.61 74.242 124.824 73.8904 125.101 73.5924C125.379 73.2944 125.714 73.0564 126.087 72.8931C126.437 72.737 126.815 72.6552 127.198 72.6529C127.581 72.6506 127.96 72.7279 128.311 72.8799C128.373 72.9065 128.433 72.9351 128.493 72.9657C128.9 73.1933 129.281 73.4635 129.63 73.772C129.927 74.0294 130.244 74.2631 130.577 74.471L130.689 74.5362L130.583 74.6105C127.891 76.5045 126.066 77.4388 125.049 77.4388Z" fill="#3F3D56"/>
<path d="M135.402 66.1676C134.516 66.1675 133.659 65.8604 132.975 65.2987C132.291 64.737 131.823 63.9556 131.651 63.0878C130.911 63.2375 130.232 63.603 129.699 64.1382C129.167 64.6733 128.805 65.354 128.659 66.0945C128.513 66.835 128.59 67.602 128.88 68.2988C129.171 68.9956 129.661 69.5909 130.289 70.0095C130.917 70.4282 131.656 70.6515 132.411 70.6513C133.166 70.651 133.905 70.4272 134.533 70.0082C135.161 69.5891 135.651 68.9935 135.94 68.2965C136.23 67.5996 136.307 66.8325 136.16 66.0921C135.911 66.1424 135.657 66.1677 135.402 66.1676V66.1676Z" fill="#3F3D56"/>
<path opacity="0.74" d="M33.0732 72.3123C36.2238 72.3123 38.7778 69.7603 38.7778 66.6123C38.7778 63.4642 36.2238 60.9122 33.0732 60.9122C29.9227 60.9122 27.3687 63.4642 27.3687 66.6123C27.3687 69.7603 29.9227 72.3123 33.0732 72.3123Z" fill="#3F3D56"/>
<path opacity="0.74" d="M38.7778 72.3123C41.9284 72.3123 44.4824 69.7603 44.4824 66.6123C44.4824 63.4642 41.9284 60.9122 38.7778 60.9122C35.6273 60.9122 33.0732 63.4642 33.0732 66.6123C33.0732 69.7603 35.6273 72.3123 38.7778 72.3123Z" fill="#C996CC"/>
<path opacity="0.74" d="M35.9736 67.7694C39.1242 67.7694 41.6782 65.2174 41.6782 62.0694C41.6782 58.9214 39.1242 56.3694 35.9736 56.3694C32.8231 56.3694 30.269 58.9214 30.269 62.0694C30.269 65.2174 32.8231 67.7694 35.9736 67.7694Z" fill="#FF6584"/>
<path d="M50.8906 60.4361L36.2378 65.0358L36.3374 65.3526L50.9902 60.753L50.8906 60.4361Z" fill="#3F3D56"/>
<path d="M50.9839 61.2057C51.3511 61.2057 51.6487 60.9082 51.6487 60.5414C51.6487 60.1745 51.3511 59.8771 50.9839 59.8771C50.6167 59.8771 50.3191 60.1745 50.3191 60.5414C50.3191 60.9082 50.6167 61.2057 50.9839 61.2057Z" fill="#3F3D56"/>
<path d="M146.109 90.4325C147.083 91.1184 148.018 91.8175 149.089 92.3457C149.069 92.427 149.047 92.5101 149.027 92.5914C148.896 92.53 148.768 92.4652 148.64 92.3988C147.555 91.8308 146.62 91.0586 145.602 90.3877C145.097 90.0388 144.545 89.7627 143.963 89.5672C143.356 89.3851 142.722 89.3109 142.09 89.348C139.452 89.4776 137.192 91.0503 134.74 91.8424C133.54 92.2311 132.264 92.4386 131.012 92.1945C129.761 91.9504 128.649 91.2861 127.544 90.6849C126.453 90.0904 125.265 89.4925 123.992 89.4925C122.955 89.4942 121.864 89.9094 121.309 90.8261C121.292 90.8535 121.265 90.873 121.233 90.8807C121.202 90.8883 121.169 90.8834 121.141 90.867C121.113 90.8506 121.092 90.8239 121.084 90.7927C121.075 90.7615 121.079 90.7282 121.095 90.6999C121.219 90.4909 121.372 90.3003 121.549 90.1336C122.273 89.4477 123.339 89.177 124.317 89.2567C125.584 89.3597 126.739 89.9575 127.834 90.5587C128.996 91.1964 130.186 91.8823 131.529 92.0218C132.855 92.1613 134.168 91.8142 135.398 91.3476C137.78 90.4425 140.13 88.9345 142.78 89.1022C144.029 89.182 145.1 89.7234 146.109 90.4325Z" fill="#3F3D56"/>
<path d="M41.8583 42.4027V42.7398C41.7466 42.7178 41.6331 42.7066 41.5192 42.7066H39.7807V46.4366C39.7804 46.9888 39.5607 47.5183 39.1699 47.9088C38.7791 48.2993 38.2492 48.5188 37.6965 48.5191H35.127V49.0938C35.127 49.3241 35.1727 49.5521 35.2616 49.7647H34.9059C34.8316 49.5488 34.794 49.322 34.7946 49.0938V48.5191H33.3818V48.187H34.7946V44.457C34.7949 43.9048 35.0146 43.3753 35.4054 42.9848C35.7962 42.5943 36.3261 42.3748 36.8788 42.3745H39.4483V41.7932H39.7807V42.3745H41.5192C41.6328 42.3746 41.7462 42.384 41.8583 42.4027V42.4027Z" fill="#C996CC"/>
<path d="M37.6966 39.7174H33.0561C32.5035 39.7177 31.9735 39.9372 31.5827 40.3277C31.1919 40.7182 30.9722 41.2477 30.9719 41.8V46.4367C30.9722 46.9889 31.1919 47.5184 31.5827 47.9089C31.9735 48.2994 32.5035 48.5189 33.0561 48.5192H37.6966C38.2492 48.5189 38.7792 48.2994 39.17 47.9089C39.5608 47.5184 39.7805 46.9889 39.7808 46.4367V41.7933C39.7788 41.2422 39.5584 40.7144 39.1677 40.3253C38.7771 39.9362 38.2481 39.7176 37.6966 39.7174V39.7174ZM39.4484 46.4367C39.4477 46.9007 39.263 47.3456 38.9346 47.6737C38.6062 48.0019 38.161 48.1865 37.6966 48.1871H33.0561C32.5917 48.1865 32.1465 48.0019 31.8181 47.6737C31.4897 47.3456 31.305 46.9007 31.3043 46.4367V41.8C31.305 41.3359 31.4897 40.8911 31.8181 40.5629C32.1465 40.2348 32.5917 40.0502 33.0561 40.0496H37.6966C38.1599 40.0501 38.6041 40.2338 38.9323 40.5605C39.2606 40.8872 39.4461 41.3304 39.4484 41.7933V46.4367Z" fill="#3F3D56"/>
<path d="M34.7947 48.187V48.5192H35.1271V48.187H34.7947ZM34.7947 48.187V48.5192H35.1271V48.187H34.7947ZM41.8584 42.4027C41.7463 42.3841 41.6329 42.3746 41.5193 42.3745H36.8789C36.3262 42.3748 35.7963 42.5943 35.4055 42.9848C35.0147 43.3753 34.795 43.9048 34.7947 44.457V49.0938C34.7941 49.3221 34.8317 49.5488 34.906 49.7647C35.0463 50.1763 35.312 50.5337 35.6658 50.7868C36.0196 51.04 36.4438 51.1762 36.8789 51.1763H41.5193C42.072 51.176 42.6019 50.9565 42.9927 50.566C43.3835 50.1755 43.6032 49.646 43.6035 49.0938V44.4571C43.6034 43.9635 43.4279 43.4861 43.1083 43.1099C42.7887 42.7336 42.3457 42.483 41.8584 42.4027V42.4027ZM43.2711 49.0938C43.2705 49.5578 43.0857 50.0027 42.7574 50.3308C42.429 50.6589 41.9838 50.8436 41.5193 50.8442H36.8789C36.4145 50.8435 35.9693 50.6589 35.6409 50.3308C35.3125 50.0027 35.1278 49.5578 35.1271 49.0938V44.4571C35.1277 43.993 35.3125 43.5482 35.6409 43.22C35.9693 42.8919 36.4145 42.7073 36.8789 42.7067H41.5193C41.9839 42.7068 42.4294 42.8913 42.7579 43.2195C43.0863 43.5478 43.271 43.9929 43.2711 44.4571V49.0938ZM34.7947 48.187V48.5192H35.1271V48.187H34.7947Z" fill="#3F3D56"/>
<path d="M31.5122 91.4803H11.8003C11.6631 91.4804 11.5315 91.5348 11.4343 91.6316C11.3371 91.7284 11.2823 91.8597 11.2817 91.9968V93.1643C11.9321 95.6532 12.7194 98.1043 13.6402 100.506H31.5122C31.5801 100.506 31.6473 100.493 31.7101 100.467C31.7728 100.441 31.8298 100.403 31.8778 100.355C31.9258 100.307 31.9639 100.25 31.9899 100.188C32.0158 100.125 32.0291 100.058 32.0291 99.9899V91.9968C32.0289 91.8599 31.9744 91.7286 31.8775 91.6318C31.7806 91.535 31.6492 91.4805 31.5122 91.4803V91.4803Z" fill="#C996CC"/>
<path d="M29.634 103.099H14.6921C14.87 103.516 15.0511 103.929 15.239 104.341H29.634C30.445 104.353 30.4367 103.087 29.634 103.099Z" fill="#E4E4E4"/>
<path d="M29.6339 105.945H15.9885C16.188 106.362 16.3929 106.776 16.6035 107.187H29.6339C30.445 107.199 30.4367 105.935 29.6339 105.945Z" fill="#E4E4E4"/>
<path d="M29.634 108.793H17.4429C17.6656 109.21 17.8949 109.624 18.1276 110.036H29.634C30.4451 110.047 30.4368 108.782 29.634 108.793Z" fill="#E4E4E4"/>
<path d="M131.825 32.2399H131.731C132.025 32.2401 132.316 32.3088 132.58 32.4405H132.149C131.684 32.4411 131.239 32.6256 130.911 32.9538C130.582 33.2819 130.397 33.7268 130.397 34.1909V38.8278C130.397 39.2918 130.582 39.7367 130.911 40.0648C131.239 40.393 131.684 40.5776 132.149 40.5781H132.423C132.203 40.6646 131.968 40.7092 131.731 40.7095H131.825C132.334 40.709 132.821 40.5069 133.181 40.1476C133.54 39.7883 133.743 39.3012 133.743 38.7931V34.1563C133.743 33.6482 133.54 33.1611 133.181 32.8018C132.821 32.4425 132.334 32.2405 131.825 32.2399V32.2399Z" fill="#3F3D56"/>
<path opacity="0.21" d="M131.825 32.2399H131.731C132.025 32.2401 132.316 32.3088 132.58 32.4405H132.149C131.684 32.4411 131.239 32.6256 130.911 32.9538C130.582 33.2819 130.397 33.7268 130.397 34.1909V38.8278C130.397 39.2918 130.582 39.7367 130.911 40.0648C131.239 40.393 131.684 40.5776 132.149 40.5781H132.423C132.203 40.6646 131.968 40.7092 131.731 40.7095H131.825C132.334 40.709 132.821 40.5069 133.181 40.1476C133.54 39.7883 133.743 39.3012 133.743 38.7931V34.1563C133.743 33.6482 133.54 33.1611 133.181 32.8018C132.821 32.4425 132.334 32.2405 131.825 32.2399V32.2399Z" fill="black"/>
<path d="M119.526 32.2399H119.431C119.726 32.2401 120.017 32.3088 120.281 32.4405H119.85C119.385 32.4411 118.94 32.6256 118.612 32.9538C118.283 33.2819 118.098 33.7268 118.098 34.1909V38.8278C118.098 39.2918 118.283 39.7367 118.612 40.0648C118.94 40.393 119.385 40.5776 119.85 40.5781H120.124C119.904 40.6646 119.669 40.7092 119.431 40.7095H119.526C120.035 40.709 120.522 40.5069 120.882 40.1476C121.241 39.7883 121.443 39.3012 121.444 38.7931V34.1563C121.443 33.6482 121.241 33.1611 120.882 32.8018C120.522 32.4425 120.035 32.2405 119.526 32.2399V32.2399Z" fill="#C996CC"/>
<path opacity="0.21" d="M119.526 32.2399H119.431C119.726 32.2401 120.017 32.3088 120.281 32.4405H119.85C119.385 32.4411 118.94 32.6256 118.612 32.9538C118.283 33.2819 118.098 33.7268 118.098 34.1909V38.8278C118.098 39.2918 118.283 39.7367 118.612 40.0648C118.94 40.393 119.385 40.5776 119.85 40.5781H120.124C119.904 40.6646 119.669 40.7092 119.431 40.7095H119.526C120.035 40.709 120.522 40.5069 120.882 40.1476C121.241 39.7883 121.443 39.3012 121.444 38.7931V34.1563C121.443 33.6482 121.241 33.1611 120.882 32.8018C120.522 32.4425 120.035 32.2405 119.526 32.2399V32.2399Z" fill="black"/>
<path d="M119.868 40.5926C119.404 40.5921 118.958 40.4075 118.63 40.0794C118.302 39.7512 118.117 39.3063 118.116 38.8423V34.2054C118.117 33.7413 118.302 33.2964 118.63 32.9683C118.958 32.6402 119.404 32.4556 119.868 32.4551H120.299C120.035 32.3234 119.745 32.2547 119.45 32.2544H114.809C114.301 32.255 113.813 32.4571 113.454 32.8163C113.094 33.1756 112.892 33.6627 112.891 34.1708V38.8077C112.892 39.3158 113.094 39.8029 113.454 40.1621C113.813 40.5214 114.301 40.7235 114.809 40.7241H119.45C119.687 40.7237 119.922 40.6792 120.143 40.5926L119.868 40.5926Z" fill="#C996CC"/>
<path d="M132.167 40.5926C131.703 40.5921 131.258 40.4075 130.929 40.0794C130.601 39.7512 130.416 39.3063 130.416 38.8423V34.2054C130.416 33.7413 130.601 33.2964 130.929 32.9683C131.258 32.6402 131.703 32.4556 132.167 32.4551H132.598C132.335 32.3234 132.044 32.2547 131.749 32.2544H127.109C126.6 32.255 126.113 32.4571 125.753 32.8163C125.394 33.1756 125.191 33.6627 125.191 34.1708V38.8077C125.191 39.3158 125.394 39.8029 125.753 40.1621C126.113 40.5214 126.6 40.7235 127.109 40.7241H131.749C131.986 40.7237 132.221 40.6792 132.442 40.5926L132.167 40.5926Z" fill="#3F3D56"/>
<path d="M137.647 33.4083C139.35 35.7494 140.908 38.1925 142.313 40.7238H139.407C138.899 40.7231 138.411 40.5209 138.052 40.1617C137.692 39.8024 137.49 39.3154 137.489 38.8073V34.1706C137.489 33.9084 137.543 33.6489 137.647 33.4083V33.4083Z" fill="#FF6584"/>
<path d="M131.822 43.1567L130.196 40.7238L129.008 38.9451C128.938 38.8412 128.841 38.7591 128.727 38.7083C128.613 38.6574 128.487 38.6399 128.363 38.6578C128.239 38.6757 128.123 38.7283 128.028 38.8094C127.933 38.8905 127.863 38.9969 127.826 39.1162L127.326 40.7238L126.319 43.9539C126.279 44.0826 126.279 44.2203 126.32 44.3487C126.36 44.4772 126.439 44.5902 126.546 44.6726C126.652 44.7551 126.782 44.8032 126.916 44.8103C127.051 44.8175 127.184 44.7835 127.299 44.7128L127.657 44.4919C127.728 44.4476 127.811 44.4224 127.895 44.4187C127.979 44.4149 128.063 44.4328 128.139 44.4705C128.214 44.5083 128.279 44.5647 128.327 44.6344C128.374 44.7041 128.403 44.7849 128.411 44.8689L128.739 48.4395C128.754 48.6035 128.83 48.7559 128.951 48.867C129.073 48.9782 129.232 49.0401 129.397 49.0407C129.417 49.0407 129.437 49.039 129.458 49.0373L129.96 48.9925C130.047 48.9846 130.131 48.9598 130.208 48.9194C130.285 48.879 130.353 48.8238 130.409 48.757C130.464 48.6902 130.506 48.6131 130.532 48.5301C130.557 48.4471 130.567 48.3599 130.558 48.2734L130.221 44.5866C130.213 44.5 130.228 44.4128 130.265 44.3338C130.301 44.2548 130.358 44.1868 130.429 44.1367C130.5 44.0865 130.583 44.0559 130.67 44.048C130.756 44.0401 130.843 44.0552 130.922 44.0917L130.996 44.1249C131.127 44.1852 131.274 44.201 131.414 44.17C131.555 44.1391 131.682 44.063 131.776 43.9534C131.869 43.8437 131.924 43.7066 131.933 43.5628C131.941 43.419 131.902 43.2764 131.822 43.1567V43.1567Z" fill="#CCCCCC"/>
</g>
<defs>
<clipPath id="clip0_58_285">
<rect width="150" height="145.665" fill="white" transform="translate(0.526367 0.519775)"/>
</clipPath>
</defs>
</svg>
