<svg width="151" height="151" viewBox="0 0 151 151" fill="none" xmlns="http://www.w3.org/2000/svg">
<path d="M150.168 75.6983C150.177 84.2309 148.725 92.7022 145.874 100.745C145.862 100.783 145.849 100.816 145.835 100.854V100.856C143.7 106.839 140.808 112.526 137.23 117.778C136.611 118.693 135.969 119.593 135.305 120.478C134.574 121.457 133.821 122.416 133.044 123.356C132.328 124.222 131.593 125.072 130.839 125.906C129.942 126.899 129.02 127.867 128.07 128.809C125.835 131.032 123.463 133.113 120.966 135.038C120.527 135.378 120.084 135.712 119.637 136.04C118.595 136.809 117.532 137.551 116.448 138.265C114.064 139.839 111.591 141.275 109.042 142.565C108.602 142.789 108.159 143.01 107.713 143.223C105.991 144.054 104.233 144.819 102.44 145.517C101.929 145.718 101.416 145.913 100.897 146.099C100.81 146.133 100.723 146.165 100.634 146.195C94.4864 148.412 88.0739 149.811 81.5613 150.357C81.1088 150.398 80.6557 150.432 80.202 150.46C79.721 150.494 79.2394 150.521 78.7572 150.542C78.376 150.561 77.9965 150.576 77.6135 150.586C77.5351 150.59 77.455 150.593 77.3766 150.593C76.8617 150.609 76.3451 150.619 75.8267 150.624C75.6076 150.625 75.3885 150.627 75.1675 150.627C75.0642 150.627 74.9609 150.627 74.8576 150.625C73.3629 150.62 71.8796 150.571 70.4075 150.479C70.3772 150.478 70.3469 150.474 70.3166 150.474C69.7893 150.438 69.2638 150.401 68.74 150.355C66.8748 150.198 65.0298 149.973 63.205 149.679C62.7845 149.613 62.3653 149.541 61.9472 149.465C60.1319 149.145 58.3404 148.758 56.5725 148.306C56.047 148.173 55.5244 148.033 55.0048 147.888C47.781 145.877 40.9019 142.79 34.5999 138.729C33.5167 138.033 32.4538 137.31 31.411 136.558C31.2828 136.469 31.1563 136.376 31.0298 136.284C28.4968 134.439 26.0818 132.437 23.7988 130.291C22.7174 129.277 21.6676 128.23 20.6492 127.152C7.47114 113.259 0.138899 94.8387 0.167564 75.6983C0.167564 34.3166 33.7465 0.769531 75.1675 0.769531C116.589 0.769531 150.168 34.3166 150.168 75.6983Z" fill="#F2F2F2"/>
<path d="M92.5721 115.36L89.4229 118.263L91.9257 114.058C89.9539 110.478 86.729 107.384 86.729 107.384C86.729 107.384 80.0386 113.802 80.0386 118.847C80.0386 123.893 83.034 125.654 86.729 125.654C90.424 125.654 93.4194 123.893 93.4194 118.847C93.4194 117.724 93.0875 116.533 92.5721 115.36Z" fill="#C996CC"/>
<path d="M88.6132 118.42V118.669C88.5984 121.56 88.1115 123.815 87.1562 125.404C87.1426 125.427 87.1279 125.449 87.1144 125.472L87.0074 125.407L86.9053 125.343C87.9652 123.628 88.3402 121.204 88.3537 118.683C88.355 118.601 88.3562 118.519 88.355 118.436C88.3513 117.369 88.2861 116.289 88.1816 115.24C88.1742 115.159 88.1656 115.077 88.157 114.994C88.0119 113.61 87.8029 112.288 87.589 111.139C87.5742 111.058 87.5582 110.977 87.5422 110.897C87.1722 108.954 86.7947 107.547 86.7086 107.235C86.6988 107.197 86.6926 107.176 86.6914 107.171L86.8082 107.138L86.8094 107.137L86.9275 107.104C86.9287 107.109 86.9496 107.179 86.984 107.309C87.1156 107.797 87.4574 109.12 87.7931 110.866C87.8078 110.945 87.8238 111.026 87.8386 111.107C88.0131 112.039 88.1841 113.081 88.3193 114.174C88.3537 114.449 88.3845 114.72 88.4115 114.987C88.4214 115.069 88.43 115.152 88.4374 115.233C88.5505 116.367 88.6091 117.429 88.6132 118.42Z" fill="#3D2C8D"/>
<path d="M87.793 110.866C87.7106 110.877 87.627 110.888 87.5422 110.897C87.3118 110.921 87.0803 110.933 86.8487 110.933C85.8617 110.934 84.8869 110.714 83.9962 110.288C83.9446 110.353 83.893 110.418 83.8401 110.485C84.777 110.943 85.8061 111.18 86.8487 111.179C87.096 111.179 87.343 111.166 87.5889 111.14C87.6725 111.131 87.7561 111.12 87.8385 111.108C88.5185 111.01 89.1797 110.809 89.7996 110.513C89.7467 110.445 89.6951 110.379 89.6447 110.313C89.058 110.588 88.434 110.774 87.793 110.866V110.866Z" fill="#3D2C8D"/>
<path d="M88.4114 114.987C88.3265 114.992 88.2417 114.994 88.1569 114.994C88.131 114.995 88.104 114.995 88.0782 114.995C87.0087 114.995 85.955 114.737 85.007 114.241C84.059 113.745 83.2448 113.027 82.6339 112.148C82.5847 112.22 82.5355 112.293 82.4875 112.367C83.1244 113.256 83.9636 113.981 84.9359 114.481C85.9081 114.981 86.9853 115.242 88.0782 115.242C88.1126 115.242 88.147 115.242 88.1815 115.24C88.2675 115.239 88.3524 115.237 88.4372 115.233C89.75 115.166 91.0156 114.721 92.0827 113.953C92.0434 113.88 92.004 113.807 91.9635 113.735C90.9263 114.489 89.6919 114.924 88.4114 114.987V114.987Z" fill="#3D2C8D"/>
<path d="M88.6132 118.42C88.5272 118.428 88.4411 118.433 88.355 118.436C88.2628 118.44 88.1706 118.443 88.0784 118.443C86.6412 118.441 85.2433 117.973 84.0938 117.109C82.9444 116.246 82.1053 115.032 81.7021 113.651C81.6468 113.751 81.5914 113.849 81.5386 113.949C81.9928 115.327 82.8692 116.527 84.0432 117.378C85.2172 118.229 86.6291 118.687 88.0784 118.689C88.1706 118.689 88.2628 118.688 88.3538 118.683C88.4411 118.68 88.5272 118.675 88.6132 118.669C90.3517 118.533 91.9734 117.74 93.1502 116.452C93.1244 116.361 93.0948 116.271 93.0653 116.18C91.9287 117.478 90.3318 118.282 88.6132 118.42V118.42Z" fill="#3D2C8D"/>
<path d="M36.248 65.5773C45.1617 65.5773 52.3878 58.3417 52.3878 49.4162C52.3878 40.4906 45.1617 33.255 36.248 33.255C27.3342 33.255 20.1082 40.4906 20.1082 49.4162C20.1082 58.3417 27.3342 65.5773 36.248 65.5773Z" fill="#C996CC"/>
<path d="M36.2479 62.8838C43.6761 62.8838 49.6978 56.8541 49.6978 49.4161C49.6978 41.9782 43.6761 35.9485 36.2479 35.9485C28.8198 35.9485 22.7981 41.9782 22.7981 49.4161C22.7981 56.8541 28.8198 62.8838 36.2479 62.8838Z" fill="#3D2C8D"/>
<path d="M79.1081 65.5773C88.0218 65.5773 95.2479 58.3417 95.2479 49.4162C95.2479 40.4906 88.0218 33.255 79.1081 33.255C70.1943 33.255 62.9683 40.4906 62.9683 49.4162C62.9683 58.3417 70.1943 65.5773 79.1081 65.5773Z" fill="#C996CC"/>
<path d="M79.1081 62.8838C86.5362 62.8838 92.5579 56.8541 92.5579 49.4161C92.5579 41.9782 86.5362 35.9485 79.1081 35.9485C71.6799 35.9485 65.6582 41.9782 65.6582 49.4161C65.6582 56.8541 71.6799 62.8838 79.1081 62.8838Z" fill="white"/>
<path d="M121.968 65.5773C130.882 65.5773 138.108 58.3417 138.108 49.4162C138.108 40.4906 130.882 33.255 121.968 33.255C113.055 33.255 105.829 40.4906 105.829 49.4162C105.829 58.3417 113.055 65.5773 121.968 65.5773Z" fill="#C996CC"/>
<path d="M121.968 62.8838C129.397 62.8838 135.418 56.8541 135.418 49.4161C135.418 41.9782 129.397 35.9485 121.968 35.9485C114.54 35.9485 108.519 41.9782 108.519 49.4161C108.519 56.8541 114.54 62.8838 121.968 62.8838Z" fill="white"/>
<path d="M35.1051 54.2863C35.0811 54.2863 35.057 54.2858 35.0329 54.2846C34.8202 54.2743 34.6122 54.2181 34.4232 54.1198C34.2342 54.0215 34.0687 53.8834 33.938 53.715L31.8749 51.0589C31.6347 50.7489 31.527 50.3561 31.5756 49.9668C31.6242 49.5774 31.8251 49.2233 32.1341 48.982L32.2083 48.9241C32.5179 48.6836 32.9102 48.5758 33.299 48.6245C33.6879 48.6731 34.0416 48.8742 34.2826 49.1837C34.3989 49.3334 34.5461 49.4562 34.7141 49.5436C34.8822 49.6311 35.0672 49.6811 35.2564 49.6904C35.4455 49.6996 35.6345 49.6678 35.8102 49.5971C35.986 49.5265 36.1444 49.4186 36.2747 49.2809L40.4639 44.8529C40.5974 44.7118 40.7574 44.5984 40.9347 44.5192C41.1119 44.44 41.303 44.3965 41.4971 44.3913C41.6911 44.386 41.8843 44.4191 42.0656 44.4886C42.2468 44.5581 42.4127 44.6627 42.5536 44.7964L42.622 44.8613C42.9065 45.1313 43.0723 45.5034 43.0829 45.8957C43.0935 46.2881 42.948 46.6686 42.6784 46.9535L36.1778 53.8242C36.0398 53.9702 35.8734 54.0865 35.689 54.166C35.5046 54.2454 35.3059 54.2864 35.1051 54.2863V54.2863Z" fill="white"/>
<path d="M72.0244 46.1437H61.4011V36.8926C61.4121 36.3198 61.6494 35.7747 62.061 35.3768C62.4727 34.9789 63.0251 34.7606 63.5972 34.7699H67.1284C69.8281 34.7699 72.0244 36.8928 72.0244 39.5021V46.1437Z" fill="#2F2E41"/>
<path d="M75.9573 123.557L73.9407 123.557L72.9812 115.768L75.9577 115.768L75.9573 123.557Z" fill="#FFB6B6"/>
<path d="M76.4717 125.514L69.969 125.514V125.432C69.969 124.759 70.2357 124.115 70.7104 123.64C71.185 123.164 71.8288 122.897 72.5 122.897H72.5002L76.4719 122.897L76.4717 125.514Z" fill="#2F2E41"/>
<path d="M57.3692 123.557L55.3524 123.557L54.3931 115.768L57.3695 115.768L57.3692 123.557Z" fill="#FFB6B6"/>
<path d="M57.8836 125.514L51.3809 125.514V125.432C51.3809 124.759 51.6476 124.115 52.1222 123.64C52.5969 123.164 53.2407 122.897 53.9119 122.897H53.9121L57.8837 122.897L57.8836 125.514Z" fill="#2F2E41"/>
<path d="M59.8043 60.9813L58.4883 69.3819L70.9901 69.5465L69.3451 61.4756L59.8043 60.9813Z" fill="#FFB6B6"/>
<path d="M58.851 67.3307L54.8692 77.9471L54.3757 121.943H57.7479L65.8084 86.5946L73.2108 121.02H76.5007L74.1978 82.312C74.1978 82.312 74.8769 74.5428 71.4013 69.9584L70.5553 67.511L58.851 67.3307Z" fill="#2F2E41"/>
<path d="M75.9307 75.6067C75.5826 75.5117 75.2595 75.3414 74.9843 75.1079C74.709 74.8744 74.4882 74.5832 74.3375 74.255C74.1867 73.9268 74.1097 73.5695 74.1117 73.2082C74.1138 72.847 74.195 72.4906 74.3495 72.1641L69.031 54.8016L72.943 54.0251L77.8072 71.044C78.3377 71.3403 78.7412 71.8211 78.9413 72.3954C79.1414 72.9697 79.1242 73.5975 78.8929 74.16C78.6616 74.7224 78.2323 75.1803 77.6863 75.4469C77.1404 75.7136 76.5157 75.7704 75.9307 75.6067H75.9307Z" fill="#FFB6B6"/>
<path d="M68.8923 65.6207L60.2744 65.4541C60.0281 65.4488 59.7903 65.3629 59.5974 65.2094C59.4045 65.0559 59.2672 64.8433 59.2065 64.6043C58.7445 62.7727 57.7281 57.9994 58.2672 53.2452C58.3736 52.3242 58.6634 51.4339 59.1195 50.627C59.5755 49.8202 60.1886 49.1131 60.9223 48.5476C61.6561 47.9821 62.4956 47.5698 63.3913 47.3349C64.2871 47.1 65.2207 47.0475 66.1371 47.1803C67.1037 47.3188 68.0302 47.6605 68.8557 48.1828C69.6812 48.7052 70.3871 49.3964 70.9271 50.2111C71.4671 51.0258 71.8289 51.9457 71.9889 52.9103C72.1488 53.8749 72.1033 54.8624 71.8553 55.8082C70.7705 59.9332 70.1578 62.8842 70.0341 64.5796C70.0158 64.8247 69.9179 65.0571 69.7553 65.2413C69.5927 65.4254 69.3743 65.5512 69.1336 65.5994V65.5994C69.062 65.6137 68.9892 65.6209 68.9162 65.6209C68.9082 65.6209 68.9003 65.6208 68.8923 65.6207Z" fill="#E4E4E4"/>
<path d="M42.7147 50.3697C42.7665 50.4859 42.809 50.6061 42.8419 50.7291L53.629 54.3995L55.7134 52.5761L58.8727 55.3663L55.496 58.9533C55.2232 59.243 54.8639 59.4364 54.472 59.5043C54.0801 59.5722 53.6768 59.511 53.3226 59.3298L41.7798 53.4259C41.3623 53.6823 40.8769 53.8054 40.3879 53.7787C39.8989 53.7521 39.4296 53.577 39.0424 53.2768C38.6553 52.9766 38.3685 52.5655 38.2204 52.0981C38.0723 51.6307 38.0697 51.1293 38.2132 50.6604C38.3566 50.1916 38.6392 49.7776 39.0233 49.4735C39.4075 49.1694 39.875 48.9896 40.3637 48.958C40.8523 48.9264 41.339 49.0446 41.759 49.2968C42.179 49.5489 42.5124 49.9232 42.7147 50.3697V50.3697Z" fill="#FFB6B6"/>
<path d="M53.6514 53.8141C53.6522 53.6654 53.6851 53.5186 53.7478 53.3837C53.8105 53.2488 53.9014 53.1291 54.0146 53.0326L57.9643 49.6637C58.4641 49.0902 59.1707 48.7386 59.9291 48.686C60.6875 48.6334 61.4358 48.8841 62.0098 49.3831C62.5838 49.8822 62.9367 50.5889 62.9911 51.3481C63.0455 52.1074 62.797 52.8573 62.3 53.4333L59.4873 57.819C59.407 57.9442 59.3007 58.0505 59.1757 58.1309C59.0507 58.2112 58.9098 58.2636 58.7627 58.2845C58.6157 58.3054 58.4658 58.2943 58.3234 58.252C58.181 58.2096 58.0493 58.1371 57.9374 58.0392L54.0051 54.6001C53.8931 54.5023 53.8036 54.3814 53.7425 54.2458C53.6815 54.1101 53.6504 53.9629 53.6514 53.8141V53.8141Z" fill="#E4E4E4"/>
<path d="M68.7926 59.1996C68.6611 59.1304 68.5461 59.0336 68.4554 58.9157C68.3647 58.7979 68.3005 58.6619 68.267 58.517L67.0993 53.4549C66.8211 52.7466 66.8349 51.9567 67.1375 51.2585C67.4401 50.5603 68.0069 50.0107 68.7135 49.7304C69.4202 49.45 70.2091 49.4617 70.9071 49.7628C71.6052 50.064 72.1555 50.6301 72.4374 51.3369L75.0302 55.8565C75.1042 55.9855 75.1495 56.1289 75.1632 56.2771C75.1768 56.4252 75.1584 56.5745 75.1092 56.7149C75.06 56.8552 74.9812 56.9833 74.8781 57.0904C74.775 57.1975 74.6501 57.2811 74.5118 57.3355L69.6522 59.2471C69.5139 59.3016 69.3656 59.3256 69.2172 59.3174C69.0689 59.3092 68.924 59.269 68.7926 59.1996Z" fill="#E4E4E4"/>
<path d="M72.9733 35.6739C73.3723 34.7386 72.6861 33.5485 71.4406 33.0157C70.1951 32.483 68.862 32.8094 68.463 33.7447C68.064 34.6801 68.7501 35.8702 69.9956 36.403C71.2411 36.9357 72.5743 36.6093 72.9733 35.6739Z" fill="#2F2E41"/>
<path d="M69.1095 42.6265C70.4419 40.1859 69.5461 37.1259 67.1087 35.7917C64.6713 34.4575 61.6153 35.3545 60.2829 37.7951C58.9505 40.2357 59.8463 43.2958 62.2836 44.6299C64.721 45.9641 67.7771 45.0671 69.1095 42.6265Z" fill="#FFB6B6"/>
<path d="M67.4554 34.4426H61.7024C61.2806 34.4372 60.8724 34.5916 60.5595 34.8749C60.2467 35.1582 60.0524 35.5495 60.0156 35.9702C60.0007 36.1938 60.0318 36.4181 60.1071 36.6291C60.1823 36.8402 60.3 37.0335 60.4529 37.1972C60.6058 37.3608 60.7906 37.4913 60.9959 37.5804C61.2012 37.6696 61.4226 37.7157 61.6464 37.7157V37.7157C62.0799 37.7157 62.4956 37.8881 62.8021 38.195C63.1086 38.5019 63.2807 38.9181 63.2807 39.3522V46.0619H72.2697V39.2633C72.2697 38.6302 72.1451 38.0034 71.9032 37.4185C71.6613 36.8336 71.3067 36.3022 70.8596 35.8546C70.4126 35.4069 69.8818 35.0519 69.2978 34.8096C68.7137 34.5673 68.0876 34.4426 67.4554 34.4426V34.4426Z" fill="#2F2E41"/>
<path d="M101.103 125.76H38.8346C38.7912 125.76 38.7497 125.743 38.719 125.712C38.6884 125.681 38.6711 125.64 38.6711 125.596C38.6711 125.553 38.6884 125.511 38.719 125.481C38.7497 125.45 38.7912 125.433 38.8346 125.433H101.103C101.147 125.433 101.188 125.45 101.219 125.481C101.25 125.511 101.267 125.553 101.267 125.596C101.267 125.64 101.25 125.681 101.219 125.712C101.188 125.743 101.147 125.76 101.103 125.76Z" fill="#3D2C8D"/>
</svg>
