<svg width="152" height="151" viewBox="0 0 152 151" fill="none" xmlns="http://www.w3.org/2000/svg">
<g clip-path="url(#clip0_58_676)">
<path d="M150.955 75.2297C150.965 83.7622 149.513 92.2335 146.662 100.277C146.65 100.314 146.637 100.348 146.623 100.385V100.387C144.488 106.371 141.596 112.057 138.018 117.309C137.398 118.224 136.756 119.124 136.093 120.009C135.362 120.988 134.609 121.947 133.832 122.887C133.116 123.754 132.381 124.604 131.626 125.437C130.73 126.43 129.808 127.398 128.858 128.34C126.623 130.564 124.25 132.644 121.753 134.569C121.315 134.909 120.872 135.243 120.425 135.571C119.382 136.34 118.319 137.082 117.236 137.796C114.852 139.37 112.379 140.806 109.83 142.096C109.39 142.32 108.946 142.541 108.501 142.755C106.778 143.586 105.021 144.35 103.228 145.049C102.717 145.25 102.204 145.444 101.685 145.631C101.598 145.665 101.511 145.697 101.422 145.727C95.2742 147.943 88.8617 149.342 82.3491 149.888C81.8966 149.929 81.4435 149.963 80.9898 149.991C80.5088 150.025 80.0273 150.052 79.5451 150.073C79.1638 150.093 78.7844 150.107 78.4014 150.118C78.323 150.121 78.2428 150.125 78.1644 150.125C77.6496 150.141 77.1329 150.151 76.6145 150.155C76.3954 150.157 76.1763 150.159 75.9554 150.159C75.8521 150.159 75.7487 150.159 75.6454 150.157C74.1508 150.151 72.6674 150.103 71.1953 150.011C71.165 150.009 71.1347 150.005 71.1044 150.005C70.5771 149.97 70.0516 149.932 69.5278 149.886C67.6626 149.73 65.8176 149.504 63.9928 149.21C63.5724 149.144 63.1531 149.073 62.7351 148.996C60.9198 148.676 59.1282 148.29 57.3604 147.838C56.8348 147.704 56.3123 147.565 55.7927 147.419C48.5688 145.409 41.6898 142.321 35.3877 138.261C34.3046 137.565 33.2416 136.841 32.1989 136.089C32.0706 136 31.9441 135.908 31.8176 135.815C29.2846 133.97 26.8696 131.969 24.5866 129.823C23.5053 128.808 22.4554 127.762 21.437 126.683C8.25898 112.79 0.926741 94.37 0.955406 75.2297C0.955406 33.848 34.5344 0.300903 75.9554 0.300903C117.376 0.300903 150.955 33.848 150.955 75.2297Z" fill="#F2F2F2"/>
<path d="M48.3398 122.39C48.1876 122.397 48.0369 122.357 47.9082 122.276C47.7795 122.195 47.6789 122.077 47.6201 121.938C47.5614 121.798 47.5472 121.644 47.5796 121.496C47.612 121.348 47.6894 121.214 47.8013 121.111C47.82 121.038 47.8335 120.984 47.8522 120.91C47.7065 120.543 47.4537 120.227 47.1261 120.004C46.7985 119.78 46.411 119.659 46.0134 119.655C45.6157 119.651 45.226 119.765 44.8942 119.983C44.5624 120.2 44.3036 120.511 44.151 120.876C43.2704 122.922 42.1306 125.04 42.6974 127.294C38.9532 119.417 40.2265 109.619 45.7599 102.883C47.2894 102.047 48.5291 100.561 48.8518 98.8358C48.0949 99.0904 47.1511 98.4792 47.7202 97.6877C47.9669 97.3853 48.216 97.0852 48.4627 96.7826C45.5873 93.743 42.1612 98.5203 45.3262 102.623C44.2909 103.911 43.3941 105.304 42.6504 106.777C42.8221 105.213 42.6172 103.63 42.0524 102.159C41.4799 100.788 40.407 99.6338 39.4621 98.4488C38.3133 97.0049 35.9489 97.671 35.7943 99.5034C36.8545 99.8492 36.9923 101.369 35.7795 101.577C36.0971 104.986 38.3406 108.119 41.4306 109.614C40.2895 112.792 39.8439 116.175 40.1235 119.537C39.5781 115.607 35.3285 114.654 32.3583 113.092C32.1692 112.972 31.949 112.908 31.7244 112.91C31.4998 112.912 31.2806 112.979 31.0936 113.102C30.9065 113.225 30.7596 113.4 30.6708 113.605C30.5821 113.81 30.5553 114.036 30.5937 114.255C31.0037 114.421 31.3961 114.626 31.7651 114.869C31.938 114.984 32.0708 115.15 32.1451 115.343C32.2194 115.536 32.2318 115.747 32.1804 115.948C32.129 116.148 32.0164 116.328 31.8581 116.462C31.6997 116.597 31.5033 116.679 31.2959 116.699C32.7931 120.377 36.664 122.847 40.6396 122.833C41.0216 124.481 41.5752 126.085 42.2913 127.619H48.192C48.2131 127.554 48.2321 127.487 48.2512 127.422C47.705 127.456 47.1567 127.424 46.6185 127.325C48.0635 125.627 49.181 124.761 48.34 122.39L48.3398 122.39Z" fill="#916BBF"/>
<path d="M100.945 122.39C101.098 122.397 101.248 122.357 101.377 122.276C101.506 122.195 101.606 122.077 101.665 121.938C101.724 121.798 101.738 121.644 101.706 121.496C101.673 121.348 101.596 121.214 101.484 121.111C101.465 121.038 101.452 120.984 101.433 120.91C101.579 120.543 101.831 120.227 102.159 120.004C102.487 119.78 102.874 119.659 103.272 119.655C103.669 119.651 104.059 119.765 104.391 119.983C104.723 120.2 104.982 120.511 105.134 120.876C106.015 122.922 107.155 125.04 106.588 127.294C110.332 119.417 109.059 109.619 103.525 102.883C101.996 102.047 100.756 100.561 100.433 98.8358C101.19 99.0904 102.134 98.4792 101.565 97.6877C101.318 97.3853 101.069 97.0852 100.822 96.7826C103.698 93.743 107.124 98.5203 103.959 102.623C104.994 103.911 105.891 105.304 106.635 106.777C106.463 105.213 106.668 103.63 107.233 102.159C107.805 100.788 108.878 99.6338 109.823 98.4488C110.972 97.0049 113.336 97.671 113.491 99.5034C112.431 99.8492 112.293 101.369 113.506 101.577C113.188 104.986 110.945 108.119 107.855 109.614C108.996 112.792 109.441 116.175 109.162 119.537C109.707 115.607 113.957 114.654 116.927 113.092C117.116 112.972 117.336 112.908 117.561 112.91C117.785 112.912 118.005 112.979 118.192 113.102C118.379 113.225 118.526 113.4 118.614 113.605C118.703 113.81 118.73 114.036 118.691 114.255C118.281 114.421 117.889 114.626 117.52 114.869C117.347 114.984 117.214 115.15 117.14 115.343C117.066 115.536 117.053 115.747 117.105 115.948C117.156 116.148 117.269 116.328 117.427 116.462C117.585 116.597 117.782 116.679 117.989 116.699C116.492 120.377 112.621 122.847 108.646 122.833C108.264 124.481 107.71 126.085 106.994 127.619H101.093C101.072 127.554 101.053 127.487 101.034 127.422C101.58 127.456 102.128 127.424 102.667 127.325C101.222 125.627 100.104 124.761 100.945 122.39L100.945 122.39Z" fill="#916BBF"/>
<path d="M103.133 123.26L100.592 123.833L97.1523 114.377L100.903 113.53L103.133 123.26Z" fill="#FFB6B6"/>
<path d="M103.826 125.871L96.0116 127.635L95.9891 127.537C95.8056 126.737 95.95 125.896 96.3906 125.201C96.8312 124.506 97.5319 124.013 98.3385 123.831L98.3387 123.831L99.5196 122.434L102.429 122.907L103.111 122.753L103.826 125.871Z" fill="#2F2E41"/>
<path d="M144.126 77.1671L145.522 79.3508L137.702 85.739L135.64 82.5159L144.126 77.1671Z" fill="#FFB6B6"/>
<path d="M146.372 75.6434L150.668 82.3586L150.582 82.4126C149.884 82.8528 149.038 82.9996 148.231 82.8207C147.423 82.6419 146.72 82.152 146.277 81.4588L146.277 81.4587L144.555 80.8231L144.028 77.9434L143.653 77.3573L146.372 75.6434Z" fill="#2F2E41"/>
<path d="M63.1237 53.8203L62.4961 50.2094L72.038 45.9324L74.0986 42.311C74.0321 41.9932 74.0553 41.6634 74.1658 41.3579C74.2762 41.0524 74.4696 40.7831 74.7246 40.5799C74.9795 40.3766 75.2861 40.2473 75.6104 40.2061C75.9348 40.165 76.2643 40.2136 76.5626 40.3466C76.8608 40.4797 77.1162 40.692 77.3005 40.9601C77.4849 41.2282 77.591 41.5416 77.6071 41.8658C77.6233 42.19 77.5488 42.5123 77.392 42.7971C77.2352 43.0819 77.0021 43.3182 76.7185 43.4798L73.3287 48.6818L63.1237 53.8203Z" fill="#A0616A"/>
<path d="M60.2231 50.8685L64.5201 48.6897L65.6576 52.9292L62.6729 55.1253L60.2231 50.8685Z" fill="#6C63FF"/>
<path d="M50.5809 122.931L53.179 122.931L54.415 112.984L50.5803 112.984L50.5809 122.931Z" fill="#A0616A"/>
<path d="M54.0437 123.163V121.415L53.3607 121.456L50.5803 121.62L49.9368 121.659L49.4448 127.514L49.4185 127.828H51.2633L51.3226 127.517L51.5905 126.1L52.2823 127.517L52.4339 127.828H57.3248C57.6159 127.827 57.8945 127.711 58.1001 127.506C58.3057 127.302 58.4217 127.025 58.4229 126.736C58.6294 125.779 54.562 123.71 54.0437 123.163Z" fill="#2F2E41"/>
<path d="M19.7399 83.4537L19.1343 85.9618L28.5914 89.4742L29.4851 85.7727L19.7399 83.4537Z" fill="#A0616A"/>
<path d="M18.9106 86.7421L20.6235 87.1498L20.7421 86.4808L21.2302 83.7589L21.3418 83.1286L15.7201 81.2884L15.4187 81.1898L14.9886 82.9705L15.2801 83.1005L16.6059 83.6895L15.0564 84.0269L14.7156 84.1005L13.5752 88.8215C13.5092 89.1029 13.5576 89.3987 13.71 89.6449C13.8624 89.891 14.1064 90.0675 14.3892 90.1361C15.2786 90.5585 18.2537 87.1148 18.9106 86.7421Z" fill="#2F2E41"/>
<path d="M54.5977 58.5519L51.2535 57.0001L44.5845 65.0113L40.5223 66.031C40.231 65.8836 39.9043 65.819 39.5783 65.8444C39.2523 65.8697 38.9397 65.984 38.675 66.1746C38.4103 66.3652 38.2039 66.6248 38.0785 66.9245C37.9531 67.2243 37.9136 67.5526 37.9644 67.8733C38.0152 68.1939 38.1543 68.4944 38.3663 68.7415C38.5783 68.9886 38.855 69.1727 39.1658 69.2735C39.4766 69.3743 39.8095 69.3879 40.1276 69.3127C40.4457 69.2375 40.7367 69.0765 40.9684 68.8475L46.9167 66.9712L54.5977 58.5519Z" fill="#A0616A"/>
<path d="M102.009 28.8956C101.301 28.8956 100.608 28.6869 100.018 28.296C99.4288 27.9051 98.9694 27.3495 98.6981 26.6994C98.4268 26.0493 98.3559 25.334 98.4942 24.6439C98.6325 23.9538 98.9738 23.3198 99.4751 22.8223C99.9763 22.3247 100.615 21.9859 101.31 21.8486C102.005 21.7114 102.726 21.7818 103.381 22.0511C104.036 22.3204 104.596 22.7764 104.989 23.3614C105.383 23.9465 105.594 24.6343 105.594 25.3379C105.592 26.2812 105.214 27.1855 104.543 27.8524C103.871 28.5194 102.96 28.8945 102.009 28.8956V28.8956ZM102.009 22.1886C101.382 22.1886 100.768 22.3733 100.247 22.7193C99.7249 23.0654 99.3183 23.5572 99.0781 24.1327C98.838 24.7082 98.7751 25.3414 98.8976 25.9523C99.02 26.5633 99.3222 27.1244 99.7659 27.5649C100.21 28.0053 100.775 28.3053 101.39 28.4268C102.006 28.5483 102.644 28.486 103.224 28.2476C103.803 28.0092 104.299 27.6055 104.647 27.0876C104.996 26.5697 105.182 25.9608 105.182 25.3379C105.181 24.503 104.847 23.7024 104.252 23.112C103.657 22.5216 102.851 22.1895 102.009 22.1886V22.1886Z" fill="#C996CC"/>
<path d="M101.757 26.6782C101.75 26.6782 101.742 26.678 101.735 26.6776C101.672 26.6746 101.609 26.6579 101.553 26.6288C101.496 26.5996 101.447 26.5587 101.408 26.5087L100.843 25.7882C100.808 25.7428 100.781 25.6907 100.766 25.6352C100.75 25.5796 100.746 25.5216 100.753 25.4644C100.761 25.4072 100.779 25.352 100.808 25.3019C100.836 25.2518 100.875 25.2078 100.921 25.1725L100.941 25.1568C100.987 25.1214 101.039 25.0953 101.095 25.08C101.151 25.0647 101.21 25.0605 101.267 25.0676C101.325 25.0748 101.381 25.0931 101.431 25.1216C101.481 25.1501 101.526 25.1882 101.561 25.2337C101.59 25.2701 101.626 25.2999 101.667 25.3211C101.708 25.3423 101.754 25.3545 101.8 25.3567C101.846 25.359 101.893 25.3512 101.936 25.3341C101.979 25.3169 102.018 25.2908 102.05 25.2573L103.196 24.056C103.277 23.9717 103.388 23.9225 103.505 23.9194C103.622 23.9162 103.736 23.9593 103.821 24.0392L103.84 24.057C103.882 24.0966 103.916 24.1441 103.939 24.1967C103.963 24.2493 103.976 24.306 103.978 24.3636C103.979 24.4212 103.969 24.4786 103.949 24.5324C103.928 24.5862 103.897 24.6354 103.857 24.6773L102.078 26.5412C102.036 26.5845 101.987 26.6189 101.932 26.6425C101.876 26.6661 101.817 26.6782 101.757 26.6782Z" fill="#C996CC"/>
<path d="M84.1173 71.9687C83.4084 71.9687 82.7155 71.7601 82.1261 71.3691C81.5367 70.9782 81.0773 70.4226 80.806 69.7725C80.5348 69.1224 80.4638 68.4071 80.6021 67.717C80.7404 67.0269 81.0817 66.393 81.583 65.8954C82.0842 65.3979 82.7228 65.059 83.4181 64.9218C84.1133 64.7845 84.834 64.8549 85.4889 65.1242C86.1438 65.3935 86.7036 65.8495 87.0974 66.4345C87.4912 67.0196 87.7014 67.7074 87.7014 68.411C87.7004 69.3543 87.3224 70.2586 86.6505 70.9255C85.9786 71.5925 85.0676 71.9676 84.1173 71.9687V71.9687ZM84.1173 65.2617C83.4898 65.2617 82.8764 65.4464 82.3546 65.7924C81.8328 66.1385 81.4262 66.6304 81.186 67.2058C80.9459 67.7813 80.8831 68.4145 81.0055 69.0255C81.1279 69.6364 81.4301 70.1975 81.8738 70.638C82.3175 71.0784 82.8829 71.3784 83.4983 71.4999C84.1138 71.6214 84.7517 71.5591 85.3315 71.3207C85.9113 71.0823 86.4068 70.6787 86.7554 70.1607C87.104 69.6428 87.2901 69.0339 87.2901 68.411C87.2892 67.5761 86.9546 66.7756 86.3598 66.1851C85.765 65.5947 84.9585 65.2626 84.1173 65.2617V65.2617Z" fill="#C996CC"/>
<path d="M83.8648 69.7513C83.8576 69.7513 83.8504 69.7511 83.8432 69.7508C83.7796 69.7477 83.7173 69.731 83.6608 69.7019C83.6043 69.6727 83.5548 69.6318 83.5157 69.5819L82.9511 68.8613C82.9154 68.8159 82.8892 68.7639 82.8738 68.7083C82.8584 68.6527 82.8541 68.5947 82.8613 68.5375C82.8685 68.4804 82.887 68.4251 82.9157 68.375C82.9444 68.325 82.9827 68.281 83.0286 68.2456L83.0489 68.2299C83.0947 68.1945 83.1471 68.1684 83.2031 68.1531C83.2591 68.1378 83.3176 68.1336 83.3752 68.1407C83.4328 68.1479 83.4884 68.1662 83.5389 68.1947C83.5894 68.2232 83.6337 68.2613 83.6693 68.3069C83.6979 68.3432 83.734 68.373 83.7751 68.3942C83.8163 68.4155 83.8617 68.4276 83.908 68.4298C83.9544 68.4321 84.0007 68.4244 84.0437 68.4072C84.0868 68.3901 84.1256 68.3639 84.1576 68.3305L85.3039 67.1292C85.3846 67.0448 85.4957 66.9956 85.6129 66.9925C85.7301 66.9893 85.8437 67.0324 85.9289 67.1123L85.9477 67.1301C85.9899 67.1697 86.0237 67.2172 86.0474 67.2698C86.0711 67.3224 86.084 67.3792 86.0856 67.4368C86.0872 67.4944 86.0773 67.5517 86.0565 67.6055C86.0357 67.6593 86.0045 67.7086 85.9646 67.7504L84.1856 69.6143C84.1443 69.6576 84.0946 69.6921 84.0394 69.7156C83.9843 69.7392 83.9249 69.7513 83.8648 69.7513Z" fill="#C996CC"/>
<path d="M44.8375 23.9964C44.1287 23.9964 43.4357 23.7878 42.8463 23.3968C42.2569 23.0059 41.7975 22.4503 41.5262 21.8002C41.255 21.1501 41.184 20.4348 41.3223 19.7447C41.4606 19.0546 41.8019 18.4207 42.3032 17.9231C42.8044 17.4256 43.4431 17.0867 44.1383 16.9495C44.8336 16.8122 45.5542 16.8826 46.2091 17.1519C46.864 17.4212 47.4238 17.8772 47.8176 18.4622C48.2115 19.0473 48.4217 19.7351 48.4217 20.4388C48.4206 21.382 48.0426 22.2863 47.3707 22.9532C46.6988 23.6202 45.7878 23.9954 44.8375 23.9964ZM44.8375 17.2894C44.21 17.2894 43.5966 17.4741 43.0748 17.8202C42.5531 18.1662 42.1464 18.6581 41.9062 19.2335C41.6661 19.809 41.6033 20.4423 41.7257 21.0532C41.8481 21.6641 42.1503 22.2253 42.594 22.6657C43.0378 23.1062 43.6031 23.4061 44.2186 23.5276C44.834 23.6491 45.472 23.5868 46.0517 23.3484C46.6315 23.11 47.127 22.7064 47.4756 22.1885C47.8243 21.6705 48.0104 21.0616 48.0104 20.4388C48.0094 19.6038 47.6748 18.8033 47.08 18.2129C46.4852 17.6224 45.6787 17.2903 44.8375 17.2894V17.2894Z" fill="#C996CC"/>
<path d="M44.5845 21.7791C44.5773 21.7791 44.5701 21.7788 44.5629 21.7785C44.4993 21.7754 44.4371 21.7587 44.3805 21.7296C44.324 21.7004 44.2745 21.6595 44.2354 21.6096L43.6708 20.8891C43.6352 20.8436 43.6089 20.7916 43.5935 20.736C43.5781 20.6805 43.5738 20.6224 43.581 20.5652C43.5882 20.5081 43.6067 20.4528 43.6354 20.4028C43.6641 20.3527 43.7025 20.3087 43.7483 20.2733L43.7686 20.2576C43.8144 20.2222 43.8668 20.1961 43.9228 20.1808C43.9788 20.1655 44.0373 20.1613 44.0949 20.1684C44.1525 20.1756 44.2082 20.1939 44.2586 20.2224C44.3091 20.251 44.3534 20.289 44.3891 20.3346C44.4176 20.3709 44.4537 20.4007 44.4949 20.4219C44.5361 20.4432 44.5814 20.4553 44.6277 20.4576C44.6741 20.4598 44.7204 20.4521 44.7635 20.4349C44.8065 20.4178 44.8454 20.3916 44.8773 20.3582L46.0237 19.1569C46.1044 19.0725 46.2155 19.0233 46.3326 19.0202C46.4498 19.017 46.5634 19.0601 46.6486 19.14L46.6674 19.1578C46.7096 19.1974 46.7435 19.2449 46.7671 19.2975C46.7908 19.3501 46.8038 19.4069 46.8053 19.4645C46.8069 19.5221 46.797 19.5794 46.7762 19.6332C46.7555 19.687 46.7242 19.7363 46.6843 19.7781L44.9053 21.642C44.864 21.6853 44.8143 21.7198 44.7591 21.7433C44.704 21.7669 44.6446 21.7791 44.5845 21.7791Z" fill="#C996CC"/>
<path d="M73.532 85.1964C65.2209 85.1964 55.6694 76.0416 47.2186 80.3913C21.6319 93.5609 25.1541 71.5235 17.8032 63.3276L18.0446 62.8472C26.1554 70.0661 36.282 75.9396 47.3297 79.8324C57.3134 83.3506 67.3719 84.9807 76.4142 84.5505L76.4299 85.1281C75.475 85.1738 74.509 85.1965 73.532 85.1964Z" fill="#916BBF"/>
<path d="M62.1308 23.3C63.0903 23.3 63.8681 22.2647 63.8681 20.9877C63.8681 19.7106 63.0903 18.6753 62.1308 18.6753C61.1713 18.6753 60.3936 19.7106 60.3936 20.9877C60.3936 22.2647 61.1713 23.3 62.1308 23.3Z" fill="#C996CC"/>
<path d="M82.1961 59.373C81.4019 59.8983 80.589 58.6481 81.3985 58.1461C82.1927 57.6209 83.0056 58.8711 82.1961 59.373Z" fill="#C996CC"/>
<path d="M77.6245 17.2834C78.8739 17.2834 79.8867 16.278 79.8867 15.0379C79.8867 13.7977 78.8739 12.7924 77.6245 12.7924C76.3751 12.7924 75.3623 13.7977 75.3623 15.0379C75.3623 16.278 76.3751 17.2834 77.6245 17.2834Z" fill="#FF6584"/>
<path opacity="0.3" d="M85.5371 27.3431L98.4098 -9.9751L84.2748 26.8964C84.2049 26.9839 84.157 27.0867 84.1351 27.1962C84.1132 27.3058 84.118 27.4189 84.1489 27.5263C84.1799 27.6337 84.2363 27.7322 84.3133 27.8136C84.3902 27.8951 84.4857 27.9571 84.5917 27.9946C84.6977 28.0321 84.8111 28.044 84.9227 28.0293C85.0342 28.0146 85.1406 27.9737 85.233 27.91C85.3255 27.8463 85.4013 27.7616 85.4541 27.663C85.507 27.5644 85.5354 27.4548 85.5371 27.3431H85.5371Z" fill="#916BBF"/>
<path d="M72.5438 72.8075C73.7593 72.8075 74.7448 71.8293 74.7448 70.6227C74.7448 69.4161 73.7593 68.438 72.5438 68.438C71.3282 68.438 70.3428 69.4161 70.3428 70.6227C70.3428 71.8293 71.3282 72.8075 72.5438 72.8075Z" fill="#916BBF"/>
<path d="M51.2266 71.4562C51.2266 71.4562 45.7396 75.0027 47.1904 77.3594C47.2405 77.4407 40.6362 86.0988 40.6362 86.0988L28.169 85.3132L27.7297 89.4551L38.829 92.646C38.829 92.646 41.5443 94.6262 43.6419 92.4444C45.7396 90.2627 52.7266 83.5817 52.7266 83.5817L53.0636 97.0705L49.5561 115.762L54.7932 115.432L59.8905 96.6801L61.7719 75.4387L51.2266 71.4562Z" fill="#2F2E41"/>
<path d="M55.1345 50.171L52.8271 51.9067L50.1972 57.4783L52.7261 60.8876C52.7261 60.8876 54.8534 64.5471 51.4484 68.0911C48.0434 71.6351 45.4287 75.4202 48.1541 75.2851C50.8794 75.1499 61.9176 80.7227 61.9902 76.1571C62.0628 71.5914 62.2098 68.0911 62.2098 68.0911L65.1038 60.8052C65.1038 60.8052 66.8279 56.4588 65.6174 55.1577C64.4069 53.8567 62.7861 52.1941 62.7861 52.1941L59.8386 49.2684H57.1773L55.1345 50.171Z" fill="#6C63FF"/>
<path d="M59.4419 39.4656C64.6183 42.3895 60.3687 50.1041 55.0958 47.357C49.9195 44.4332 54.1691 36.7186 59.4419 39.4656Z" fill="#A0616A"/>
<path d="M62.2105 41.0868C61.8478 41.5551 61.09 41.3355 59.606 41.6696C59.6093 41.1703 59.5512 40.6725 59.433 40.1872C59.3226 40.7881 59.0806 41.3576 58.7242 41.8555C57.4356 41.9974 59.0152 45.8831 58.3554 48.74C57.5054 42.7129 55.7174 44.2919 56.6207 45.4874C57.1989 46.2527 56.8134 48.5487 55.0786 47.4007C52.2163 48.751 48.1395 42.0434 52.6579 38.8977C52.5771 37.1973 54.4832 36.9287 55.6569 37.4515C58.5053 35.3453 61.7597 38.0441 62.2105 41.0868Z" fill="#2F2E41"/>
<path d="M48.9283 36.6889C47.7758 43.7224 41.5987 35.3954 38.6942 42.317C37.781 44.8236 39.3478 46.6168 40.3389 48.6974C40.5651 50.4073 38.3241 51.2748 38.0894 52.8487C38.0241 56.4571 43.8889 56.2363 45.5284 53.9597C47.2131 51.5765 45.2014 48.3791 46.214 45.8211C47.6372 42.2696 53.425 42.2432 53.9292 38.1114C52.9527 36.731 50.3269 35.1501 48.9283 36.6889Z" fill="#2F2E41"/>
<path d="M53.5974 37.3763C53.5597 37.3921 53.522 37.4078 53.4883 37.4256H53.4863C53.4546 37.4413 53.4228 37.4571 53.3911 37.4748C53.3871 37.4768 53.3851 37.4788 53.3811 37.4807C53.3395 37.4413 53.2978 37.4019 53.2541 37.3625C53.2428 37.4267 53.2455 37.4925 53.2621 37.5556L53.268 37.5792C53.3077 37.6206 53.3494 37.66 53.393 37.7013C53.4327 37.6718 53.4704 37.6403 53.5101 37.6107C53.5339 37.591 53.5577 37.5713 53.5835 37.5516C53.5875 37.5004 53.5935 37.4413 53.5994 37.3763L53.5974 37.3763ZM54.792 35.186C53.907 34.9851 53.6212 36.1335 53.5359 36.6869C53.2144 34.6778 51.877 35.3101 52.3394 36.681C52.4867 37.0869 52.7186 37.4574 53.02 37.7683C53.0617 37.8156 53.1073 37.8628 53.1549 37.9101C53.1013 38.1859 53.3712 38.115 53.7363 37.8609C54.0059 37.6705 54.2553 37.4534 54.4805 37.2128C55.2087 36.4545 55.7762 35.4401 54.792 35.186V35.186ZM54.8198 36.3166C54.5467 36.6661 54.2404 36.9887 53.905 37.2798C53.7998 37.3744 53.6927 37.465 53.5835 37.5516C53.5816 37.5694 53.5815 37.5851 53.5796 37.5989C53.5719 37.618 53.5626 37.6365 53.5518 37.654C53.4407 37.853 53.3156 37.7447 53.268 37.5792C53.2641 37.5733 53.2581 37.5674 53.2541 37.5615C53.0956 37.3989 52.9576 37.2176 52.8434 37.0218C52.0238 35.6115 53.3434 34.6522 53.2779 37.2857C53.2659 37.3099 53.2578 37.3358 53.2541 37.3625C53.2428 37.4267 53.2455 37.4925 53.2621 37.5556L53.268 37.5792C53.3077 37.6206 53.3494 37.66 53.393 37.7013C53.4327 37.6718 53.4704 37.6403 53.5101 37.6107C53.5339 37.591 53.5577 37.5713 53.5835 37.5516C53.5875 37.5004 53.5935 37.4413 53.5994 37.3763V37.3743C53.651 36.8465 53.7919 35.8971 54.0519 35.6391C54.6233 35.2038 55.3635 35.6745 54.8198 36.3166V36.3166ZM53.5974 37.3763C53.5597 37.3921 53.522 37.4078 53.4883 37.4256H53.4863C53.4546 37.4413 53.4228 37.4571 53.3911 37.4748C53.3871 37.4768 53.3851 37.4788 53.3811 37.4807C53.3395 37.4413 53.2978 37.4019 53.2541 37.3625C53.2428 37.4267 53.2455 37.4925 53.2621 37.5556L53.268 37.5792C53.3077 37.6206 53.3494 37.66 53.393 37.7013C53.4327 37.6718 53.4704 37.6403 53.5101 37.6107C53.5339 37.591 53.5577 37.5713 53.5835 37.5516C53.5875 37.5004 53.5935 37.4413 53.5994 37.3763L53.5974 37.3763Z" fill="#2F2E41"/>
<path d="M101.442 76.1542L99.5301 81.1032L90.5618 98.6631L98.4422 119.091L102.509 118.025L99.1571 98.6631L108.774 87.064L120.196 94.7532C120.196 94.7532 125.261 98.6784 127.188 94.9573C129.115 91.2362 141.584 83.3215 141.584 83.3215L138.499 80.0553L124.14 86.7252L114.23 72.879L101.442 76.1542Z" fill="#2F2E41"/>
<path d="M111.088 52.8101L107.941 49.4539L102.543 48.7167L95.928 53.3132L95.9946 58.401L99.2645 70.3898C99.2645 70.3898 98.019 79.0032 101.498 78.9168C104.977 78.8304 106.873 77.1088 108.29 77.4592C109.707 77.8097 115.73 79.3012 116.112 77.7389C116.494 76.1766 118.523 77.2952 118.434 75.8173C118.344 74.3394 112.941 63.6861 112.941 63.6861L114.284 53.0317L111.088 52.8101Z" fill="#6C63FF"/>
<path d="M131.014 37.3609C131.042 37.6392 131.009 37.9203 130.916 38.1843C130.823 38.4484 130.672 38.6889 130.475 38.889C130.278 39.0892 130.04 39.244 129.776 39.3426C129.512 39.4413 129.23 39.4813 128.949 39.46L121.712 53.1222L119.769 50.1615L127.166 37.2673C127.234 36.8011 127.471 36.3757 127.833 36.0716C128.196 35.7676 128.658 35.606 129.132 35.6175C129.606 35.6291 130.06 35.8129 130.407 36.1342C130.754 36.4555 130.97 36.892 131.014 37.3609V37.3609Z" fill="#FFB6B6"/>
<path d="M108.231 55.3504C108.231 55.3504 107.944 57.7806 110.7 58.3823C113.456 58.9839 121.092 54.6528 122.344 53.9913C122.736 53.7842 123.268 52.7689 123.814 51.4718C124.059 50.8895 124.307 50.2504 124.546 49.6022C124.684 49.2271 125.347 49.1247 125.478 48.7527C125.607 48.3827 125.205 47.743 125.322 47.3943C125.88 45.7392 126.275 44.4262 126.275 44.4262L124.448 41.02C121.893 42.3607 120.583 45.314 119.619 48.7163L108.231 55.3504Z" fill="#6C63FF"/>
<path d="M76.0416 40.4982C76.0845 40.7747 76.188 41.0384 76.3447 41.2709C76.5014 41.5034 76.7076 41.699 76.9487 41.8438C77.1898 41.9887 77.4599 42.0793 77.7401 42.1093C78.0203 42.1393 78.3037 42.1079 78.5704 42.0175L89.0218 53.4471L90.1565 50.098L79.7437 39.4517C79.5609 39.0171 79.2238 38.6641 78.7963 38.4598C78.3688 38.2554 77.8807 38.2137 77.4244 38.3427C76.968 38.4717 76.5752 38.7624 76.3204 39.1597C76.0656 39.5569 75.9664 40.0332 76.0416 40.4982V40.4982Z" fill="#FFB6B6"/>
<path d="M102.636 52.2558C102.636 52.2558 103.527 54.5373 101.01 55.8045C98.4928 57.0717 90.0078 54.7753 88.629 54.4458C88.1973 54.3427 87.4263 53.4918 86.5709 52.3716C86.1868 51.8687 85.7858 51.3115 85.3908 50.7433C85.1622 50.4145 84.4946 50.48 84.2745 50.1522C84.0557 49.8263 84.2842 49.1069 84.0825 48.7985C83.1254 47.3346 82.4119 46.1615 82.4119 46.1615L83.3218 42.4099C86.1334 43.0733 88.1467 45.607 89.9375 48.6617L102.636 52.2558Z" fill="#6C63FF"/>
<path d="M105.349 47.8629C108.186 47.8629 110.486 45.5802 110.486 42.7643C110.486 39.9485 108.186 37.6658 105.349 37.6658C102.513 37.6658 100.213 39.9485 100.213 42.7643C100.213 45.5802 102.513 47.8629 105.349 47.8629Z" fill="#FFB6B6"/>
<path d="M111.213 39.845C110.673 39.0153 109.659 38.4623 108.676 38.6177C108.584 37.9951 108.323 37.4093 107.919 36.9241C107.515 36.4389 106.985 36.073 106.387 35.8661C105.788 35.6592 105.143 35.6194 104.524 35.7508C103.904 35.8823 103.332 36.1801 102.871 36.6118C102.719 36.5058 102.542 36.4404 102.358 36.4221C102.173 36.4038 101.987 36.433 101.817 36.5071C101.479 36.6598 101.184 36.8943 100.961 37.1891C100.397 37.8873 100.034 38.7242 99.9115 39.6108C99.7886 40.4973 99.9103 41.4004 100.263 42.2238C100.143 41.7903 100.581 41.3825 101.023 41.2852C101.465 41.1879 101.929 41.28 102.378 41.2166C102.952 41.1355 103.469 40.8045 104.045 40.73C104.533 40.6985 105.022 40.761 105.487 40.914C105.951 41.0669 106.44 41.1321 106.928 41.1061C107.412 41.049 108.037 42.8715 108.028 44.1551C108.027 44.3983 108.077 44.7107 108.317 44.7623C108.611 44.8258 108.782 44.4218 109.063 44.3117C109.193 44.2749 109.331 44.2893 109.45 44.3521C109.569 44.4148 109.659 44.5209 109.7 44.6479C109.736 44.7771 109.739 44.9128 109.711 45.0437C109.683 45.1746 109.624 45.2969 109.538 45.4006C109.366 45.606 109.161 45.7823 108.932 45.9229L109.047 46.0184C109.157 46.1335 109.304 46.2071 109.462 46.2266C109.621 46.2462 109.781 46.2104 109.916 46.1254C110.181 45.9472 110.396 45.7046 110.539 45.4207C111.081 44.589 111.469 43.6677 111.683 42.7004C111.864 41.729 111.753 40.6747 111.213 39.845Z" fill="#2F2E41"/>
<path d="M149.213 59.954C142.587 64.9349 129.405 63.3613 125.314 71.8933C112.927 97.726 102.331 78.0477 91.4859 75.9197L91.386 75.392C102.243 76.2858 113.888 74.899 125.062 71.3812C135.161 68.2025 144.171 63.4738 151.117 57.7118L151.481 58.1628C150.748 58.7715 149.992 59.3686 149.213 59.954Z" fill="#916BBF"/>
<path d="M121.201 127.613C121.043 128.077 30.9508 128.077 30.7805 127.614C30.9381 127.149 121.031 127.149 121.201 127.613Z" fill="#CCCCCC"/>
</g>
<defs>
<clipPath id="clip0_58_676">
<rect width="151" height="150" fill="white" transform="translate(0.481201 0.184448)"/>
</clipPath>
</defs>
</svg>
