<svg width="305" height="113" viewBox="0 0 305 113" fill="none" xmlns="http://www.w3.org/2000/svg">
<path d="M0.921387 13.2962C0.921387 7.7734 5.40152 3.29623 10.9244 3.29623C110.215 3.29623 172.834 3.29623 266.513 3.29623C275.71 9.57109 291.528 20.3632 300.478 26.47V102.081C300.478 107.603 296.001 112.081 290.478 112.081H10.9214C5.39854 112.081 0.921387 107.603 0.921387 102.081V13.2962Z" fill="white"/>
<g filter="url(#filter0_d_58_220)">
<path d="M266.602 3.29315L300.453 26.4576C296.088 25.3587 285.435 25.452 277.235 25.7255C271.468 25.918 266.602 21.3388 266.602 15.5683L266.602 3.29315Z" fill="#C4C4C4"/>
</g>
<path d="M40.8409 40.2728C39.8329 40.2728 38.8609 40.0748 37.9249 39.6788C36.9889 39.2828 36.1609 38.7248 35.4409 38.0048L36.5929 36.6728C37.2769 37.3448 37.9729 37.8428 38.6809 38.1668C39.4009 38.4908 40.1509 38.6528 40.9309 38.6528C41.5429 38.6528 42.0769 38.5688 42.5329 38.4008C43.0009 38.2208 43.3609 37.9688 43.6129 37.6448C43.8649 37.3208 43.9909 36.9548 43.9909 36.5468C43.9909 35.9828 43.7929 35.5508 43.3969 35.2508C43.0009 34.9508 42.3469 34.7228 41.4349 34.5668L39.3289 34.2248C38.1769 34.0208 37.3129 33.6488 36.7369 33.1088C36.1729 32.5688 35.8909 31.8488 35.8909 30.9488C35.8909 30.2288 36.0829 29.5988 36.4669 29.0588C36.8509 28.5068 37.3909 28.0808 38.0869 27.7808C38.7949 27.4808 39.6109 27.3308 40.5349 27.3308C41.4469 27.3308 42.3409 27.4808 43.2169 27.7808C44.1049 28.0688 44.9029 28.4888 45.6109 29.0408L44.5669 30.4808C43.2109 29.4488 41.8369 28.9328 40.4449 28.9328C39.8929 28.9328 39.4129 29.0108 39.0049 29.1668C38.5969 29.3228 38.2789 29.5448 38.0509 29.8328C37.8229 30.1088 37.7089 30.4328 37.7089 30.8048C37.7089 31.3208 37.8829 31.7168 38.2309 31.9928C38.5789 32.2568 39.1549 32.4488 39.9589 32.5688L41.9929 32.9108C43.3249 33.1268 44.3029 33.5168 44.9269 34.0808C45.5509 34.6448 45.8629 35.4188 45.8629 36.4028C45.8629 37.1708 45.6529 37.8488 45.2329 38.4368C44.8129 39.0128 44.2249 39.4628 43.4689 39.7868C42.7129 40.1108 41.8369 40.2728 40.8409 40.2728ZM51.0583 40.2548C50.1703 40.2548 49.4923 40.0508 49.0243 39.6428C48.5563 39.2228 48.3223 38.6168 48.3223 37.8248V32.4428H46.3783V30.9308H48.3223V28.5908L50.1043 28.1588V30.9308H52.8043V32.4428H50.1043V37.4108C50.1043 37.8788 50.2063 38.2148 50.4103 38.4188C50.6263 38.6108 50.9743 38.7068 51.4543 38.7068C51.7063 38.7068 51.9283 38.6888 52.1203 38.6528C52.3243 38.6168 52.5403 38.5628 52.7683 38.4908V40.0028C52.5283 40.0868 52.2463 40.1468 51.9223 40.1828C51.6103 40.2308 51.3223 40.2548 51.0583 40.2548ZM57.6764 40.2728C56.9684 40.2728 56.3444 40.1228 55.8044 39.8228C55.2644 39.5228 54.8444 39.1028 54.5444 38.5628C54.2444 38.0108 54.0944 37.3808 54.0944 36.6728V30.9308H55.8764V36.3668C55.8764 37.0868 56.0804 37.6568 56.4884 38.0768C56.9084 38.4968 57.4664 38.7068 58.1624 38.7068C58.6544 38.7068 59.0924 38.6048 59.4764 38.4008C59.8604 38.1848 60.1724 37.8848 60.4124 37.5008V30.9308H62.2124V40.0928H60.4124V39.1568C59.7044 39.9008 58.7924 40.2728 57.6764 40.2728ZM68.5553 40.2368C67.7033 40.2368 66.9233 40.0268 66.2153 39.6068C65.5073 39.1868 64.9493 38.6228 64.5413 37.9148C64.1333 37.1948 63.9293 36.3908 63.9293 35.5028C63.9293 34.6148 64.1333 33.8168 64.5413 33.1088C64.9613 32.4008 65.5253 31.8368 66.2333 31.4168C66.9413 30.9968 67.7273 30.7868 68.5913 30.7868C69.0953 30.7868 69.5813 30.8648 70.0493 31.0208C70.5173 31.1768 70.9493 31.4048 71.3453 31.7048V27.4928L73.1453 27.1508V40.0928H71.3633V39.2108C70.5833 39.8948 69.6473 40.2368 68.5553 40.2368ZM68.7893 38.6708C69.3173 38.6708 69.7973 38.5748 70.2293 38.3828C70.6733 38.1908 71.0453 37.9148 71.3453 37.5548V33.4328C71.0453 33.0968 70.6733 32.8328 70.2293 32.6408C69.7973 32.4368 69.3173 32.3348 68.7893 32.3348C68.2133 32.3348 67.6913 32.4728 67.2233 32.7488C66.7553 33.0248 66.3833 33.4028 66.1073 33.8828C65.8313 34.3508 65.6933 34.8848 65.6933 35.4848C65.6933 36.0848 65.8313 36.6248 66.1073 37.1048C66.3833 37.5848 66.7553 37.9688 67.2233 38.2568C67.6913 38.5328 68.2133 38.6708 68.7893 38.6708ZM79.6688 40.2548C78.7688 40.2548 77.9528 40.0448 77.2208 39.6248C76.5008 39.2048 75.9248 38.6348 75.4928 37.9148C75.0728 37.1948 74.8628 36.3908 74.8628 35.5028C74.8628 34.6268 75.0668 33.8348 75.4748 33.1268C75.8828 32.4068 76.4348 31.8368 77.1308 31.4168C77.8268 30.9848 78.6008 30.7688 79.4528 30.7688C80.3048 30.7688 81.0608 30.9848 81.7208 31.4168C82.3808 31.8368 82.9028 32.4128 83.2868 33.1448C83.6828 33.8648 83.8808 34.6808 83.8808 35.5928V36.0968H76.6628C76.7588 36.6008 76.9448 37.0508 77.2208 37.4468C77.5088 37.8428 77.8688 38.1548 78.3008 38.3828C78.7448 38.6108 79.2248 38.7248 79.7408 38.7248C80.1848 38.7248 80.6108 38.6588 81.0188 38.5268C81.4388 38.3828 81.7868 38.1788 82.0628 37.9148L83.2148 39.0488C82.6748 39.4568 82.1168 39.7628 81.5408 39.9668C80.9768 40.1588 80.3528 40.2548 79.6688 40.2548ZM76.6808 34.7468H82.0988C82.0268 34.2668 81.8588 33.8468 81.5948 33.4868C81.3428 33.1148 81.0248 32.8268 80.6408 32.6228C80.2688 32.4068 79.8608 32.2988 79.4168 32.2988C78.9608 32.2988 78.5408 32.4008 78.1568 32.6048C77.7728 32.8088 77.4488 33.0968 77.1848 33.4688C76.9328 33.8288 76.7648 34.2548 76.6808 34.7468ZM85.5952 40.0928V30.9308H87.3952V31.8668C88.1032 31.1228 89.0212 30.7508 90.1492 30.7508C90.8572 30.7508 91.4752 30.9008 92.0032 31.2008C92.5432 31.5008 92.9632 31.9208 93.2632 32.4608C93.5752 33.0008 93.7312 33.6248 93.7312 34.3328V40.0928H91.9312V34.6388C91.9312 33.9188 91.7272 33.3548 91.3192 32.9468C90.9232 32.5268 90.3652 32.3168 89.6452 32.3168C89.1652 32.3168 88.7332 32.4188 88.3492 32.6228C87.9652 32.8268 87.6472 33.1208 87.3952 33.5048V40.0928H85.5952ZM99.4684 40.2548C98.5804 40.2548 97.9024 40.0508 97.4344 39.6428C96.9664 39.2228 96.7324 38.6168 96.7324 37.8248V32.4428H94.7884V30.9308H96.7324V28.5908L98.5144 28.1588V30.9308H101.214V32.4428H98.5144V37.4108C98.5144 37.8788 98.6164 38.2148 98.8204 38.4188C99.0364 38.6108 99.3844 38.7068 99.8644 38.7068C100.116 38.7068 100.338 38.6888 100.53 38.6528C100.734 38.6168 100.95 38.5628 101.178 38.4908V40.0028C100.938 40.0868 100.656 40.1468 100.332 40.1828C100.02 40.2308 99.7324 40.2548 99.4684 40.2548ZM105.866 40.2728C105.074 40.2728 104.33 40.1588 103.634 39.9308C102.95 39.6908 102.356 39.3548 101.852 38.9228L102.842 37.7348C103.31 38.1068 103.79 38.3948 104.282 38.5988C104.786 38.7908 105.296 38.8868 105.812 38.8868C106.46 38.8868 106.988 38.7608 107.396 38.5088C107.804 38.2568 108.008 37.9268 108.008 37.5188C108.008 37.1828 107.888 36.9188 107.648 36.7268C107.408 36.5348 107.036 36.4028 106.532 36.3308L104.876 36.0968C103.964 35.9648 103.28 35.6828 102.824 35.2508C102.368 34.8188 102.14 34.2428 102.14 33.5228C102.14 32.9708 102.29 32.4908 102.59 32.0828C102.89 31.6628 103.31 31.3388 103.85 31.1108C104.39 30.8708 105.02 30.7508 105.74 30.7508C106.4 30.7508 107.036 30.8468 107.648 31.0388C108.26 31.2308 108.848 31.5308 109.412 31.9388L108.494 33.1268C107.99 32.7908 107.498 32.5448 107.018 32.3888C106.55 32.2328 106.076 32.1548 105.596 32.1548C105.044 32.1548 104.6 32.2748 104.264 32.5148C103.928 32.7428 103.76 33.0428 103.76 33.4148C103.76 33.7508 103.874 34.0148 104.102 34.2068C104.342 34.3868 104.732 34.5128 105.272 34.5848L106.928 34.8188C107.84 34.9508 108.53 35.2328 108.998 35.6648C109.466 36.0848 109.7 36.6548 109.7 37.3748C109.7 37.9268 109.532 38.4248 109.196 38.8688C108.86 39.3008 108.404 39.6428 107.828 39.8948C107.252 40.1468 106.598 40.2728 105.866 40.2728ZM114.845 40.0928V30.9308H116.645V40.0928H114.845ZM115.745 29.4548C115.445 29.4548 115.187 29.3468 114.971 29.1308C114.755 28.9028 114.647 28.6388 114.647 28.3388C114.647 28.0268 114.755 27.7688 114.971 27.5648C115.187 27.3488 115.445 27.2408 115.745 27.2408C116.057 27.2408 116.321 27.3488 116.537 27.5648C116.753 27.7688 116.861 28.0268 116.861 28.3388C116.861 28.6388 116.753 28.9028 116.537 29.1308C116.321 29.3468 116.057 29.4548 115.745 29.4548ZM118.765 40.0928V30.9308H120.565V31.8668C121.273 31.1228 122.191 30.7508 123.319 30.7508C124.027 30.7508 124.645 30.9008 125.173 31.2008C125.713 31.5008 126.133 31.9208 126.433 32.4608C126.745 33.0008 126.901 33.6248 126.901 34.3328V40.0928H125.101V34.6388C125.101 33.9188 124.897 33.3548 124.489 32.9468C124.093 32.5268 123.535 32.3168 122.815 32.3168C122.335 32.3168 121.903 32.4188 121.519 32.6228C121.135 32.8268 120.817 33.1208 120.565 33.5048V40.0928H118.765ZM132.74 40.0928V27.4928L134.54 27.0968V31.8668C135.248 31.1228 136.166 30.7508 137.294 30.7508C138.002 30.7508 138.62 30.9008 139.148 31.2008C139.688 31.5008 140.108 31.9208 140.408 32.4608C140.72 33.0008 140.876 33.6248 140.876 34.3328V40.0928H139.076V34.6388C139.076 33.9188 138.872 33.3548 138.464 32.9468C138.056 32.5268 137.498 32.3168 136.79 32.3168C136.31 32.3168 135.878 32.4188 135.494 32.6228C135.11 32.8268 134.792 33.1208 134.54 33.5048V40.0928H132.74ZM142.953 40.0928V30.9308H144.753V40.0928H142.953ZM143.853 29.4548C143.553 29.4548 143.295 29.3468 143.079 29.1308C142.863 28.9028 142.755 28.6388 142.755 28.3388C142.755 28.0268 142.863 27.7688 143.079 27.5648C143.295 27.3488 143.553 27.2408 143.853 27.2408C144.165 27.2408 144.429 27.3488 144.645 27.5648C144.861 27.7688 144.969 28.0268 144.969 28.3388C144.969 28.6388 144.861 28.9028 144.645 29.1308C144.429 29.3468 144.165 29.4548 143.853 29.4548ZM151.409 43.9448C150.737 43.9448 150.083 43.8668 149.447 43.7108C148.811 43.5548 148.235 43.3328 147.719 43.0448L148.403 41.6408C148.943 41.9168 149.447 42.1148 149.915 42.2348C150.395 42.3668 150.875 42.4328 151.355 42.4328C152.159 42.4328 152.765 42.2468 153.173 41.8748C153.593 41.5028 153.803 40.9568 153.803 40.2368V39.1928C152.999 39.8288 152.081 40.1468 151.049 40.1468C150.209 40.1468 149.435 39.9428 148.727 39.5348C148.031 39.1148 147.479 38.5508 147.071 37.8428C146.663 37.1228 146.459 36.3308 146.459 35.4668C146.459 34.5908 146.663 33.7988 147.071 33.0908C147.491 32.3708 148.049 31.8068 148.745 31.3988C149.453 30.9788 150.245 30.7688 151.121 30.7688C151.613 30.7688 152.087 30.8528 152.543 31.0208C153.011 31.1768 153.437 31.4048 153.821 31.7048V30.9308H155.603V40.2368C155.603 41.4248 155.237 42.3368 154.505 42.9728C153.785 43.6208 152.753 43.9448 151.409 43.9448ZM151.283 38.5988C151.811 38.5988 152.291 38.5088 152.723 38.3288C153.155 38.1368 153.515 37.8668 153.803 37.5188V33.4148C153.515 33.0788 153.149 32.8148 152.705 32.6228C152.273 32.4308 151.799 32.3348 151.283 32.3348C150.707 32.3348 150.185 32.4728 149.717 32.7488C149.261 33.0248 148.895 33.4028 148.619 33.8828C148.355 34.3508 148.223 34.8788 148.223 35.4668C148.223 36.0548 148.355 36.5888 148.619 37.0688C148.895 37.5368 149.261 37.9088 149.717 38.1848C150.185 38.4608 150.707 38.5988 151.283 38.5988ZM157.718 40.0928V27.4928L159.518 27.0968V31.8668C160.226 31.1228 161.144 30.7508 162.272 30.7508C162.98 30.7508 163.598 30.9008 164.126 31.2008C164.666 31.5008 165.086 31.9208 165.386 32.4608C165.698 33.0008 165.854 33.6248 165.854 34.3328V40.0928H164.054V34.6388C164.054 33.9188 163.85 33.3548 163.442 32.9468C163.034 32.5268 162.476 32.3168 161.768 32.3168C161.288 32.3168 160.856 32.4188 160.472 32.6228C160.088 32.8268 159.77 33.1208 159.518 33.5048V40.0928H157.718ZM171.081 40.2728C170.289 40.2728 169.545 40.1588 168.849 39.9308C168.165 39.6908 167.571 39.3548 167.067 38.9228L168.057 37.7348C168.525 38.1068 169.005 38.3948 169.497 38.5988C170.001 38.7908 170.511 38.8868 171.027 38.8868C171.675 38.8868 172.203 38.7608 172.611 38.5088C173.019 38.2568 173.223 37.9268 173.223 37.5188C173.223 37.1828 173.103 36.9188 172.863 36.7268C172.623 36.5348 172.251 36.4028 171.747 36.3308L170.091 36.0968C169.179 35.9648 168.495 35.6828 168.039 35.2508C167.583 34.8188 167.355 34.2428 167.355 33.5228C167.355 32.9708 167.505 32.4908 167.805 32.0828C168.105 31.6628 168.525 31.3388 169.065 31.1108C169.605 30.8708 170.235 30.7508 170.955 30.7508C171.615 30.7508 172.251 30.8468 172.863 31.0388C173.475 31.2308 174.063 31.5308 174.627 31.9388L173.709 33.1268C173.205 32.7908 172.713 32.5448 172.233 32.3888C171.765 32.2328 171.291 32.1548 170.811 32.1548C170.259 32.1548 169.815 32.2748 169.479 32.5148C169.143 32.7428 168.975 33.0428 168.975 33.4148C168.975 33.7508 169.089 34.0148 169.317 34.2068C169.557 34.3868 169.947 34.5128 170.487 34.5848L172.143 34.8188C173.055 34.9508 173.745 35.2328 174.213 35.6648C174.681 36.0848 174.915 36.6548 174.915 37.3748C174.915 37.9268 174.747 38.4248 174.411 38.8688C174.075 39.3008 173.619 39.6428 173.043 39.8948C172.467 40.1468 171.813 40.2728 171.081 40.2728ZM180.688 40.2548C179.812 40.2548 179.014 40.0448 178.294 39.6248C177.574 39.2048 177.004 38.6348 176.584 37.9148C176.176 37.1948 175.972 36.3908 175.972 35.5028C175.972 34.6148 176.182 33.8168 176.602 33.1088C177.022 32.3888 177.586 31.8188 178.294 31.3988C179.014 30.9668 179.812 30.7508 180.688 30.7508C181.384 30.7508 182.05 30.8828 182.686 31.1468C183.334 31.4108 183.892 31.7828 184.36 32.2628L183.244 33.5048C182.896 33.1208 182.506 32.8328 182.074 32.6408C181.642 32.4488 181.192 32.3528 180.724 32.3528C180.172 32.3528 179.668 32.4908 179.212 32.7668C178.768 33.0428 178.414 33.4208 178.15 33.9008C177.886 34.3808 177.754 34.9148 177.754 35.5028C177.754 36.0908 177.886 36.6248 178.15 37.1048C178.414 37.5848 178.774 37.9688 179.23 38.2568C179.686 38.5328 180.196 38.6708 180.76 38.6708C181.228 38.6708 181.666 38.5808 182.074 38.4008C182.482 38.2088 182.866 37.9328 183.226 37.5728L184.324 38.7248C183.844 39.2168 183.286 39.5948 182.65 39.8588C182.026 40.1228 181.372 40.2548 180.688 40.2548ZM185.773 40.0928V27.4928L187.573 27.0968V31.8668C188.281 31.1228 189.199 30.7508 190.327 30.7508C191.035 30.7508 191.653 30.9008 192.181 31.2008C192.721 31.5008 193.141 31.9208 193.441 32.4608C193.753 33.0008 193.909 33.6248 193.909 34.3328V40.0928H192.109V34.6388C192.109 33.9188 191.905 33.3548 191.497 32.9468C191.089 32.5268 190.531 32.3168 189.823 32.3168C189.343 32.3168 188.911 32.4188 188.527 32.6228C188.143 32.8268 187.825 33.1208 187.573 33.5048V40.0928H185.773ZM200.342 40.2728C199.454 40.2728 198.644 40.0628 197.912 39.6428C197.192 39.2228 196.622 38.6528 196.202 37.9328C195.782 37.2128 195.572 36.4088 195.572 35.5208C195.572 34.6328 195.782 33.8288 196.202 33.1088C196.622 32.3888 197.192 31.8188 197.912 31.3988C198.644 30.9668 199.454 30.7508 200.342 30.7508C201.242 30.7508 202.052 30.9668 202.772 31.3988C203.492 31.8188 204.062 32.3888 204.482 33.1088C204.902 33.8288 205.112 34.6328 205.112 35.5208C205.112 36.4088 204.902 37.2128 204.482 37.9328C204.062 38.6528 203.492 39.2228 202.772 39.6428C202.052 40.0628 201.242 40.2728 200.342 40.2728ZM200.342 38.6888C200.906 38.6888 201.416 38.5508 201.872 38.2748C202.328 37.9868 202.688 37.6028 202.952 37.1228C203.216 36.6428 203.348 36.1028 203.348 35.5028C203.348 34.9148 203.21 34.3868 202.934 33.9188C202.67 33.4388 202.31 33.0548 201.854 32.7668C201.41 32.4788 200.906 32.3348 200.342 32.3348C199.778 32.3348 199.268 32.4788 198.812 32.7668C198.368 33.0548 198.008 33.4388 197.732 33.9188C197.468 34.3868 197.336 34.9148 197.336 35.5028C197.336 36.1028 197.468 36.6428 197.732 37.1228C197.996 37.6028 198.356 37.9868 198.812 38.2748C199.268 38.5508 199.778 38.6888 200.342 38.6888ZM211.17 40.2728C210.282 40.2728 209.472 40.0628 208.74 39.6428C208.02 39.2228 207.45 38.6528 207.03 37.9328C206.61 37.2128 206.4 36.4088 206.4 35.5208C206.4 34.6328 206.61 33.8288 207.03 33.1088C207.45 32.3888 208.02 31.8188 208.74 31.3988C209.472 30.9668 210.282 30.7508 211.17 30.7508C212.07 30.7508 212.88 30.9668 213.6 31.3988C214.32 31.8188 214.89 32.3888 215.31 33.1088C215.73 33.8288 215.94 34.6328 215.94 35.5208C215.94 36.4088 215.73 37.2128 215.31 37.9328C214.89 38.6528 214.32 39.2228 213.6 39.6428C212.88 40.0628 212.07 40.2728 211.17 40.2728ZM211.17 38.6888C211.734 38.6888 212.244 38.5508 212.7 38.2748C213.156 37.9868 213.516 37.6028 213.78 37.1228C214.044 36.6428 214.176 36.1028 214.176 35.5028C214.176 34.9148 214.038 34.3868 213.762 33.9188C213.498 33.4388 213.138 33.0548 212.682 32.7668C212.238 32.4788 211.734 32.3348 211.17 32.3348C210.606 32.3348 210.096 32.4788 209.64 32.7668C209.196 33.0548 208.836 33.4388 208.56 33.9188C208.296 34.3868 208.164 34.9148 208.164 35.5028C208.164 36.1028 208.296 36.6428 208.56 37.1228C208.824 37.6028 209.184 37.9868 209.64 38.2748C210.096 38.5508 210.606 38.6888 211.17 38.6888ZM217.642 40.0928V27.4928L219.442 27.1508V40.0928H217.642ZM229.68 40.2728C228.792 40.2728 227.982 40.0628 227.25 39.6428C226.53 39.2228 225.96 38.6528 225.54 37.9328C225.12 37.2128 224.91 36.4088 224.91 35.5208C224.91 34.6328 225.12 33.8288 225.54 33.1088C225.96 32.3888 226.53 31.8188 227.25 31.3988C227.982 30.9668 228.792 30.7508 229.68 30.7508C230.58 30.7508 231.39 30.9668 232.11 31.3988C232.83 31.8188 233.4 32.3888 233.82 33.1088C234.24 33.8288 234.45 34.6328 234.45 35.5208C234.45 36.4088 234.24 37.2128 233.82 37.9328C233.4 38.6528 232.83 39.2228 232.11 39.6428C231.39 40.0628 230.58 40.2728 229.68 40.2728ZM229.68 38.6888C230.244 38.6888 230.754 38.5508 231.21 38.2748C231.666 37.9868 232.026 37.6028 232.29 37.1228C232.554 36.6428 232.686 36.1028 232.686 35.5028C232.686 34.9148 232.548 34.3868 232.272 33.9188C232.008 33.4388 231.648 33.0548 231.192 32.7668C230.748 32.4788 230.244 32.3348 229.68 32.3348C229.116 32.3348 228.606 32.4788 228.15 32.7668C227.706 33.0548 227.346 33.4388 227.07 33.9188C226.806 34.3868 226.674 34.9148 226.674 35.5028C226.674 36.1028 226.806 36.6428 227.07 37.1228C227.334 37.6028 227.694 37.9868 228.15 38.2748C228.606 38.5508 229.116 38.6888 229.68 38.6888ZM236.152 40.0928V30.9308H237.952V32.1008C238.24 31.6688 238.594 31.3328 239.014 31.0928C239.446 30.8408 239.932 30.7148 240.472 30.7148C240.844 30.7268 241.15 30.7808 241.39 30.8768V32.4968C241.222 32.4248 241.048 32.3768 240.868 32.3528C240.688 32.3168 240.508 32.2988 240.328 32.2988C239.8 32.2988 239.332 32.4428 238.924 32.7308C238.516 33.0068 238.192 33.4148 237.952 33.9548V40.0928H236.152ZM39.9049 64.2728C39.1969 64.2728 38.5729 64.1228 38.0329 63.8228C37.4929 63.5228 37.0729 63.1028 36.7729 62.5628C36.4729 62.0108 36.3229 61.3808 36.3229 60.6728V54.9308H38.1049V60.3668C38.1049 61.0868 38.3089 61.6568 38.7169 62.0768C39.1369 62.4968 39.6949 62.7068 40.3909 62.7068C40.8829 62.7068 41.3209 62.6048 41.7049 62.4008C42.0889 62.1848 42.4009 61.8848 42.6409 61.5008V54.9308H44.4409V64.0928H42.6409V63.1568C41.9329 63.9008 41.0209 64.2728 39.9049 64.2728ZM46.5718 64.0928V54.9308H48.3718V55.8668C49.0798 55.1228 49.9978 54.7508 51.1258 54.7508C51.8338 54.7508 52.4518 54.9008 52.9798 55.2008C53.5198 55.5008 53.9398 55.9208 54.2398 56.4608C54.5518 57.0008 54.7078 57.6248 54.7078 58.3328V64.0928H52.9078V58.6388C52.9078 57.9188 52.7038 57.3548 52.2958 56.9468C51.8998 56.5268 51.3418 56.3168 50.6218 56.3168C50.1418 56.3168 49.7098 56.4188 49.3258 56.6228C48.9418 56.8268 48.6238 57.1208 48.3718 57.5048V64.0928H46.5718ZM56.7847 64.0928V54.9308H58.5847V64.0928H56.7847ZM57.6847 53.4548C57.3847 53.4548 57.1267 53.3468 56.9107 53.1308C56.6947 52.9028 56.5867 52.6388 56.5867 52.3388C56.5867 52.0268 56.6947 51.7688 56.9107 51.5648C57.1267 51.3488 57.3847 51.2408 57.6847 51.2408C57.9967 51.2408 58.2607 51.3488 58.4767 51.5648C58.6927 51.7688 58.8007 52.0268 58.8007 52.3388C58.8007 52.6388 58.6927 52.9028 58.4767 53.1308C58.2607 53.3468 57.9967 53.4548 57.6847 53.4548ZM63.6566 64.0928L59.6966 54.9308H61.6766L64.5386 61.7888L67.4006 54.9308H69.3086L65.3846 64.0928H63.6566ZM74.5536 64.2548C73.6536 64.2548 72.8376 64.0448 72.1056 63.6248C71.3856 63.2048 70.8096 62.6348 70.3776 61.9148C69.9576 61.1948 69.7476 60.3908 69.7476 59.5028C69.7476 58.6268 69.9516 57.8348 70.3596 57.1268C70.7676 56.4068 71.3196 55.8368 72.0156 55.4168C72.7116 54.9848 73.4856 54.7688 74.3376 54.7688C75.1896 54.7688 75.9456 54.9848 76.6056 55.4168C77.2656 55.8368 77.7876 56.4128 78.1716 57.1448C78.5676 57.8648 78.7656 58.6808 78.7656 59.5928V60.0968H71.5476C71.6436 60.6008 71.8296 61.0508 72.1056 61.4468C72.3936 61.8428 72.7536 62.1548 73.1856 62.3828C73.6296 62.6108 74.1096 62.7248 74.6256 62.7248C75.0696 62.7248 75.4956 62.6588 75.9036 62.5268C76.3236 62.3828 76.6716 62.1788 76.9476 61.9148L78.0996 63.0488C77.5596 63.4568 77.0016 63.7628 76.4256 63.9668C75.8616 64.1588 75.2376 64.2548 74.5536 64.2548ZM71.5656 58.7468H76.9836C76.9116 58.2668 76.7436 57.8468 76.4796 57.4868C76.2276 57.1148 75.9096 56.8268 75.5256 56.6228C75.1536 56.4068 74.7456 56.2988 74.3016 56.2988C73.8456 56.2988 73.4256 56.4008 73.0416 56.6048C72.6576 56.8088 72.3336 57.0968 72.0696 57.4688C71.8176 57.8288 71.6496 58.2548 71.5656 58.7468ZM80.48 64.0928V54.9308H82.28V56.1008C82.568 55.6688 82.922 55.3328 83.342 55.0928C83.774 54.8408 84.26 54.7148 84.8 54.7148C85.172 54.7268 85.478 54.7808 85.718 54.8768V56.4968C85.55 56.4248 85.376 56.3768 85.196 56.3528C85.016 56.3168 84.836 56.2988 84.656 56.2988C84.128 56.2988 83.66 56.4428 83.252 56.7308C82.844 57.0068 82.52 57.4148 82.28 57.9548V64.0928H80.48ZM90.3097 64.2728C89.5177 64.2728 88.7737 64.1588 88.0777 63.9308C87.3937 63.6908 86.7997 63.3548 86.2957 62.9228L87.2857 61.7348C87.7537 62.1068 88.2337 62.3948 88.7257 62.5988C89.2297 62.7908 89.7397 62.8868 90.2557 62.8868C90.9037 62.8868 91.4317 62.7608 91.8397 62.5088C92.2477 62.2568 92.4517 61.9268 92.4517 61.5188C92.4517 61.1828 92.3317 60.9188 92.0917 60.7268C91.8517 60.5348 91.4797 60.4028 90.9757 60.3308L89.3197 60.0968C88.4077 59.9648 87.7237 59.6828 87.2677 59.2508C86.8117 58.8188 86.5837 58.2428 86.5837 57.5228C86.5837 56.9708 86.7337 56.4908 87.0337 56.0828C87.3337 55.6628 87.7537 55.3388 88.2937 55.1108C88.8337 54.8708 89.4637 54.7508 90.1837 54.7508C90.8437 54.7508 91.4797 54.8468 92.0917 55.0388C92.7037 55.2308 93.2917 55.5308 93.8557 55.9388L92.9377 57.1268C92.4337 56.7908 91.9417 56.5448 91.4617 56.3888C90.9937 56.2328 90.5197 56.1548 90.0397 56.1548C89.4877 56.1548 89.0437 56.2748 88.7077 56.5148C88.3717 56.7428 88.2037 57.0428 88.2037 57.4148C88.2037 57.7508 88.3177 58.0148 88.5457 58.2068C88.7857 58.3868 89.1757 58.5128 89.7157 58.5848L91.3717 58.8188C92.2837 58.9508 92.9737 59.2328 93.4417 59.6648C93.9097 60.0848 94.1437 60.6548 94.1437 61.3748C94.1437 61.9268 93.9757 62.4248 93.6397 62.8688C93.3037 63.3008 92.8477 63.6428 92.2717 63.8948C91.6957 64.1468 91.0417 64.2728 90.3097 64.2728ZM95.5268 64.0928V54.9308H97.3268V64.0928H95.5268ZM96.4268 53.4548C96.1268 53.4548 95.8688 53.3468 95.6528 53.1308C95.4368 52.9028 95.3288 52.6388 95.3288 52.3388C95.3288 52.0268 95.4368 51.7688 95.6528 51.5648C95.8688 51.3488 96.1268 51.2408 96.4268 51.2408C96.7388 51.2408 97.0028 51.3488 97.2188 51.5648C97.4348 51.7688 97.5428 52.0268 97.5428 52.3388C97.5428 52.6388 97.4348 52.9028 97.2188 53.1308C97.0028 53.3468 96.7388 53.4548 96.4268 53.4548ZM103.371 64.2548C102.483 64.2548 101.805 64.0508 101.337 63.6428C100.869 63.2228 100.635 62.6168 100.635 61.8248V56.4428H98.6908V54.9308H100.635V52.5908L102.417 52.1588V54.9308H105.117V56.4428H102.417V61.4108C102.417 61.8788 102.519 62.2148 102.723 62.4188C102.939 62.6108 103.287 62.7068 103.767 62.7068C104.019 62.7068 104.241 62.6888 104.433 62.6528C104.637 62.6168 104.853 62.5628 105.081 62.4908V64.0028C104.841 64.0868 104.559 64.1468 104.235 64.1828C103.923 64.2308 103.635 64.2548 103.371 64.2548ZM107.231 67.9628C107.039 67.9628 106.859 67.9508 106.691 67.9268C106.523 67.9148 106.385 67.8908 106.277 67.8548V66.2708C106.493 66.3188 106.757 66.3428 107.069 66.3428C107.909 66.3428 108.515 65.8928 108.887 64.9928L109.283 64.1108L105.611 54.9308H107.609L110.273 61.9148L113.225 54.9308H115.169L110.741 65.2268C110.453 65.8748 110.147 66.3968 109.823 66.7928C109.499 67.2008 109.127 67.4948 108.707 67.6748C108.287 67.8668 107.795 67.9628 107.231 67.9628ZM122.946 64.2548C122.286 64.2548 121.704 64.1408 121.2 63.9128C120.696 63.6728 120.3 63.3428 120.012 62.9228C119.724 62.5028 119.58 62.0168 119.58 61.4648C119.58 60.6008 119.91 59.9228 120.57 59.4308C121.23 58.9268 122.136 58.6748 123.288 58.6748C124.188 58.6748 125.022 58.8488 125.79 59.1968V58.2248C125.79 57.5648 125.598 57.0728 125.214 56.7488C124.842 56.4248 124.29 56.2628 123.558 56.2628C123.138 56.2628 122.7 56.3288 122.244 56.4608C121.788 56.5808 121.278 56.7728 120.714 57.0368L120.048 55.6868C120.744 55.3628 121.392 55.1288 121.992 54.9848C122.592 54.8288 123.198 54.7508 123.81 54.7508C124.998 54.7508 125.916 55.0328 126.564 55.5968C127.224 56.1608 127.554 56.9648 127.554 58.0088V64.0928H125.79V63.3008C125.382 63.6248 124.944 63.8648 124.476 64.0208C124.008 64.1768 123.498 64.2548 122.946 64.2548ZM121.308 61.4288C121.308 61.8728 121.494 62.2328 121.866 62.5088C122.25 62.7728 122.748 62.9048 123.36 62.9048C123.84 62.9048 124.278 62.8388 124.674 62.7068C125.082 62.5628 125.454 62.3408 125.79 62.0408V60.4928C125.442 60.2888 125.076 60.1448 124.692 60.0608C124.32 59.9648 123.9 59.9168 123.432 59.9168C122.772 59.9168 122.25 60.0548 121.866 60.3308C121.494 60.5948 121.308 60.9608 121.308 61.4288ZM129.628 64.0928V54.9308H131.428V56.1008C131.716 55.6688 132.07 55.3328 132.49 55.0928C132.922 54.8408 133.408 54.7148 133.948 54.7148C134.32 54.7268 134.626 54.7808 134.866 54.8768V56.4968C134.698 56.4248 134.524 56.3768 134.344 56.3528C134.164 56.3168 133.984 56.2988 133.804 56.2988C133.276 56.2988 132.808 56.4428 132.4 56.7308C131.992 57.0068 131.668 57.4148 131.428 57.9548V64.0928H129.628ZM140.173 64.2548C139.273 64.2548 138.457 64.0448 137.725 63.6248C137.005 63.2048 136.429 62.6348 135.997 61.9148C135.577 61.1948 135.367 60.3908 135.367 59.5028C135.367 58.6268 135.571 57.8348 135.979 57.1268C136.387 56.4068 136.939 55.8368 137.635 55.4168C138.331 54.9848 139.105 54.7688 139.957 54.7688C140.809 54.7688 141.565 54.9848 142.225 55.4168C142.885 55.8368 143.407 56.4128 143.791 57.1448C144.187 57.8648 144.385 58.6808 144.385 59.5928V60.0968H137.167C137.263 60.6008 137.449 61.0508 137.725 61.4468C138.013 61.8428 138.373 62.1548 138.805 62.3828C139.249 62.6108 139.729 62.7248 140.245 62.7248C140.689 62.7248 141.115 62.6588 141.523 62.5268C141.943 62.3828 142.291 62.1788 142.567 61.9148L143.719 63.0488C143.179 63.4568 142.621 63.7628 142.045 63.9668C141.481 64.1588 140.857 64.2548 140.173 64.2548ZM137.185 58.7468H142.603C142.531 58.2668 142.363 57.8468 142.099 57.4868C141.847 57.1148 141.529 56.8268 141.145 56.6228C140.773 56.4068 140.365 56.2988 139.921 56.2988C139.465 56.2988 139.045 56.4008 138.661 56.6048C138.277 56.8088 137.953 57.0968 137.689 57.4688C137.437 57.8288 137.269 58.2548 137.185 58.7468ZM149.861 64.0928V54.9308H151.661V64.0928H149.861ZM150.761 53.4548C150.461 53.4548 150.203 53.3468 149.987 53.1308C149.771 52.9028 149.663 52.6388 149.663 52.3388C149.663 52.0268 149.771 51.7688 149.987 51.5648C150.203 51.3488 150.461 51.2408 150.761 51.2408C151.073 51.2408 151.337 51.3488 151.553 51.5648C151.769 51.7688 151.877 52.0268 151.877 52.3388C151.877 52.6388 151.769 52.9028 151.553 53.1308C151.337 53.3468 151.073 53.4548 150.761 53.4548ZM153.781 64.0928V54.9308H155.581V55.8668C156.289 55.1228 157.207 54.7508 158.335 54.7508C159.043 54.7508 159.661 54.9008 160.189 55.2008C160.729 55.5008 161.149 55.9208 161.449 56.4608C161.761 57.0008 161.917 57.6248 161.917 58.3328V64.0928H160.117V58.6388C160.117 57.9188 159.913 57.3548 159.505 56.9468C159.109 56.5268 158.551 56.3168 157.831 56.3168C157.351 56.3168 156.919 56.4188 156.535 56.6228C156.151 56.8268 155.833 57.1208 155.581 57.5048V64.0928H153.781ZM166.471 64.0928L162.511 54.9308H164.491L167.353 61.7888L170.215 54.9308H172.123L168.199 64.0928H166.471ZM173.24 64.0928V54.9308H175.04V64.0928H173.24ZM174.14 53.4548C173.84 53.4548 173.582 53.3468 173.366 53.1308C173.15 52.9028 173.042 52.6388 173.042 52.3388C173.042 52.0268 173.15 51.7688 173.366 51.5648C173.582 51.3488 173.84 51.2408 174.14 51.2408C174.452 51.2408 174.716 51.3488 174.932 51.5648C175.148 51.7688 175.256 52.0268 175.256 52.3388C175.256 52.6388 175.148 52.9028 174.932 53.1308C174.716 53.3468 174.452 53.4548 174.14 53.4548ZM181.084 64.2548C180.196 64.2548 179.518 64.0508 179.05 63.6428C178.582 63.2228 178.348 62.6168 178.348 61.8248V56.4428H176.404V54.9308H178.348V52.5908L180.13 52.1588V54.9308H182.83V56.4428H180.13V61.4108C180.13 61.8788 180.232 62.2148 180.436 62.4188C180.652 62.6108 181 62.7068 181.48 62.7068C181.732 62.7068 181.954 62.6888 182.146 62.6528C182.35 62.6168 182.566 62.5628 182.794 62.4908V64.0028C182.554 64.0868 182.272 64.1468 181.948 64.1828C181.636 64.2308 181.348 64.2548 181.084 64.2548ZM188.407 64.2548C187.507 64.2548 186.691 64.0448 185.959 63.6248C185.239 63.2048 184.663 62.6348 184.231 61.9148C183.811 61.1948 183.601 60.3908 183.601 59.5028C183.601 58.6268 183.805 57.8348 184.213 57.1268C184.621 56.4068 185.173 55.8368 185.869 55.4168C186.565 54.9848 187.339 54.7688 188.191 54.7688C189.043 54.7688 189.799 54.9848 190.459 55.4168C191.119 55.8368 191.641 56.4128 192.025 57.1448C192.421 57.8648 192.619 58.6808 192.619 59.5928V60.0968H185.401C185.497 60.6008 185.683 61.0508 185.959 61.4468C186.247 61.8428 186.607 62.1548 187.039 62.3828C187.483 62.6108 187.963 62.7248 188.479 62.7248C188.923 62.7248 189.349 62.6588 189.757 62.5268C190.177 62.3828 190.525 62.1788 190.801 61.9148L191.953 63.0488C191.413 63.4568 190.855 63.7628 190.279 63.9668C189.715 64.1588 189.091 64.2548 188.407 64.2548ZM185.419 58.7468H190.837C190.765 58.2668 190.597 57.8468 190.333 57.4868C190.081 57.1148 189.763 56.8268 189.379 56.6228C189.007 56.4068 188.599 56.2988 188.155 56.2988C187.699 56.2988 187.279 56.4008 186.895 56.6048C186.511 56.8088 186.187 57.0968 185.923 57.4688C185.671 57.8288 185.503 58.2548 185.419 58.7468ZM198.581 64.2368C197.729 64.2368 196.949 64.0268 196.241 63.6068C195.533 63.1868 194.975 62.6228 194.567 61.9148C194.159 61.1948 193.955 60.3908 193.955 59.5028C193.955 58.6148 194.159 57.8168 194.567 57.1088C194.987 56.4008 195.551 55.8368 196.259 55.4168C196.967 54.9968 197.753 54.7868 198.617 54.7868C199.121 54.7868 199.607 54.8648 200.075 55.0208C200.543 55.1768 200.975 55.4048 201.371 55.7048V51.4928L203.171 51.1508V64.0928H201.389V63.2108C200.609 63.8948 199.673 64.2368 198.581 64.2368ZM198.815 62.6708C199.343 62.6708 199.823 62.5748 200.255 62.3828C200.699 62.1908 201.071 61.9148 201.371 61.5548V57.4328C201.071 57.0968 200.699 56.8328 200.255 56.6408C199.823 56.4368 199.343 56.3348 198.815 56.3348C198.239 56.3348 197.717 56.4728 197.249 56.7488C196.781 57.0248 196.409 57.4028 196.133 57.8828C195.857 58.3508 195.719 58.8848 195.719 59.4848C195.719 60.0848 195.857 60.6248 196.133 61.1048C196.409 61.5848 196.781 61.9688 197.249 62.2568C197.717 62.5328 198.239 62.6708 198.815 62.6708ZM212.988 64.2548C212.1 64.2548 211.422 64.0508 210.954 63.6428C210.486 63.2228 210.252 62.6168 210.252 61.8248V56.4428H208.308V54.9308H210.252V52.5908L212.034 52.1588V54.9308H214.734V56.4428H212.034V61.4108C212.034 61.8788 212.136 62.2148 212.34 62.4188C212.556 62.6108 212.904 62.7068 213.384 62.7068C213.636 62.7068 213.858 62.6888 214.05 62.6528C214.254 62.6168 214.47 62.5628 214.698 62.4908V64.0028C214.458 64.0868 214.176 64.1468 213.852 64.1828C213.54 64.2308 213.252 64.2548 212.988 64.2548ZM220.275 64.2728C219.387 64.2728 218.577 64.0628 217.845 63.6428C217.125 63.2228 216.555 62.6528 216.135 61.9328C215.715 61.2128 215.505 60.4088 215.505 59.5208C215.505 58.6328 215.715 57.8288 216.135 57.1088C216.555 56.3888 217.125 55.8188 217.845 55.3988C218.577 54.9668 219.387 54.7508 220.275 54.7508C221.175 54.7508 221.985 54.9668 222.705 55.3988C223.425 55.8188 223.995 56.3888 224.415 57.1088C224.835 57.8288 225.045 58.6328 225.045 59.5208C225.045 60.4088 224.835 61.2128 224.415 61.9328C223.995 62.6528 223.425 63.2228 222.705 63.6428C221.985 64.0628 221.175 64.2728 220.275 64.2728ZM220.275 62.6888C220.839 62.6888 221.349 62.5508 221.805 62.2748C222.261 61.9868 222.621 61.6028 222.885 61.1228C223.149 60.6428 223.281 60.1028 223.281 59.5028C223.281 58.9148 223.143 58.3868 222.867 57.9188C222.603 57.4388 222.243 57.0548 221.787 56.7668C221.343 56.4788 220.839 56.3348 220.275 56.3348C219.711 56.3348 219.201 56.4788 218.745 56.7668C218.301 57.0548 217.941 57.4388 217.665 57.9188C217.401 58.3868 217.269 58.9148 217.269 59.5028C217.269 60.1028 217.401 60.6428 217.665 61.1228C217.929 61.6028 218.289 61.9868 218.745 62.2748C219.201 62.5508 219.711 62.6888 220.275 62.6888ZM36.3589 91.7648V78.9308H38.1409V79.8128C38.9089 79.1288 39.8449 78.7868 40.9489 78.7868C41.8129 78.7868 42.5929 78.9968 43.2889 79.4168C43.9969 79.8368 44.5549 80.4008 44.9629 81.1088C45.3709 81.8168 45.5749 82.6148 45.5749 83.5028C45.5749 84.3908 45.3649 85.1948 44.9449 85.9148C44.5369 86.6228 43.9789 87.1868 43.2709 87.6068C42.5749 88.0268 41.7889 88.2368 40.9129 88.2368C40.4089 88.2368 39.9229 88.1588 39.4549 88.0028C38.9869 87.8348 38.5549 87.6008 38.1589 87.3008V91.7648H36.3589ZM40.7149 86.6708C41.3029 86.6708 41.8249 86.5328 42.2809 86.2568C42.7489 85.9808 43.1209 85.6088 43.3969 85.1408C43.6729 84.6608 43.8109 84.1208 43.8109 83.5208C43.8109 82.9208 43.6729 82.3808 43.3969 81.9008C43.1209 81.4208 42.7489 81.0428 42.2809 80.7668C41.8249 80.4908 41.3029 80.3528 40.7149 80.3528C40.1989 80.3528 39.7189 80.4488 39.2749 80.6408C38.8309 80.8328 38.4589 81.1028 38.1589 81.4508V85.5908C38.4589 85.9268 38.8309 86.1908 39.2749 86.3828C39.7309 86.5748 40.2109 86.6708 40.7149 86.6708ZM50.2784 88.2548C49.6184 88.2548 49.0364 88.1408 48.5324 87.9128C48.0284 87.6728 47.6324 87.3428 47.3444 86.9228C47.0564 86.5028 46.9124 86.0168 46.9124 85.4648C46.9124 84.6008 47.2424 83.9228 47.9024 83.4308C48.5624 82.9268 49.4684 82.6748 50.6204 82.6748C51.5204 82.6748 52.3544 82.8488 53.1224 83.1968V82.2248C53.1224 81.5648 52.9304 81.0728 52.5464 80.7488C52.1744 80.4248 51.6224 80.2628 50.8904 80.2628C50.4704 80.2628 50.0324 80.3288 49.5764 80.4608C49.1204 80.5808 48.6104 80.7728 48.0464 81.0368L47.3804 79.6868C48.0764 79.3628 48.7244 79.1288 49.3244 78.9848C49.9244 78.8288 50.5304 78.7508 51.1424 78.7508C52.3304 78.7508 53.2484 79.0328 53.8964 79.5968C54.5564 80.1608 54.8864 80.9648 54.8864 82.0088V88.0928H53.1224V87.3008C52.7144 87.6248 52.2764 87.8648 51.8084 88.0208C51.3404 88.1768 50.8304 88.2548 50.2784 88.2548ZM48.6404 85.4288C48.6404 85.8728 48.8264 86.2328 49.1984 86.5088C49.5824 86.7728 50.0804 86.9048 50.6924 86.9048C51.1724 86.9048 51.6104 86.8388 52.0064 86.7068C52.4144 86.5628 52.7864 86.3408 53.1224 86.0408V84.4928C52.7744 84.2888 52.4084 84.1448 52.0244 84.0608C51.6524 83.9648 51.2324 83.9168 50.7644 83.9168C50.1044 83.9168 49.5824 84.0548 49.1984 84.3308C48.8264 84.5948 48.6404 84.9608 48.6404 85.4288ZM56.9604 88.0928V78.9308H58.7604V80.1008C59.0484 79.6688 59.4024 79.3328 59.8224 79.0928C60.2544 78.8408 60.7404 78.7148 61.2804 78.7148C61.6524 78.7268 61.9584 78.7808 62.1984 78.8768V80.4968C62.0304 80.4248 61.8564 80.3768 61.6764 80.3528C61.4964 80.3168 61.3164 80.2988 61.1364 80.2988C60.6084 80.2988 60.1404 80.4428 59.7324 80.7308C59.3244 81.0068 59.0004 81.4148 58.7604 81.9548V88.0928H56.9604ZM67.5641 88.2548C66.6761 88.2548 65.9981 88.0508 65.5301 87.6428C65.0621 87.2228 64.8281 86.6168 64.8281 85.8248V80.4428H62.8841V78.9308H64.8281V76.5908L66.6101 76.1588V78.9308H69.3101V80.4428H66.6101V85.4108C66.6101 85.8788 66.7121 86.2148 66.9161 86.4188C67.1321 86.6108 67.4801 86.7068 67.9601 86.7068C68.2121 86.7068 68.4341 86.6888 68.6261 86.6528C68.8301 86.6168 69.0461 86.5628 69.2741 86.4908V88.0028C69.0341 88.0868 68.7521 88.1468 68.4281 88.1828C68.1161 88.2308 67.8281 88.2548 67.5641 88.2548ZM70.6362 88.0928V78.9308H72.4362V88.0928H70.6362ZM71.5362 77.4548C71.2362 77.4548 70.9782 77.3468 70.7622 77.1308C70.5462 76.9028 70.4382 76.6388 70.4382 76.3388C70.4382 76.0268 70.5462 75.7688 70.7622 75.5648C70.9782 75.3488 71.2362 75.2408 71.5362 75.2408C71.8482 75.2408 72.1122 75.3488 72.3282 75.5648C72.5442 75.7688 72.6522 76.0268 72.6522 76.3388C72.6522 76.6388 72.5442 76.9028 72.3282 77.1308C72.1122 77.3468 71.8482 77.4548 71.5362 77.4548ZM78.8581 88.2548C77.9821 88.2548 77.1841 88.0448 76.4641 87.6248C75.7441 87.2048 75.1741 86.6348 74.7541 85.9148C74.3461 85.1948 74.1421 84.3908 74.1421 83.5028C74.1421 82.6148 74.3521 81.8168 74.7721 81.1088C75.1921 80.3888 75.7561 79.8188 76.4641 79.3988C77.1841 78.9668 77.9821 78.7508 78.8581 78.7508C79.5541 78.7508 80.2201 78.8828 80.8561 79.1468C81.5041 79.4108 82.0621 79.7828 82.5301 80.2628L81.4141 81.5048C81.0661 81.1208 80.6761 80.8328 80.2441 80.6408C79.8121 80.4488 79.3621 80.3528 78.8941 80.3528C78.3421 80.3528 77.8381 80.4908 77.3821 80.7668C76.9381 81.0428 76.5841 81.4208 76.3201 81.9008C76.0561 82.3808 75.9241 82.9148 75.9241 83.5028C75.9241 84.0908 76.0561 84.6248 76.3201 85.1048C76.5841 85.5848 76.9441 85.9688 77.4001 86.2568C77.8561 86.5328 78.3661 86.6708 78.9301 86.6708C79.3981 86.6708 79.8361 86.5808 80.2441 86.4008C80.6521 86.2088 81.0361 85.9328 81.3961 85.5728L82.4941 86.7248C82.0141 87.2168 81.4561 87.5948 80.8201 87.8588C80.1961 88.1228 79.5421 88.2548 78.8581 88.2548ZM83.9429 88.0928V78.9308H85.7429V88.0928H83.9429ZM84.8429 77.4548C84.5429 77.4548 84.2849 77.3468 84.0689 77.1308C83.8529 76.9028 83.7449 76.6388 83.7449 76.3388C83.7449 76.0268 83.8529 75.7688 84.0689 75.5648C84.2849 75.3488 84.5429 75.2408 84.8429 75.2408C85.1549 75.2408 85.4189 75.3488 85.6349 75.5648C85.8509 75.7688 85.9589 76.0268 85.9589 76.3388C85.9589 76.6388 85.8509 76.9028 85.6349 77.1308C85.4189 77.3468 85.1549 77.4548 84.8429 77.4548ZM87.8628 91.7648V78.9308H89.6448V79.8128C90.4128 79.1288 91.3488 78.7868 92.4528 78.7868C93.3168 78.7868 94.0968 78.9968 94.7928 79.4168C95.5008 79.8368 96.0588 80.4008 96.4668 81.1088C96.8748 81.8168 97.0788 82.6148 97.0788 83.5028C97.0788 84.3908 96.8688 85.1948 96.4488 85.9148C96.0408 86.6228 95.4828 87.1868 94.7748 87.6068C94.0788 88.0268 93.2928 88.2368 92.4168 88.2368C91.9128 88.2368 91.4268 88.1588 90.9588 88.0028C90.4908 87.8348 90.0588 87.6008 89.6628 87.3008V91.7648H87.8628ZM92.2188 86.6708C92.8068 86.6708 93.3288 86.5328 93.7848 86.2568C94.2528 85.9808 94.6248 85.6088 94.9008 85.1408C95.1768 84.6608 95.3148 84.1208 95.3148 83.5208C95.3148 82.9208 95.1768 82.3808 94.9008 81.9008C94.6248 81.4208 94.2528 81.0428 93.7848 80.7668C93.3288 80.4908 92.8068 80.3528 92.2188 80.3528C91.7028 80.3528 91.2228 80.4488 90.7788 80.6408C90.3348 80.8328 89.9628 81.1028 89.6628 81.4508V85.5908C89.9628 85.9268 90.3348 86.1908 90.7788 86.3828C91.2348 86.5748 91.7148 86.6708 92.2188 86.6708ZM101.782 88.2548C101.122 88.2548 100.54 88.1408 100.036 87.9128C99.5323 87.6728 99.1363 87.3428 98.8483 86.9228C98.5603 86.5028 98.4163 86.0168 98.4163 85.4648C98.4163 84.6008 98.7463 83.9228 99.4063 83.4308C100.066 82.9268 100.972 82.6748 102.124 82.6748C103.024 82.6748 103.858 82.8488 104.626 83.1968V82.2248C104.626 81.5648 104.434 81.0728 104.05 80.7488C103.678 80.4248 103.126 80.2628 102.394 80.2628C101.974 80.2628 101.536 80.3288 101.08 80.4608C100.624 80.5808 100.114 80.7728 99.5503 81.0368L98.8843 79.6868C99.5803 79.3628 100.228 79.1288 100.828 78.9848C101.428 78.8288 102.034 78.7508 102.646 78.7508C103.834 78.7508 104.752 79.0328 105.4 79.5968C106.06 80.1608 106.39 80.9648 106.39 82.0088V88.0928H104.626V87.3008C104.218 87.6248 103.78 87.8648 103.312 88.0208C102.844 88.1768 102.334 88.2548 101.782 88.2548ZM100.144 85.4288C100.144 85.8728 100.33 86.2328 100.702 86.5088C101.086 86.7728 101.584 86.9048 102.196 86.9048C102.676 86.9048 103.114 86.8388 103.51 86.7068C103.918 86.5628 104.29 86.3408 104.626 86.0408V84.4928C104.278 84.2888 103.912 84.1448 103.528 84.0608C103.156 83.9648 102.736 83.9168 102.268 83.9168C101.608 83.9168 101.086 84.0548 100.702 84.3308C100.33 84.5948 100.144 84.9608 100.144 85.4288ZM112.125 88.2548C111.237 88.2548 110.559 88.0508 110.091 87.6428C109.623 87.2228 109.389 86.6168 109.389 85.8248V80.4428H107.445V78.9308H109.389V76.5908L111.171 76.1588V78.9308H113.871V80.4428H111.171V85.4108C111.171 85.8788 111.273 86.2148 111.477 86.4188C111.693 86.6108 112.041 86.7068 112.521 86.7068C112.773 86.7068 112.995 86.6888 113.187 86.6528C113.391 86.6168 113.607 86.5628 113.835 86.4908V88.0028C113.595 88.0868 113.313 88.1468 112.989 88.1828C112.677 88.2308 112.389 88.2548 112.125 88.2548ZM119.448 88.2548C118.548 88.2548 117.732 88.0448 117 87.6248C116.28 87.2048 115.704 86.6348 115.272 85.9148C114.852 85.1948 114.642 84.3908 114.642 83.5028C114.642 82.6268 114.846 81.8348 115.254 81.1268C115.662 80.4068 116.214 79.8368 116.91 79.4168C117.606 78.9848 118.38 78.7688 119.232 78.7688C120.084 78.7688 120.84 78.9848 121.5 79.4168C122.16 79.8368 122.682 80.4128 123.066 81.1448C123.462 81.8648 123.66 82.6808 123.66 83.5928V84.0968H116.442C116.538 84.6008 116.724 85.0508 117 85.4468C117.288 85.8428 117.648 86.1548 118.08 86.3828C118.524 86.6108 119.004 86.7248 119.52 86.7248C119.964 86.7248 120.39 86.6588 120.798 86.5268C121.218 86.3828 121.566 86.1788 121.842 85.9148L122.994 87.0488C122.454 87.4568 121.896 87.7628 121.32 87.9668C120.756 88.1588 120.132 88.2548 119.448 88.2548ZM116.46 82.7468H121.878C121.806 82.2668 121.638 81.8468 121.374 81.4868C121.122 81.1148 120.804 80.8268 120.42 80.6228C120.048 80.4068 119.64 80.2988 119.196 80.2988C118.74 80.2988 118.32 80.4008 117.936 80.6048C117.552 80.8088 117.228 81.0968 116.964 81.4688C116.712 81.8288 116.544 82.2548 116.46 82.7468ZM125.537 84.4928L125.321 75.4028H127.175L126.958 84.4928H125.537ZM126.257 88.2188C125.945 88.2188 125.675 88.1108 125.447 87.8948C125.219 87.6668 125.105 87.3968 125.105 87.0848C125.105 86.7728 125.219 86.5088 125.447 86.2928C125.675 86.0648 125.945 85.9508 126.257 85.9508C126.569 85.9508 126.833 86.0648 127.049 86.2928C127.277 86.5088 127.391 86.7728 127.391 87.0848C127.391 87.3968 127.277 87.6668 127.049 87.8948C126.833 88.1108 126.569 88.2188 126.257 88.2188Z" fill="#3D2C8D"/>
<defs>
<filter id="filter0_d_58_220" x="262.602" y="0.293152" width="41.8516" height="31.1645" filterUnits="userSpaceOnUse" color-interpolation-filters="sRGB">
<feFlood flood-opacity="0" result="BackgroundImageFix"/>
<feColorMatrix in="SourceAlpha" type="matrix" values="0 0 0 0 0 0 0 0 0 0 0 0 0 0 0 0 0 0 127 0" result="hardAlpha"/>
<feOffset dy="1"/>
<feGaussianBlur stdDeviation="2"/>
<feComposite in2="hardAlpha" operator="out"/>
<feColorMatrix type="matrix" values="0 0 0 0 0 0 0 0 0 0 0 0 0 0 0 0 0 0 0.25 0"/>
<feBlend mode="normal" in2="BackgroundImageFix" result="effect1_dropShadow_58_220"/>
<feBlend mode="normal" in="SourceGraphic" in2="effect1_dropShadow_58_220" result="shape"/>
</filter>
</defs>
</svg>
