<svg width="355" height="67" viewBox="0 0 355 67" fill="none" xmlns="http://www.w3.org/2000/svg">
<path d="M354.473 15.2323C354.473 9.70948 349.986 5.23253 344.464 5.23048C226.577 5.18677 136.363 4.37951 26.593 3.79748C18.4216 11.5354 12.2213 17.4068 4.60245 24.6215V56.6412C4.60245 62.1641 9.0796 66.6412 14.6024 66.6412H344.473C349.996 66.6412 354.473 62.1641 354.473 56.6412V15.2323Z" fill="#1C0C5B"/>
<g filter="url(#filter0_d_58_221)">
<path d="M26.5481 3.79749L4.60284 24.5398C7.10318 23.8707 11.4 23.7662 15.5323 23.869C21.4427 24.0159 26.5481 19.4131 26.5481 13.5009L26.5481 3.79749Z" fill="#916BBF"/>
</g>
<path d="M28.5805 41.3458V28.7458H34.4125C35.2405 28.7458 35.9605 28.9078 36.5725 29.2318C37.1845 29.5438 37.6645 29.9818 38.0125 30.5458C38.3605 31.1098 38.5345 31.7638 38.5345 32.5078C38.5345 33.2518 38.3605 33.9058 38.0125 34.4698C37.6645 35.0338 37.1785 35.4778 36.5545 35.8018C35.9425 36.1138 35.2285 36.2698 34.4125 36.2698H30.4705V41.3458H28.5805ZM30.4705 34.6678H34.2145C34.9585 34.6678 35.5465 34.4758 35.9785 34.0918C36.4225 33.6958 36.6445 33.1738 36.6445 32.5258C36.6445 31.8778 36.4225 31.3618 35.9785 30.9778C35.5465 30.5938 34.9585 30.4018 34.2145 30.4018H30.4705V34.6678ZM40.2121 41.3458V32.1838H42.0121V33.3538C42.3001 32.9218 42.6541 32.5858 43.0741 32.3458C43.5061 32.0938 43.9921 31.9678 44.5321 31.9678C44.9041 31.9798 45.2101 32.0338 45.4501 32.1298V33.7498C45.2821 33.6778 45.1081 33.6298 44.9281 33.6058C44.7481 33.5698 44.5681 33.5518 44.3881 33.5518C43.8601 33.5518 43.3921 33.6958 42.9841 33.9838C42.5761 34.2598 42.2521 34.6678 42.0121 35.2078V41.3458H40.2121ZM50.7205 41.5258C49.8325 41.5258 49.0225 41.3158 48.2905 40.8958C47.5705 40.4758 47.0005 39.9058 46.5805 39.1858C46.1605 38.4658 45.9505 37.6618 45.9505 36.7738C45.9505 35.8858 46.1605 35.0818 46.5805 34.3618C47.0005 33.6418 47.5705 33.0718 48.2905 32.6518C49.0225 32.2198 49.8325 32.0038 50.7205 32.0038C51.6205 32.0038 52.4305 32.2198 53.1505 32.6518C53.8705 33.0718 54.4405 33.6418 54.8605 34.3618C55.2805 35.0818 55.4905 35.8858 55.4905 36.7738C55.4905 37.6618 55.2805 38.4658 54.8605 39.1858C54.4405 39.9058 53.8705 40.4758 53.1505 40.8958C52.4305 41.3158 51.6205 41.5258 50.7205 41.5258ZM50.7205 39.9418C51.2845 39.9418 51.7945 39.8038 52.2505 39.5278C52.7065 39.2398 53.0665 38.8558 53.3305 38.3758C53.5945 37.8958 53.7265 37.3558 53.7265 36.7558C53.7265 36.1678 53.5885 35.6398 53.3125 35.1718C53.0485 34.6918 52.6885 34.3078 52.2325 34.0198C51.7885 33.7318 51.2845 33.5878 50.7205 33.5878C50.1565 33.5878 49.6465 33.7318 49.1905 34.0198C48.7465 34.3078 48.3865 34.6918 48.1105 35.1718C47.8465 35.6398 47.7145 36.1678 47.7145 36.7558C47.7145 37.3558 47.8465 37.8958 48.1105 38.3758C48.3745 38.8558 48.7345 39.2398 49.1905 39.5278C49.6465 39.8038 50.1565 39.9418 50.7205 39.9418ZM60.5893 41.5078C59.7013 41.5078 59.0233 41.3038 58.5553 40.8958C58.0873 40.4758 57.8533 39.8698 57.8533 39.0778V33.6958H55.9093V32.1838H57.8533V29.8438L59.6353 29.4118V32.1838H62.3353V33.6958H59.6353V38.6638C59.6353 39.1318 59.7373 39.4678 59.9413 39.6718C60.1573 39.8638 60.5053 39.9598 60.9853 39.9598C61.2373 39.9598 61.4593 39.9418 61.6513 39.9058C61.8553 39.8698 62.0713 39.8158 62.2993 39.7438V41.2558C62.0593 41.3398 61.7773 41.3998 61.4533 41.4358C61.1413 41.4838 60.8533 41.5078 60.5893 41.5078ZM67.8767 41.5258C66.9887 41.5258 66.1787 41.3158 65.4467 40.8958C64.7267 40.4758 64.1567 39.9058 63.7367 39.1858C63.3167 38.4658 63.1067 37.6618 63.1067 36.7738C63.1067 35.8858 63.3167 35.0818 63.7367 34.3618C64.1567 33.6418 64.7267 33.0718 65.4467 32.6518C66.1787 32.2198 66.9887 32.0038 67.8767 32.0038C68.7767 32.0038 69.5867 32.2198 70.3067 32.6518C71.0267 33.0718 71.5967 33.6418 72.0167 34.3618C72.4367 35.0818 72.6467 35.8858 72.6467 36.7738C72.6467 37.6618 72.4367 38.4658 72.0167 39.1858C71.5967 39.9058 71.0267 40.4758 70.3067 40.8958C69.5867 41.3158 68.7767 41.5258 67.8767 41.5258ZM67.8767 39.9418C68.4407 39.9418 68.9507 39.8038 69.4067 39.5278C69.8627 39.2398 70.2227 38.8558 70.4867 38.3758C70.7507 37.8958 70.8827 37.3558 70.8827 36.7558C70.8827 36.1678 70.7447 35.6398 70.4687 35.1718C70.2047 34.6918 69.8447 34.3078 69.3887 34.0198C68.9447 33.7318 68.4407 33.5878 67.8767 33.5878C67.3127 33.5878 66.8027 33.7318 66.3467 34.0198C65.9027 34.3078 65.5427 34.6918 65.2667 35.1718C65.0027 35.6398 64.8707 36.1678 64.8707 36.7558C64.8707 37.3558 65.0027 37.8958 65.2667 38.3758C65.5307 38.8558 65.8907 39.2398 66.3467 39.5278C66.8027 39.8038 67.3127 39.9418 67.8767 39.9418ZM78.3809 41.5438C77.2169 41.5438 76.2209 41.2498 75.3929 40.6618C74.5649 40.0618 73.9649 39.2158 73.5929 38.1238L75.3209 37.4398C75.6209 38.2438 76.0229 38.8438 76.5269 39.2398C77.0429 39.6238 77.6609 39.8158 78.3809 39.8158C79.3169 39.8158 80.0609 39.5158 80.6129 38.9158C81.1769 38.3158 81.4589 37.5118 81.4589 36.5038V28.7458H83.3489V36.5398C83.3489 37.5478 83.1449 38.4298 82.7369 39.1858C82.3289 39.9298 81.7529 40.5118 81.0089 40.9318C80.2649 41.3398 79.3889 41.5438 78.3809 41.5438ZM88.3562 41.5078C87.6962 41.5078 87.1142 41.3938 86.6102 41.1658C86.1062 40.9258 85.7102 40.5958 85.4222 40.1758C85.1342 39.7558 84.9902 39.2698 84.9902 38.7178C84.9902 37.8538 85.3202 37.1758 85.9802 36.6838C86.6402 36.1798 87.5462 35.9278 88.6982 35.9278C89.5982 35.9278 90.4322 36.1018 91.2002 36.4498V35.4778C91.2002 34.8178 91.0082 34.3258 90.6242 34.0018C90.2522 33.6778 89.7002 33.5158 88.9682 33.5158C88.5482 33.5158 88.1102 33.5818 87.6542 33.7138C87.1982 33.8338 86.6882 34.0258 86.1242 34.2898L85.4582 32.9398C86.1542 32.6158 86.8022 32.3818 87.4022 32.2378C88.0022 32.0818 88.6082 32.0038 89.2202 32.0038C90.4082 32.0038 91.3262 32.2858 91.9742 32.8498C92.6342 33.4138 92.9642 34.2178 92.9642 35.2618V41.3458H91.2002V40.5538C90.7922 40.8778 90.3542 41.1178 89.8862 41.2738C89.4182 41.4298 88.9082 41.5078 88.3562 41.5078ZM86.7182 38.6818C86.7182 39.1258 86.9042 39.4858 87.2762 39.7618C87.6602 40.0258 88.1582 40.1578 88.7702 40.1578C89.2502 40.1578 89.6882 40.0918 90.0842 39.9598C90.4922 39.8158 90.8642 39.5938 91.2002 39.2938V37.7458C90.8522 37.5418 90.4862 37.3978 90.1022 37.3138C89.7302 37.2178 89.3102 37.1698 88.8422 37.1698C88.1822 37.1698 87.6602 37.3078 87.2762 37.5838C86.9042 37.8478 86.7182 38.2138 86.7182 38.6818ZM95.0383 41.3458V32.1838H96.8383V33.0658C97.5223 32.3578 98.3803 32.0038 99.4123 32.0038C100.036 32.0038 100.588 32.1418 101.068 32.4178C101.56 32.6938 101.95 33.0658 102.238 33.5338C102.622 33.0298 103.072 32.6518 103.588 32.3998C104.104 32.1358 104.686 32.0038 105.334 32.0038C106.018 32.0038 106.612 32.1538 107.116 32.4538C107.632 32.7538 108.034 33.1738 108.322 33.7138C108.622 34.2538 108.772 34.8778 108.772 35.5858V41.3458H106.972V35.8918C106.972 35.1718 106.78 34.6078 106.396 34.1998C106.024 33.7798 105.514 33.5698 104.866 33.5698C104.422 33.5698 104.02 33.6718 103.66 33.8758C103.3 34.0798 102.988 34.3918 102.724 34.8118C102.748 34.9318 102.766 35.0578 102.778 35.1898C102.79 35.3218 102.796 35.4538 102.796 35.5858V41.3458H101.014V35.8918C101.014 35.1718 100.822 34.6078 100.438 34.1998C100.066 33.7798 99.5563 33.5698 98.9083 33.5698C98.4763 33.5698 98.0863 33.6658 97.7383 33.8578C97.3903 34.0378 97.0903 34.3138 96.8383 34.6858V41.3458H95.0383ZM114.603 41.3458V32.1838H116.403V41.3458H114.603ZM115.503 30.7078C115.203 30.7078 114.945 30.5998 114.729 30.3838C114.513 30.1558 114.405 29.8918 114.405 29.5918C114.405 29.2798 114.513 29.0218 114.729 28.8178C114.945 28.6018 115.203 28.4938 115.503 28.4938C115.815 28.4938 116.079 28.6018 116.295 28.8178C116.511 29.0218 116.619 29.2798 116.619 29.5918C116.619 29.8918 116.511 30.1558 116.295 30.3838C116.079 30.5998 115.815 30.7078 115.503 30.7078ZM121.673 41.5258C120.881 41.5258 120.137 41.4118 119.441 41.1838C118.757 40.9438 118.163 40.6078 117.659 40.1758L118.649 38.9878C119.117 39.3598 119.597 39.6478 120.089 39.8518C120.593 40.0438 121.103 40.1398 121.619 40.1398C122.267 40.1398 122.795 40.0138 123.203 39.7618C123.611 39.5098 123.815 39.1798 123.815 38.7718C123.815 38.4358 123.695 38.1718 123.455 37.9798C123.215 37.7878 122.843 37.6558 122.339 37.5838L120.683 37.3498C119.771 37.2178 119.087 36.9358 118.631 36.5038C118.175 36.0718 117.947 35.4958 117.947 34.7758C117.947 34.2238 118.097 33.7438 118.397 33.3358C118.697 32.9158 119.117 32.5918 119.657 32.3638C120.197 32.1238 120.827 32.0038 121.547 32.0038C122.207 32.0038 122.843 32.0998 123.455 32.2918C124.067 32.4838 124.655 32.7838 125.219 33.1918L124.301 34.3798C123.797 34.0438 123.305 33.7978 122.825 33.6418C122.357 33.4858 121.883 33.4078 121.403 33.4078C120.851 33.4078 120.407 33.5278 120.071 33.7678C119.735 33.9958 119.567 34.2958 119.567 34.6678C119.567 35.0038 119.681 35.2678 119.909 35.4598C120.149 35.6398 120.539 35.7658 121.079 35.8378L122.735 36.0718C123.647 36.2038 124.337 36.4858 124.805 36.9178C125.273 37.3378 125.507 37.9078 125.507 38.6278C125.507 39.1798 125.339 39.6778 125.003 40.1218C124.667 40.5538 124.211 40.8958 123.635 41.1478C123.059 41.3998 122.405 41.5258 121.673 41.5258ZM134.954 41.5078C134.078 41.5078 133.28 41.2978 132.56 40.8778C131.84 40.4578 131.27 39.8878 130.85 39.1678C130.442 38.4478 130.238 37.6438 130.238 36.7558C130.238 35.8678 130.448 35.0698 130.868 34.3618C131.288 33.6418 131.852 33.0718 132.56 32.6518C133.28 32.2198 134.078 32.0038 134.954 32.0038C135.65 32.0038 136.316 32.1358 136.952 32.3998C137.6 32.6638 138.158 33.0358 138.626 33.5158L137.51 34.7578C137.162 34.3738 136.772 34.0858 136.34 33.8938C135.908 33.7018 135.458 33.6058 134.99 33.6058C134.438 33.6058 133.934 33.7438 133.478 34.0198C133.034 34.2958 132.68 34.6738 132.416 35.1538C132.152 35.6338 132.02 36.1678 132.02 36.7558C132.02 37.3438 132.152 37.8778 132.416 38.3578C132.68 38.8378 133.04 39.2218 133.496 39.5098C133.952 39.7858 134.462 39.9238 135.026 39.9238C135.494 39.9238 135.932 39.8338 136.34 39.6538C136.748 39.4618 137.132 39.1858 137.492 38.8258L138.59 39.9778C138.11 40.4698 137.552 40.8478 136.916 41.1118C136.292 41.3758 135.638 41.5078 134.954 41.5078ZM144.131 41.5258C143.243 41.5258 142.433 41.3158 141.701 40.8958C140.981 40.4758 140.411 39.9058 139.991 39.1858C139.571 38.4658 139.361 37.6618 139.361 36.7738C139.361 35.8858 139.571 35.0818 139.991 34.3618C140.411 33.6418 140.981 33.0718 141.701 32.6518C142.433 32.2198 143.243 32.0038 144.131 32.0038C145.031 32.0038 145.841 32.2198 146.561 32.6518C147.281 33.0718 147.851 33.6418 148.271 34.3618C148.691 35.0818 148.901 35.8858 148.901 36.7738C148.901 37.6618 148.691 38.4658 148.271 39.1858C147.851 39.9058 147.281 40.4758 146.561 40.8958C145.841 41.3158 145.031 41.5258 144.131 41.5258ZM144.131 39.9418C144.695 39.9418 145.205 39.8038 145.661 39.5278C146.117 39.2398 146.477 38.8558 146.741 38.3758C147.005 37.8958 147.137 37.3558 147.137 36.7558C147.137 36.1678 146.999 35.6398 146.723 35.1718C146.459 34.6918 146.099 34.3078 145.643 34.0198C145.199 33.7318 144.695 33.5878 144.131 33.5878C143.567 33.5878 143.057 33.7318 142.601 34.0198C142.157 34.3078 141.797 34.6918 141.521 35.1718C141.257 35.6398 141.125 36.1678 141.125 36.7558C141.125 37.3558 141.257 37.8958 141.521 38.3758C141.785 38.8558 142.145 39.2398 142.601 39.5278C143.057 39.8038 143.567 39.9418 144.131 39.9418ZM150.603 41.3458V32.1838H152.403V33.0658C153.087 32.3578 153.945 32.0038 154.977 32.0038C155.601 32.0038 156.153 32.1418 156.633 32.4178C157.125 32.6938 157.515 33.0658 157.803 33.5338C158.187 33.0298 158.637 32.6518 159.153 32.3998C159.669 32.1358 160.251 32.0038 160.899 32.0038C161.583 32.0038 162.177 32.1538 162.681 32.4538C163.197 32.7538 163.599 33.1738 163.887 33.7138C164.187 34.2538 164.337 34.8778 164.337 35.5858V41.3458H162.537V35.8918C162.537 35.1718 162.345 34.6078 161.961 34.1998C161.589 33.7798 161.079 33.5698 160.431 33.5698C159.987 33.5698 159.585 33.6718 159.225 33.8758C158.865 34.0798 158.553 34.3918 158.289 34.8118C158.313 34.9318 158.331 35.0578 158.343 35.1898C158.355 35.3218 158.361 35.4538 158.361 35.5858V41.3458H156.579V35.8918C156.579 35.1718 156.387 34.6078 156.003 34.1998C155.631 33.7798 155.121 33.5698 154.473 33.5698C154.041 33.5698 153.651 33.6658 153.303 33.8578C152.955 34.0378 152.655 34.3138 152.403 34.6858V41.3458H150.603ZM166.406 45.0178V32.1838H168.188V33.0658C168.956 32.3818 169.892 32.0398 170.996 32.0398C171.86 32.0398 172.64 32.2498 173.336 32.6698C174.044 33.0898 174.602 33.6538 175.01 34.3618C175.418 35.0698 175.622 35.8678 175.622 36.7558C175.622 37.6438 175.412 38.4478 174.992 39.1678C174.584 39.8758 174.026 40.4398 173.318 40.8598C172.622 41.2798 171.836 41.4898 170.96 41.4898C170.456 41.4898 169.97 41.4118 169.502 41.2558C169.034 41.0878 168.602 40.8538 168.206 40.5538V45.0178H166.406ZM170.762 39.9238C171.35 39.9238 171.872 39.7858 172.328 39.5098C172.796 39.2338 173.168 38.8618 173.444 38.3938C173.72 37.9138 173.858 37.3738 173.858 36.7738C173.858 36.1738 173.72 35.6338 173.444 35.1538C173.168 34.6738 172.796 34.2958 172.328 34.0198C171.872 33.7438 171.35 33.6058 170.762 33.6058C170.246 33.6058 169.766 33.7018 169.322 33.8938C168.878 34.0858 168.506 34.3558 168.206 34.7038V38.8438C168.506 39.1798 168.878 39.4438 169.322 39.6358C169.778 39.8278 170.258 39.9238 170.762 39.9238ZM177.339 41.3458V28.7458L179.139 28.4038V41.3458H177.339ZM185.651 41.5078C184.751 41.5078 183.935 41.2978 183.203 40.8778C182.483 40.4578 181.907 39.8878 181.475 39.1678C181.055 38.4478 180.845 37.6438 180.845 36.7558C180.845 35.8798 181.049 35.0878 181.457 34.3798C181.865 33.6598 182.417 33.0898 183.113 32.6698C183.809 32.2378 184.583 32.0218 185.435 32.0218C186.287 32.0218 187.043 32.2378 187.703 32.6698C188.363 33.0898 188.885 33.6658 189.269 34.3978C189.665 35.1178 189.863 35.9338 189.863 36.8458V37.3498H182.645C182.741 37.8538 182.927 38.3038 183.203 38.6998C183.491 39.0958 183.851 39.4078 184.283 39.6358C184.727 39.8638 185.207 39.9778 185.723 39.9778C186.167 39.9778 186.593 39.9118 187.001 39.7798C187.421 39.6358 187.769 39.4318 188.045 39.1678L189.197 40.3018C188.657 40.7098 188.099 41.0158 187.523 41.2198C186.959 41.4118 186.335 41.5078 185.651 41.5078ZM182.663 35.9998H188.081C188.009 35.5198 187.841 35.0998 187.577 34.7398C187.325 34.3678 187.007 34.0798 186.623 33.8758C186.251 33.6598 185.843 33.5518 185.399 33.5518C184.943 33.5518 184.523 33.6538 184.139 33.8578C183.755 34.0618 183.431 34.3498 183.167 34.7218C182.915 35.0818 182.747 35.5078 182.663 35.9998ZM195.238 41.5078C194.35 41.5078 193.672 41.3038 193.204 40.8958C192.736 40.4758 192.502 39.8698 192.502 39.0778V33.6958H190.558V32.1838H192.502V29.8438L194.284 29.4118V32.1838H196.984V33.6958H194.284V38.6638C194.284 39.1318 194.386 39.4678 194.59 39.6718C194.806 39.8638 195.154 39.9598 195.634 39.9598C195.886 39.9598 196.108 39.9418 196.3 39.9058C196.504 39.8698 196.72 39.8158 196.948 39.7438V41.2558C196.708 41.3398 196.426 41.3998 196.102 41.4358C195.79 41.4838 195.502 41.5078 195.238 41.5078ZM202.561 41.5078C201.661 41.5078 200.845 41.2978 200.113 40.8778C199.393 40.4578 198.817 39.8878 198.385 39.1678C197.965 38.4478 197.755 37.6438 197.755 36.7558C197.755 35.8798 197.959 35.0878 198.367 34.3798C198.775 33.6598 199.327 33.0898 200.023 32.6698C200.719 32.2378 201.493 32.0218 202.345 32.0218C203.197 32.0218 203.953 32.2378 204.613 32.6698C205.273 33.0898 205.795 33.6658 206.179 34.3978C206.575 35.1178 206.773 35.9338 206.773 36.8458V37.3498H199.555C199.651 37.8538 199.837 38.3038 200.113 38.6998C200.401 39.0958 200.761 39.4078 201.193 39.6358C201.637 39.8638 202.117 39.9778 202.633 39.9778C203.077 39.9778 203.503 39.9118 203.911 39.7798C204.331 39.6358 204.679 39.4318 204.955 39.1678L206.107 40.3018C205.567 40.7098 205.009 41.0158 204.433 41.2198C203.869 41.4118 203.245 41.5078 202.561 41.5078ZM199.573 35.9998H204.991C204.919 35.5198 204.751 35.0998 204.487 34.7398C204.235 34.3678 203.917 34.0798 203.533 33.8758C203.161 33.6598 202.753 33.5518 202.309 33.5518C201.853 33.5518 201.433 33.6538 201.049 33.8578C200.665 34.0618 200.341 34.3498 200.077 34.7218C199.825 35.0818 199.657 35.5078 199.573 35.9998ZM208.488 41.3458V28.7458L210.288 28.4038V41.3458H208.488ZM213.019 45.2158C212.827 45.2158 212.647 45.2038 212.479 45.1798C212.311 45.1678 212.173 45.1438 212.065 45.1078V43.5238C212.281 43.5718 212.545 43.5958 212.857 43.5958C213.697 43.5958 214.303 43.1458 214.675 42.2458L215.071 41.3638L211.399 32.1838H213.397L216.061 39.1678L219.013 32.1838H220.957L216.529 42.4798C216.241 43.1278 215.935 43.6498 215.611 44.0458C215.287 44.4538 214.915 44.7478 214.495 44.9278C214.075 45.1198 213.583 45.2158 213.019 45.2158ZM227.205 41.3458V33.6958H225.081V32.1838H227.205V30.7978C227.205 29.8378 227.469 29.1058 227.997 28.6018C228.537 28.0978 229.305 27.8458 230.301 27.8458C230.553 27.8458 230.787 27.8638 231.003 27.8998C231.231 27.9238 231.435 27.9658 231.615 28.0258V29.5738C231.399 29.5138 231.207 29.4718 231.039 29.4478C230.871 29.4118 230.685 29.3938 230.481 29.3938C229.977 29.3938 229.599 29.5138 229.347 29.7538C229.107 29.9818 228.987 30.3478 228.987 30.8518V32.1838H231.615V33.6958H228.987V41.3458H227.205ZM232.991 41.3458V32.1838H234.791V33.3538C235.079 32.9218 235.433 32.5858 235.853 32.3458C236.285 32.0938 236.771 31.9678 237.311 31.9678C237.683 31.9798 237.989 32.0338 238.229 32.1298V33.7498C238.061 33.6778 237.887 33.6298 237.707 33.6058C237.527 33.5698 237.347 33.5518 237.167 33.5518C236.639 33.5518 236.171 33.6958 235.763 33.9838C235.355 34.2598 235.031 34.6678 234.791 35.2078V41.3458H232.991ZM243.536 41.5078C242.636 41.5078 241.82 41.2978 241.088 40.8778C240.368 40.4578 239.792 39.8878 239.36 39.1678C238.94 38.4478 238.73 37.6438 238.73 36.7558C238.73 35.8798 238.934 35.0878 239.342 34.3798C239.75 33.6598 240.302 33.0898 240.998 32.6698C241.694 32.2378 242.468 32.0218 243.32 32.0218C244.172 32.0218 244.928 32.2378 245.588 32.6698C246.248 33.0898 246.77 33.6658 247.154 34.3978C247.55 35.1178 247.748 35.9338 247.748 36.8458V37.3498H240.53C240.626 37.8538 240.812 38.3038 241.088 38.6998C241.376 39.0958 241.736 39.4078 242.168 39.6358C242.612 39.8638 243.092 39.9778 243.608 39.9778C244.052 39.9778 244.478 39.9118 244.886 39.7798C245.306 39.6358 245.654 39.4318 245.93 39.1678L247.082 40.3018C246.542 40.7098 245.984 41.0158 245.408 41.2198C244.844 41.4118 244.22 41.5078 243.536 41.5078ZM240.548 35.9998H245.966C245.894 35.5198 245.726 35.0998 245.462 34.7398C245.21 34.3678 244.892 34.0798 244.508 33.8758C244.136 33.6598 243.728 33.5518 243.284 33.5518C242.828 33.5518 242.408 33.6538 242.024 33.8578C241.64 34.0618 241.316 34.3498 241.052 34.7218C240.8 35.0818 240.632 35.5078 240.548 35.9998ZM253.889 41.5078C252.989 41.5078 252.173 41.2978 251.441 40.8778C250.721 40.4578 250.145 39.8878 249.713 39.1678C249.293 38.4478 249.083 37.6438 249.083 36.7558C249.083 35.8798 249.287 35.0878 249.695 34.3798C250.103 33.6598 250.655 33.0898 251.351 32.6698C252.047 32.2378 252.821 32.0218 253.673 32.0218C254.525 32.0218 255.281 32.2378 255.941 32.6698C256.601 33.0898 257.123 33.6658 257.507 34.3978C257.903 35.1178 258.101 35.9338 258.101 36.8458V37.3498H250.883C250.979 37.8538 251.165 38.3038 251.441 38.6998C251.729 39.0958 252.089 39.4078 252.521 39.6358C252.965 39.8638 253.445 39.9778 253.961 39.9778C254.405 39.9778 254.831 39.9118 255.239 39.7798C255.659 39.6358 256.007 39.4318 256.283 39.1678L257.435 40.3018C256.895 40.7098 256.337 41.0158 255.761 41.2198C255.197 41.4118 254.573 41.5078 253.889 41.5078ZM250.901 35.9998H256.319C256.247 35.5198 256.079 35.0998 255.815 34.7398C255.563 34.3678 255.245 34.0798 254.861 33.8758C254.489 33.6598 254.081 33.5518 253.637 33.5518C253.181 33.5518 252.761 33.6538 252.377 33.8578C251.993 34.0618 251.669 34.3498 251.405 34.7218C251.153 35.0818 250.985 35.5078 250.901 35.9998ZM267.249 41.5438C266.397 41.5438 265.647 41.3938 264.999 41.0938C264.363 40.7938 263.865 40.3738 263.505 39.8338C263.145 39.2938 262.965 38.6698 262.965 37.9618C262.965 37.4458 263.049 36.9898 263.217 36.5938C263.385 36.1978 263.661 35.8258 264.045 35.4778C264.441 35.1178 264.963 34.7578 265.611 34.3978C265.215 33.8818 264.933 33.4078 264.765 32.9758C264.597 32.5438 264.513 32.0878 264.513 31.6078C264.513 31.0198 264.651 30.4978 264.927 30.0418C265.203 29.5738 265.587 29.2078 266.079 28.9438C266.571 28.6798 267.129 28.5478 267.753 28.5478C268.341 28.5478 268.863 28.6678 269.319 28.9078C269.787 29.1358 270.153 29.4598 270.417 29.8798C270.693 30.2878 270.831 30.7618 270.831 31.3018C270.831 31.8778 270.675 32.3998 270.363 32.8678C270.051 33.3238 269.565 33.7438 268.905 34.1278L268.005 34.6858C268.437 35.1658 268.911 35.6578 269.427 36.1618C269.943 36.6658 270.465 37.1638 270.993 37.6558C271.269 37.2118 271.497 36.7258 271.677 36.1978C271.857 35.6578 272.007 35.0878 272.127 34.4878L273.729 34.7578C273.561 35.5258 273.351 36.2398 273.099 36.8998C272.847 37.5598 272.541 38.1598 272.181 38.6998C272.541 39.0118 272.889 39.3058 273.225 39.5818C273.573 39.8458 273.909 40.1038 274.233 40.3558L273.153 41.6338C272.841 41.3938 272.511 41.1418 272.163 40.8778C271.827 40.6018 271.491 40.3198 271.155 40.0318C270.639 40.5238 270.045 40.9018 269.373 41.1658C268.713 41.4178 268.005 41.5438 267.249 41.5438ZM267.087 33.6238L268.005 33.0838C268.401 32.8558 268.695 32.6038 268.887 32.3278C269.079 32.0398 269.175 31.7158 269.175 31.3558C269.175 30.9478 269.031 30.6118 268.743 30.3478C268.467 30.0718 268.119 29.9338 267.699 29.9338C267.255 29.9338 266.889 30.0898 266.601 30.4018C266.313 30.7018 266.169 31.0918 266.169 31.5718C266.169 31.8958 266.235 32.2138 266.367 32.5258C266.511 32.8258 266.751 33.1918 267.087 33.6238ZM267.357 40.0678C267.873 40.0678 268.353 39.9778 268.797 39.7978C269.241 39.6178 269.637 39.3538 269.985 39.0058C269.361 38.4298 268.749 37.8478 268.149 37.2598C267.549 36.6598 267.003 36.0778 266.511 35.5138C266.043 35.7658 265.671 36.0118 265.395 36.2518C265.119 36.4918 264.927 36.7438 264.819 37.0078C264.711 37.2598 264.657 37.5418 264.657 37.8538C264.657 38.5258 264.903 39.0658 265.395 39.4738C265.887 39.8698 266.541 40.0678 267.357 40.0678ZM282.279 41.3458L278.319 32.1838H280.299L283.161 39.0418L286.023 32.1838H287.931L284.007 41.3458H282.279ZM289.048 41.3458V32.1838H290.848V41.3458H289.048ZM289.948 30.7078C289.648 30.7078 289.39 30.5998 289.174 30.3838C288.958 30.1558 288.85 29.8918 288.85 29.5918C288.85 29.2798 288.958 29.0218 289.174 28.8178C289.39 28.6018 289.648 28.4938 289.948 28.4938C290.26 28.4938 290.524 28.6018 290.74 28.8178C290.956 29.0218 291.064 29.2798 291.064 29.5918C291.064 29.8918 290.956 30.1558 290.74 30.3838C290.524 30.5998 290.26 30.7078 289.948 30.7078ZM292.968 41.3458V32.1838H294.768V33.3538C295.056 32.9218 295.41 32.5858 295.83 32.3458C296.262 32.0938 296.748 31.9678 297.288 31.9678C297.66 31.9798 297.966 32.0338 298.206 32.1298V33.7498C298.038 33.6778 297.864 33.6298 297.684 33.6058C297.504 33.5698 297.324 33.5518 297.144 33.5518C296.616 33.5518 296.148 33.6958 295.74 33.9838C295.332 34.2598 295.008 34.6678 294.768 35.2078V41.3458H292.968ZM303.572 41.5078C302.684 41.5078 302.006 41.3038 301.538 40.8958C301.07 40.4758 300.836 39.8698 300.836 39.0778V33.6958H298.892V32.1838H300.836V29.8438L302.618 29.4118V32.1838H305.318V33.6958H302.618V38.6638C302.618 39.1318 302.72 39.4678 302.924 39.6718C303.14 39.8638 303.488 39.9598 303.968 39.9598C304.22 39.9598 304.442 39.9418 304.634 39.9058C304.838 39.8698 305.054 39.8158 305.282 39.7438V41.2558C305.042 41.3398 304.76 41.3998 304.436 41.4358C304.124 41.4838 303.836 41.5078 303.572 41.5078ZM310.19 41.5258C309.482 41.5258 308.858 41.3758 308.318 41.0758C307.778 40.7758 307.358 40.3558 307.058 39.8158C306.758 39.2638 306.608 38.6338 306.608 37.9258V32.1838H308.39V37.6198C308.39 38.3398 308.594 38.9098 309.002 39.3298C309.422 39.7498 309.98 39.9598 310.676 39.9598C311.168 39.9598 311.606 39.8578 311.99 39.6538C312.374 39.4378 312.686 39.1378 312.926 38.7538V32.1838H314.726V41.3458H312.926V40.4098C312.218 41.1538 311.306 41.5258 310.19 41.5258ZM319.755 41.5078C319.095 41.5078 318.513 41.3938 318.009 41.1658C317.505 40.9258 317.109 40.5958 316.821 40.1758C316.533 39.7558 316.389 39.2698 316.389 38.7178C316.389 37.8538 316.719 37.1758 317.379 36.6838C318.039 36.1798 318.945 35.9278 320.097 35.9278C320.997 35.9278 321.831 36.1018 322.599 36.4498V35.4778C322.599 34.8178 322.407 34.3258 322.023 34.0018C321.651 33.6778 321.099 33.5158 320.367 33.5158C319.947 33.5158 319.509 33.5818 319.053 33.7138C318.597 33.8338 318.087 34.0258 317.523 34.2898L316.857 32.9398C317.553 32.6158 318.201 32.3818 318.801 32.2378C319.401 32.0818 320.007 32.0038 320.619 32.0038C321.807 32.0038 322.725 32.2858 323.373 32.8498C324.033 33.4138 324.363 34.2178 324.363 35.2618V41.3458H322.599V40.5538C322.191 40.8778 321.753 41.1178 321.285 41.2738C320.817 41.4298 320.307 41.5078 319.755 41.5078ZM318.117 38.6818C318.117 39.1258 318.303 39.4858 318.675 39.7618C319.059 40.0258 319.557 40.1578 320.169 40.1578C320.649 40.1578 321.087 40.0918 321.483 39.9598C321.891 39.8158 322.263 39.5938 322.599 39.2938V37.7458C322.251 37.5418 321.885 37.3978 321.501 37.3138C321.129 37.2178 320.709 37.1698 320.241 37.1698C319.581 37.1698 319.059 37.3078 318.675 37.5838C318.303 37.8478 318.117 38.2138 318.117 38.6818ZM326.437 41.3458V28.7458L328.237 28.4038V41.3458H326.437ZM330.519 37.7458L330.303 28.6558H332.157L331.941 37.7458H330.519ZM331.239 41.4718C330.927 41.4718 330.657 41.3638 330.429 41.1478C330.201 40.9198 330.087 40.6498 330.087 40.3378C330.087 40.0258 330.201 39.7618 330.429 39.5458C330.657 39.3178 330.927 39.2038 331.239 39.2038C331.551 39.2038 331.815 39.3178 332.031 39.5458C332.259 39.7618 332.373 40.0258 332.373 40.3378C332.373 40.6498 332.259 40.9198 332.031 41.1478C331.815 41.3638 331.551 41.4718 331.239 41.4718Z" fill="white"/>
<defs>
<filter id="filter0_d_58_221" x="0.602783" y="0.797485" width="29.9453" height="28.7422" filterUnits="userSpaceOnUse" color-interpolation-filters="sRGB">
<feFlood flood-opacity="0" result="BackgroundImageFix"/>
<feColorMatrix in="SourceAlpha" type="matrix" values="0 0 0 0 0 0 0 0 0 0 0 0 0 0 0 0 0 0 127 0" result="hardAlpha"/>
<feOffset dy="1"/>
<feGaussianBlur stdDeviation="2"/>
<feComposite in2="hardAlpha" operator="out"/>
<feColorMatrix type="matrix" values="0 0 0 0 0 0 0 0 0 0 0 0 0 0 0 0 0 0 0.25 0"/>
<feBlend mode="normal" in2="BackgroundImageFix" result="effect1_dropShadow_58_221"/>
<feBlend mode="normal" in="SourceGraphic" in2="effect1_dropShadow_58_221" result="shape"/>
</filter>
</defs>
</svg>
